<?xml version="1.0" encoding="utf-8"?>
<!DOCTYPE svg PUBLIC "-//W3C//DTD SVG 20010904//EN" "http://www.w3.org/TR/2001/REC-SVG-20010904/DTD/svg10.dtd">
<svg version="1.0" xmlns="http://www.w3.org/2000/svg" width="2048px" height="2048px" viewBox="0 0 2048 2048" preserveAspectRatio="xMidYMid meet">
 <g fill="#362b23">
  <path d="M1102.8 1792.9 c-3.1 -0.5 -8.9 -1.3 -13 -1.9 -11.3 -1.7 -58.5 -13.7 -77.1 -19.7 -8.9 -2.8 -52.8 -25.5 -55.3 -28.5 -0.8 -1.1 -17 -11.3 -17.8 -11.3 -1.4 0 -19.6 -12.8 -41.8 -29.4 -12.2 -9.2 -22.3 -16.7 -22.6 -16.7 -0.3 0 -0.7 1.5 -0.9 3.5 l-0.4 3.6 6.5 1.8 6.5 1.8 0 4.8 c0 5.2 -0.3 5.5 -7.7 6.1 l-3 0.3 7.6 8.3 c4.2 4.6 10.9 11.1 14.6 14.3 6.7 5.7 7 6.1 6.7 10.1 -0.3 4.1 -0.3 4.1 -4.9 4.4 -4.4 0.3 -5.1 -0.1 -12.3 -6.1 -4.1 -3.6 -13.6 -12.3 -20.9 -19.5 -10.4 -10.1 -14 -13.1 -16.2 -13.1 -1.5 0 -3.4 -0.7 -4.3 -1.5 -0.8 -0.8 -2.4 -1.5 -3.4 -1.5 -3 0 -12.7 -4.9 -15.4 -7.8 -1.2 -1.4 -2.6 -3.6 -2.9 -4.8 -0.4 -1.6 -2 -2.9 -5.5 -4.1 -6.6 -2.4 -10.3 -5.4 -10.3 -8.5 0 -1.3 -0.4 -2.5 -0.8 -2.5 -1.7 0 -4.3 3.8 -4.3 6.5 0 2.6 -0.3 2.8 -4.6 2.8 -5.6 0 -7 -1.9 -6.6 -10 0.3 -4.3 -0.1 -6.6 -1.4 -8.4 -1.9 -2.9 -2.5 -14.1 -0.7 -17.5 0.7 -1.3 0.7 -1.9 0 -1.9 -0.5 0 -1 -2 -1 -4.6 0 -3.9 -0.3 -4.6 -1.9 -4.6 -3.7 0 -5.2 -2.8 -5.2 -9.3 l0 -6 -4.6 0 c-3.3 0 -4.8 -0.5 -5.3 -1.6 -0.3 -0.8 -3.7 -3.1 -7.5 -5 -9.6 -4.8 -10.4 -5.8 -10.1 -12.4 0.2 -4.8 0 -5.7 -2.5 -7.6 -1.5 -1.2 -2.8 -2.8 -2.8 -3.6 0 -1 -1.4 -1.2 -6.2 -0.8 l-6.3 0.6 0.5 -5.1 c0.5 -4.9 0.4 -5.1 -3.5 -7.9 -3 -2.2 -3.9 -3.5 -3.9 -5.8 0 -2.2 -0.5 -3 -1.8 -3 -2.9 0 -4.3 -2.2 -4.3 -6.5 0 -3.7 -0.3 -4 -4.8 -6 -2.8 -1.1 -6.5 -3.2 -8.2 -4.6 -3.1 -2.3 -3.4 -3 -3.4 -8 0 -5.2 -0.1 -5.5 -3.1 -6.1 -4.3 -0.9 -10.2 -6.8 -10.2 -10 0 -2.3 -0.5 -2.7 -3.3 -3 -3.2 -0.3 -3.4 -0.6 -3.9 -4.8 -0.5 -4.3 -0.7 -4.6 -5.9 -6.6 -3 -1.1 -7.5 -3.9 -10 -6.1 l-4.6 -4 0.3 -6.3 c0.3 -6 0.4 -6.3 3.9 -8 2.7 -1.4 6.1 -1.8 13.8 -1.8 9.2 0 31 2.9 35.8 4.7 1.7 0.7 1.6 0.3 -0.6 -3.8 -7.4 -12.7 -12.2 -22.6 -14.1 -28.9 -1.5 -5.1 -3 -7.7 -5.7 -10 -7.6 -6.8 -18.4 -28 -24.6 -48.2 -9.4 -31.5 -13.8 -58.4 -13.8 -85.1 l0 -16.3 -2.3 0.7 c-4.3 1.3 -22.7 1.7 -27.1 0.6 -14.5 -3.9 -22.1 -17.2 -24.5 -42.6 -0.8 -9.3 0.7 -20.1 4.2 -28.3 4.2 -10 4.1 -9.9 1.1 -10.8 -3.4 -0.8 -6.8 -5.1 -10.8 -13.7 -4.4 -9.3 -5.9 -18.3 -6.8 -38.4 -0.9 -20.3 -1.3 -21.6 -14.2 -46.8 -4.3 -8.3 -7.8 -15.7 -7.8 -16.3 0 -0.7 -2.9 -5.8 -6.2 -11.4 -10.3 -16.7 -14.3 -28.5 -16.3 -48.6 -2.3 -22.9 0.8 -45.1 8.3 -59.8 l1.8 -3.7 -9.2 -0.6 c-17.7 -1.3 -26.2 -5.5 -49.5 -24.6 -9.3 -7.7 -12 -10.8 -17.2 -20.4 -2.6 -4.6 -5.4 -8.4 -7 -9.2 -9.9 -5.1 -14.1 -8.5 -22 -17.9 -7.7 -9.1 -11 -14.2 -17.2 -26.4 -1.1 -2.3 -2.7 -4.8 -3.3 -5.6 -1.8 -2.4 -8.3 -19.3 -14.3 -37.4 -5.5 -16.8 -11.9 -42.2 -13.9 -55.8 -5.9 -40.1 -6.3 -94.2 -0.8 -125.4 2.9 -16.3 7.3 -33.3 11 -41.5 10 -22.9 16.3 -33.2 26.5 -43.6 7.1 -7.2 11.8 -10.9 32.9 -26.1 5.8 -4.2 13 -9.3 15.9 -11.5 3 -2.2 6.8 -4.5 8.4 -5.3 3.1 -1.4 28.3 -18.5 29.2 -19.9 0.3 -0.4 5.3 -4.5 11.3 -9.1 26.4 -20.8 35.5 -30.6 41 -44.2 4.3 -10.8 13.9 -28.7 20.9 -38.9 5.9 -8.7 22.7 -26 32.1 -33.1 14.8 -11.3 32.4 -20.5 55.1 -28.9 5.6 -2 10.8 -4.1 11.3 -4.6 0.6 -0.4 9.8 -3.9 20.5 -7.7 10.8 -3.8 20.9 -7.5 22.5 -8.2 1.7 -0.7 11.4 -4 21.5 -7.2 10.1 -3.2 19.9 -6.5 21.5 -7.2 1.7 -0.7 5.6 -1.8 8.7 -2.6 3.1 -0.6 14 -3.5 24.3 -6.2 37 -10.1 81.4 -20.6 112.4 -26.5 6.2 -1.2 15.9 -3.1 21.5 -4.2 15.5 -3 20.1 -3.8 24.7 -4.5 4.1 -0.6 4.3 -0.8 4.9 -5.3 0.7 -5.6 3.8 -10.9 7.2 -12.4 4.3 -1.9 26.2 -7.3 39 -9.4 46.9 -8.1 50.3 -8.5 63.5 -8 8.9 0.3 12.1 0.8 15.5 2.6 6.5 3.4 8 6.6 8.6 17.2 l0.5 9.2 6.1 1.2 c3.4 0.7 9.6 1.8 13.8 2.5 13.2 1.9 58.9 13.2 78.3 19.3 3.4 1.1 13.3 3.9 22 6.2 8.7 2.4 17 4.7 18.2 5.2 5.5 2.2 41.7 12.2 44.2 12.2 1.4 0 3.1 0.4 3.7 0.9 0.5 0.4 3.9 1.6 7.6 2.7 3.7 0.9 8.5 2.4 10.8 3.1 2.3 0.7 8 2.3 12.8 3.6 4.8 1.2 9.6 2.7 10.8 3.1 1.1 0.5 6.2 1.8 11.3 3.1 18.9 4.6 56.4 14.8 77.2 21 7.1 2.2 15.1 4.2 17.9 4.6 5.7 0.9 9.6 1.9 40.6 11.1 41.7 12.3 76.8 27.3 91.6 39.1 3.7 3 8.8 8.1 11.4 11.5 4.2 5.4 6 9.2 11.2 23.9 2.4 6.5 2 27 -0.6 37.4 -1.9 8.2 -2 9 -0.5 20.4 1.3 10.3 3 16.9 8.2 31.6 0.6 1.8 4.3 7.6 8.1 12.8 12.8 17.2 19.5 27.6 26.6 42.2 10.3 20.9 16.7 38.9 19.1 54.2 0.7 4 1.6 9.5 2.2 12.2 1.4 7.7 1.1 45 -0.6 56.5 -1.4 9.9 -4.7 27 -6.6 34.3 -6.9 26.8 -10.9 39.7 -14.3 47.6 -1 2.3 -2.5 5.9 -3.2 8.2 -4.4 14.2 -13.8 28.4 -30.3 45.5 -7.2 7.5 -15.9 15.6 -19.4 18 -7.2 5.1 -20.5 11.8 -23.6 11.8 -1.1 0 -4.6 0.9 -7.7 2.2 -13 4.9 -19.3 6.1 -28.9 5.8 -4.4 -0.1 -8.4 0.2 -8.9 0.7 -0.5 0.6 -1.5 7.5 -2.2 15.4 -0.6 7.9 -1.3 15.9 -1.6 17.7 l-0.7 3.5 4.5 -2.4 c3.7 -1.9 6.1 -2.5 13.2 -2.5 14.7 0 18.9 3.7 23.8 21.5 2.7 9.5 3.5 26.9 1.8 37.1 -1.5 9.5 -6.8 33.6 -7.5 34.9 -1.6 2.6 -7.8 28.7 -9.3 39.9 -2.2 15.1 -3.7 38.4 -3.7 57 0 27.1 -3.1 56.6 -7.7 75.8 -2.6 10.5 -9.4 33.3 -11.9 39.1 -1.1 2.9 -1.1 4.2 0.4 9.7 4 14.1 5.4 36.1 5.3 84.8 -0.1 24.6 -1.3 30.4 -9.7 47.3 -2.9 5.5 -5.1 10.5 -5.1 11 0 0.5 -2.3 4.6 -4.9 9 -7.8 12.6 -16.2 29.1 -19.1 37.3 -3.6 10.2 -5.4 14 -8 16.6 -1.8 1.8 -4.2 9.2 -9 28.4 -5.6 22.5 -13.5 44.2 -28.1 77.3 -7.8 17.6 -15.3 35.8 -16.9 41 -0.7 2.3 -4.1 10.1 -7.5 17.4 -15.6 34.1 -19.1 41.6 -20.2 42.8 -0.6 0.6 -3 4 -5.2 7.4 -2.3 3.4 -5.6 8.5 -7.6 11.5 -5.9 8.9 -12.7 16.4 -32.9 36.6 -18.4 18.4 -31.1 30.3 -32.5 30.3 -0.6 0 -16.6 11.7 -20.6 15 -3.2 2.7 -22 12.3 -31.8 16.3 -5 2 -10.8 4.4 -12.6 5.2 -5 2.4 -14.6 5.5 -16.5 5.5 -0.8 0 -9.1 2.5 -18.4 5.5 -28.2 9.2 -31.7 10 -63.1 13.4 -14.4 1.6 -50.7 1.8 -59.9 0.4z m48.1 -39.8 c3.1 -0.5 10.2 -1.6 15.9 -2.6 10.2 -1.5 21.8 -4 22.4 -4.7 0.2 -0.2 0.9 -9.4 1.6 -20.4 3.2 -50.5 0.4 -144.9 -6.2 -211.5 -0.5 -5.6 -1.4 -14.8 -2 -20.5 -0.5 -5.6 -1.4 -14.3 -1.9 -19.5 -0.5 -5 -1.4 -14.5 -2 -21 -0.6 -6.5 -1.5 -15.9 -2 -21 -0.5 -5 -1.4 -19.1 -2 -31.2 -0.6 -12.1 -1.5 -29.8 -2.2 -39.4 -0.6 -9.5 -1.5 -51.7 -2 -93.7 -0.5 -42 -1.2 -81 -1.5 -86.6 -0.4 -5.7 -0.3 -13.9 0.1 -18.2 l0.7 -7.8 3.8 0 3.9 0 0.7 9.5 c1.7 24.8 2.7 37.2 3.7 49.9 2.4 29.2 3.2 41.3 4.1 66.6 3.6 96.7 5 121.7 8.1 150 0.6 5.1 1.5 13.6 2.2 18.9 0.5 5.3 1.5 13.9 2.2 18.9 0.6 5.1 1.4 12.7 1.9 16.9 1.5 13.6 4.1 47 5.1 68.1 0.6 11.3 1.5 28.1 2 37.4 1.4 23.8 1.2 43.6 -0.5 72.7 -0.9 13.8 -2 32.3 -2.6 41 -0.5 8.7 -1.2 20.6 -1.6 26.4 -0.6 8.4 -0.4 10.4 0.7 10.4 1.7 0 44.6 -13.1 59.3 -18.1 12.3 -4.3 28 -13.8 45.1 -27.3 5.3 -4.3 13 -10.2 16.9 -13.3 4 -3.1 14.1 -12.6 22.5 -21.2 8.5 -8.6 18.3 -18.7 22.1 -22.4 6.9 -6.9 14.2 -15.6 14.2 -16.8 0 -0.4 2.4 -4.3 5.3 -8.6 6.2 -9.1 37.7 -71 37.7 -73.9 0 -1.1 3.1 -9.3 6.8 -18.2 3.8 -8.8 9.5 -23.4 12.7 -32.6 3.3 -9 6.6 -17.7 7.5 -19.5 0.8 -1.6 3.2 -8.3 5.3 -14.7 2 -6.5 5.3 -15.8 7.3 -20.7 1.9 -5 3.5 -10.1 3.5 -11.5 0 -1.3 1.8 -8.3 4.2 -15.5 2.3 -7.3 7.1 -24.7 10.8 -38.8 3.6 -14.1 7.5 -29.2 8.7 -33.4 4 -14.3 5.9 -59.9 3.5 -84 -3.7 -37.2 -4.6 -51.6 -4.5 -73.3 0 -12.4 -0.2 -23.7 -0.6 -25.1 -0.4 -1.6 -1.8 -3 -3.8 -3.8 -2.8 -1 -4.3 -0.8 -11 1.4 -14.4 4.9 -18 5.5 -32.9 6.2 -11.9 0.4 -16.2 0.2 -21.2 -1 -7.2 -1.8 -15.1 -5.6 -21.3 -10 -2.3 -1.6 -6.9 -3.7 -10.2 -4.5 -7.9 -1.9 -34.6 -6.6 -44.5 -7.7 -14.4 -1.6 -35.1 -6.8 -51.7 -12.9 -1.1 -0.4 -0.3 0.8 2 3 2.3 2 4.5 3.7 4.9 3.8 0.4 0 2.5 1.5 4.4 3.5 3.1 3 3.6 4.1 3.3 7.5 -0.3 3.8 -0.4 3.9 -4.7 4.2 -3.8 0.3 -5.2 -0.3 -11.1 -4.3 -3.7 -2.6 -7 -4.7 -7.3 -4.7 -0.6 0 -8.1 -5.9 -10.8 -8.5 -0.7 -0.7 -5.2 -4.6 -10 -8.6 -4.8 -4.1 -9.8 -8.6 -11.3 -10.1 -2.3 -2.5 -16.1 -12.1 -22.7 -15.8 -1.5 -0.8 -7.6 -4.8 -13.4 -8.9 -11.9 -8.1 -17.3 -11.1 -29.1 -15.8 -22.1 -8.8 -41.4 -12 -55.8 -9 -3 0.6 -8 1.5 -11.1 2.2 -9.4 1.7 -28.5 7.9 -37.6 12.1 -23.9 11.1 -53.9 33.4 -75.1 55.9 -10.9 11.5 -22.6 21.9 -27.6 24.5 -5.4 2.8 -13.1 3.4 -15.2 1.3 -1.9 -1.9 -1.5 -12.6 0.8 -17.4 1.1 -2.4 1.8 -4.4 1.7 -4.6 -1.3 -1.2 -35.4 13.5 -66 28.8 -10.9 5.4 -20 9.8 -20.2 9.8 -0.3 0 -3 1.6 -6 3.6 -3.1 1.9 -6.1 3.6 -6.8 3.6 -0.6 0 -6.1 3.2 -12.2 7.1 -30.5 19.5 -44 23.2 -79.7 22.3 -11.8 -0.3 -23.9 -1 -26.9 -1.5 -3.1 -0.5 -14.1 -2.4 -24.6 -4.1 -10.4 -1.7 -22.4 -3.4 -26.7 -3.7 l-7.7 -0.7 -1 37.8 c-0.6 20.7 -0.7 44.5 -0.3 53 1.3 25.5 3.1 48.7 4 53.7 0.4 2.6 1.8 10.9 3.1 18.4 1.3 7.6 3.5 18.4 4.8 24.1 2.5 10 3.5 14.4 5.5 24.6 1.5 7.4 7.7 25.1 10.5 30.3 9.6 17.7 15.3 26.8 18.9 30.5 0.9 0.9 4.2 4.7 7.2 8.3 3 3.7 14.2 15.5 25.1 26.1 10.8 10.8 20.3 20.9 21.1 22.5 0.8 1.7 5.6 9.2 10.8 16.7 5 7.6 12.7 19.4 17 26.3 4.2 7 9.6 15.3 12 18.4 2.4 3.2 4.3 6.1 4.3 6.6 0 1.1 41.9 42.2 46.8 45.9 2.2 1.5 7.8 6.2 12.6 10.3 4.8 4.2 12 10 15.9 13 4 3 8.7 6.8 10.5 8.3 1.8 1.6 6.5 5 10.2 7.4 6.2 4.1 15.9 10.4 39.6 26.2 4.6 3 13.9 8.6 20.8 12.4 7 3.9 12.8 7.4 13.1 7.9 0.3 0.4 1.4 0.8 2.6 0.8 1.1 0 5.1 1.5 8.9 3.5 3.8 1.8 11.5 4.9 17.1 6.8 5.6 1.7 12.1 3.8 14.3 4.6 2.3 0.7 7.1 2 10.8 3 3.7 0.8 10.5 2.5 15.4 3.6 14 3.3 23.3 5 34.8 6.2 5.9 0.6 11.7 1.3 12.8 1.5 3.2 0.5 22.8 -0.5 29.2 -1.5z m-282.3 -71.7 c3.1 0 2.9 -0.3 -7.6 -11 -19.5 -20.1 -31.6 -33.8 -31.6 -35.5 0 -0.4 -2.5 -4.1 -5.4 -8.1 -11.3 -15.1 -35.1 -51.2 -38 -57.5 -0.8 -1.6 -2.8 -4.5 -4.4 -6.2 -1.7 -1.8 -4.8 -5.5 -7.1 -8.2 -7 -8.8 -10.6 -12.9 -21.3 -24 -12.7 -13.3 -18.1 -19.4 -21.8 -24.5 l-2.9 -4 -1 4.2 c-1 4.2 -0.9 4.3 2 5.8 2.6 1.3 3.1 2.3 3.4 5.9 0.2 2.5 -0.2 5.1 -0.9 5.9 -0.6 0.8 -1 1.6 -0.8 1.7 0.2 0.2 2.5 1.5 5 3 2.6 1.5 5.7 3.7 7.1 5 2.3 2 2.4 2.8 1.7 9.2 l-0.7 7.1 6.7 0 c9.1 0 9.8 0.4 9.8 5.6 0 2.8 0.6 4.8 1.6 5.7 1.1 0.9 1.5 2.6 1.2 5.1 -0.3 3.8 -0.2 4 4.1 5.6 2.5 0.9 6 3.1 8 4.7 3.1 2.7 3.5 3.7 3.5 7.9 l0 4.7 5.3 1.3 c7.6 1.7 10 3.7 10 7.8 0 2.6 0.6 3.6 2.6 4.5 1.9 0.9 2.6 1.9 2.6 4.3 0 3 0.2 3.1 4.4 3.1 5.2 0 6.9 1.3 6.9 5.6 0 2.6 1.7 4.8 9.7 12.8 7.2 7.2 9.7 10.3 9.7 12.3 0 1.7 0.8 3 2.4 3.6 1.9 0.9 2.4 1.9 2.6 7.2 l0.4 6.1 5.9 2.9 c5.5 2.7 6 3.2 6.3 6.7 0.3 3.2 0.7 3.8 3.4 4.4 1.7 0.3 4.8 1.3 7 2.3 3.3 1.4 3.8 2.2 3.8 4.9 0 2.5 0.3 3.1 1.6 2.6 0.9 -0.3 3.1 -0.6 4.8 -0.6z m-43.7 -23 l2.9 -1.4 -3 -1.1 c-1.6 -0.6 -5 -1 -7.6 -0.8 l-4.7 0.3 4.6 2.3 c5.4 2.8 4.3 2.7 7.8 0.8z m-135.6 -159.4 c-0.6 -0.6 -2.5 -0.7 -4.4 -0.3 l-3.4 0.7 4.1 2.5 4 2.5 0.3 -2.2 c0.2 -1.2 -0.1 -2.7 -0.6 -3.2z m-44.7 -241.7 c0.3 -1.8 1 -12.8 1.5 -24.4 0.4 -11.6 1.1 -24.5 1.5 -28.7 0.9 -9.1 0.3 -10.5 -8.6 -22.5 -7.3 -9.7 -9 -12.5 -11.5 -18.3 l-2 -4.7 0.6 5.6 c0.4 3.1 1 11.2 1.4 17.9 1 14.5 2.3 18.1 9.4 25.9 l5.3 5.8 -0.7 18.5 c-0.6 18 -0.1 28.1 1.4 28.1 0.4 0 1.1 -1.5 1.5 -3.3z m162.3 -80.6 c3.1 -0.5 9.1 -1.5 13.3 -2.3 10.6 -1.6 25.3 -5.5 30.5 -8.1 2.5 -1.2 8 -3.8 12.3 -5.7 4.3 -1.9 8.5 -4.2 9.4 -4.9 3.4 -3 49.8 -25.4 58.3 -28.2 7 -2.3 23.2 -8.8 26.7 -10.8 1.4 -0.8 9 -3.6 16.9 -6.2 l14.3 -4.8 9.9 -10.1 c5.4 -5.5 10.4 -10.1 11.1 -10.1 0.7 0 4.1 -2.3 7.6 -4.9 3.4 -2.8 10.3 -7.9 15.5 -11.5 5 -3.6 9.7 -7.1 10.5 -7.8 1.9 -2 19.3 -12.1 26.8 -15.6 15.3 -7.2 23.2 -10 35.1 -13 31.2 -7.6 55.6 -6 88.3 5.6 5.1 1.7 10.6 3.6 12.3 4 7.4 1.8 24.3 14.6 41 30.8 7.4 7.2 14.4 13.6 15.8 14.3 2.9 1.5 10.3 3.7 31.8 9.4 21.2 5.5 24.9 6.5 40.4 9.4 34.8 6.9 64.1 14.7 79 21.3 6.2 2.8 13 5.2 15 5.6 4.4 0.6 18.9 -1.1 30 -3.8 4.5 -1.1 11.4 -2.7 15.3 -3.6 3.9 -0.8 7.3 -1.6 7.4 -1.8 0.5 -0.5 2.2 -17.2 3.4 -35 4.3 -58.2 6.5 -82.1 8.3 -95.2 0.5 -3.4 1.4 -11.2 2 -17.4 0.6 -6.1 1.5 -14.7 2 -18.9 0.5 -4.2 1.4 -12.1 2 -17.4 0.7 -5.3 2 -16 3.1 -23.6 1 -7.6 2.4 -18.4 3 -24.1 1.5 -13.3 3 -24.9 4.2 -33.8 0.6 -3.9 1.5 -13.6 2 -21.5 0.5 -7.9 1.4 -18.6 2 -24 0.8 -8 0.7 -10.5 -0.6 -15.4 -4 -13.7 -8.7 -25.1 -11.1 -26.4 -0.8 -0.4 -5.8 -4.9 -11.3 -9.8 -5.4 -5 -12.3 -11 -15.5 -13.2 -3.1 -2.4 -5.6 -4.6 -5.6 -5 0 -2.3 -36.1 -29.6 -48.6 -36.8 -8.8 -5.1 -34.9 -20.8 -37.4 -22.5 -4.4 -3 -39.4 -19.5 -41.5 -19.5 -0.3 0 -6.9 -2.5 -14.6 -5.5 -25.5 -9.9 -46.7 -16.5 -68.3 -21 -15.2 -3.2 -21 -4.3 -32.8 -6.2 -21.2 -3.4 -25.1 -4 -34.5 -5.1 -5 -0.5 -12.8 -1.4 -17.4 -2 -4.7 -0.5 -12.6 -1.4 -17.7 -2 -11.9 -1.3 -91.5 -1.3 -106.9 0 -26.4 2.4 -36.2 3.5 -75.4 9.2 -16 2.4 -39.4 7.6 -64.5 14.3 -1.6 0.5 -5.8 1.5 -9.2 2.5 -7.4 2 -14.5 4.8 -25.7 9.8 -4.5 2.2 -10 4.4 -12.3 5.1 -6.6 2 -19.9 7.3 -28.6 11.2 -12.5 5.6 -40.6 19.5 -43.5 21.5 -3.6 2.6 -20.4 11.4 -21.4 11.4 -1.1 0 -18.5 10.2 -20.3 12 -0.7 0.6 -4.2 3 -7.7 5 -8.6 5.2 -29.4 19.4 -32.6 22.2 -1.4 1.2 -3.8 3 -5.3 3.8 -7.4 4 -26 18.8 -35.6 28.4 -31.6 31.1 -29.2 28.3 -31.1 37 -8.8 39.4 -8.8 37.6 -3.7 116.9 0.6 8.7 1.5 19.5 2 23.9 1.9 15.6 3.1 24 5.1 38.6 1.1 8.2 2.6 18.5 3.2 23 0.5 4.5 1.4 10.2 1.9 12.8 1.5 7.7 4.8 26.6 6.1 34.8 0.6 4.2 1.5 9.5 2 11.8 2.3 11.4 5.1 39.4 5.1 51.1 0 8 1.1 10.9 4.3 10.9 1.5 0 6.2 6.9 10.5 15.3 1.5 3.1 4 6.9 5.5 8.4 2.7 2.6 5.2 8.9 5.2 12.7 0 1.2 0.5 1.5 1.6 1.1 0.9 -0.4 5 -1.4 9 -2.5 10.1 -2.5 42.3 -2.4 55.4 0.3 5.1 0.9 12.2 2.2 15.9 2.6 8.2 1 33.4 0.5 41 -0.9z m-176.9 -53 l2 -8.4 -2 -6.5 c-1.1 -3.6 -2.5 -9 -3 -12.1 -0.8 -5 -1 -4 -1.7 11 -0.5 9.1 -0.5 20.4 0 25.1 l0.8 8.5 0.9 -4.6 c0.5 -2.6 1.8 -8.4 3 -13z m900.8 -33.6 c0.6 -6.8 1.5 -20.1 2.2 -29.7 1.3 -20.4 2.4 -29.3 5.8 -50.2 4.1 -25 5.1 -64.7 1.6 -68.2 -0.8 -0.8 -3 0.6 -7.9 5.1 -3.7 3.5 -7.7 6.2 -8.8 6.2 -1.6 0 -2 0.7 -2 3.5 0 1.9 -0.3 4.3 -0.7 5.2 -0.5 1.5 -0.3 1.6 1.5 0.6 3.2 -1.7 8.9 -1.3 10.8 0.7 0.8 0.9 1.8 3.2 2.3 4.8 0.3 1.7 1.3 5.9 2.3 9.4 2.4 9.4 1.3 25.3 -2.2 34 -2.8 6.9 -5.2 10.3 -7.3 10.3 -0.9 0 -1.4 4.5 -1.8 15.7 -0.3 8.5 -1.3 18.8 -2.3 22.7 -6.2 27.6 -6.5 29.1 -4.6 30.7 3 2.7 7 11.1 7.8 16.4 l0.8 5.1 0.8 -5.1 c0.4 -2.8 1.1 -10.6 1.7 -17.4z m-931.1 1.9 c2.3 -12.1 4.7 -16.4 11.5 -20.5 0.4 -0.2 -11.8 -21.6 -15 -26.3 -3.3 -4.8 -4.3 -3.6 -4.3 5.5 0 7.4 -1 9.1 -5.4 9.1 -6.8 0 -8.9 -4 -8.9 -16.4 0 -9.2 3 -20.2 6.2 -23.1 1.4 -1.3 4.2 -2.2 8.5 -2.5 l6.3 -0.5 -2 -6.7 c-1.9 -5.9 -2.6 -6.9 -6.7 -9.1 l-4.6 -2.5 -2.7 3.3 c-4.4 5.2 -7.4 16.3 -7.9 29.3 -0.4 10.1 -0.1 12.6 2.8 24.5 1.9 7.9 4.9 16.7 7.3 21.5 4.9 10.1 12.4 23.2 12.9 22.8 0.2 -0.2 1 -4.1 1.9 -8.5z m-78.3 -213.8 c10.1 -2.4 22 -8.4 28.3 -14.1 8.9 -8.5 10.3 -11.3 20.6 -40.2 2 -6 2.6 -9.7 3 -22.5 l0.5 -15.4 -5.7 -3 c-6.2 -3.2 -12.7 -9.5 -15.8 -15.7 -1.1 -2.2 -3.1 -7.7 -4.3 -12.4 -2 -7.4 -2.3 -10.1 -1.7 -23 0.2 -8.6 1.1 -17 2.2 -20.7 2.3 -8.6 11.9 -27.3 18.3 -35.7 2.9 -3.9 5.9 -8.1 6.7 -9.4 1.2 -2.3 3.1 -3.9 13.7 -12.2 5.4 -4.3 18.3 -13.1 25 -17.1 1.6 -1 9.1 -6.1 16.6 -11.6 7.6 -5.3 14.1 -9.7 14.6 -9.7 0.5 0 5 -3.2 9.9 -7 4.9 -3.9 13.5 -9.5 19.1 -12.7 17 -9.5 44.7 -22.3 48.3 -22.3 1.2 0 9.1 -3.1 33.2 -13.1 5.3 -2.2 14.5 -5.6 20.5 -7.7 5.8 -2 14.3 -5 18.8 -6.7 4.5 -1.6 14.2 -5.1 21.5 -7.8 7.4 -2.7 14.7 -5.5 16.6 -6.3 1.7 -0.8 4 -1.4 4.9 -1.4 1 0 10.3 -2.8 20.9 -6 34.9 -11.1 63.4 -18.7 88.4 -23.7 5.4 -1.1 13 -2.7 16.9 -3.5 6.6 -1.4 15.4 -3.2 40.2 -7.7 5.9 -1.1 15.2 -2.5 20.5 -3.1 5.3 -0.6 16.9 -2.2 25.6 -3.5 8.7 -1.4 20.5 -3.1 26.1 -3.7 5.6 -0.7 12.8 -1.6 15.9 -2.2 5.2 -0.8 9.3 -1.3 35.8 -4.1 41.8 -4.3 83.6 -5.7 123.9 -4.2 17.2 0.7 38.4 1.9 47.1 2.8 8.7 0.8 18.8 1.7 22.5 2 6.8 0.5 33.6 3.7 49.2 5.6 4.8 0.6 15.2 2.3 23 3.7 7.9 1.3 18.5 3.2 23.6 3.9 13.5 2.2 47.9 10.8 63 15.9 3.1 1 11.9 3.8 19.5 6.1 7.6 2.4 22.8 8 33.8 12.5 11 4.5 21.6 8.6 23.6 9.2 1.9 0.6 4.7 1.8 6.1 2.9 1.4 0.9 4.6 2.9 7.2 4.1 5.9 3.1 17.7 10.8 23.4 15.3 l4.5 3.7 -3.5 -6.1 c-1.8 -3.4 -5.5 -9.3 -8.2 -13.3 -10.5 -15.7 -18.6 -36.9 -16.9 -43.8 0.6 -2.5 1.1 -2.8 5.2 -2.8 3.7 0 4.8 0.4 5.7 2.3 1.8 3.5 8.3 11.2 8.9 10.6 0.6 -0.6 -1.4 -14.4 -4 -26.4 -1.6 -8 -7.2 -22.1 -10 -25.6 -0.6 -0.7 -3.1 -3.8 -5.4 -6.9 -2.5 -3.1 -4.9 -5.6 -5.4 -5.6 -0.6 -0.1 -1.5 1.4 -2.2 3.4 -0.6 1.9 -2.6 4.8 -4.4 6.5 -2.9 2.6 -3.9 2.9 -10.9 2.9 -6.1 0 -8.7 -0.5 -12.7 -2.5 l-4.9 -2.6 -2.5 5.7 c-1.8 4.4 -3.2 6 -5.7 7.1 -5.1 2.2 -18.3 1.8 -26.5 -0.7 -3.9 -1.2 -9.3 -2.8 -12.2 -3.5 l-5.1 -1.3 -9 6 c-8.7 5.7 -13.7 7.7 -17.8 6.9 -1.3 -0.2 -1.9 -1.3 -2.2 -4.4 -0.2 -3.6 0.1 -4.4 3.1 -6.5 1.8 -1.2 5.6 -4.1 8.3 -6.2 7.7 -6 16.2 -7.7 28.1 -5.2 9.6 1.9 24.1 4.1 24.9 3.6 0.5 -0.3 1.6 -3 2.6 -6 2.6 -8.1 5.2 -10.2 11.8 -9.6 3 0.3 7.9 1.9 11.5 3.8 7.1 3.6 7.8 3.4 11.2 -3.1 2.4 -4.7 4.9 -2.9 -21.4 -14.8 -10.5 -4.8 -21.2 -9.1 -23.8 -9.6 -2.6 -0.4 -13.1 -3.4 -23.4 -6.6 -10.4 -3.3 -21.5 -6.6 -24.6 -7.4 -3.2 -0.9 -10.8 -3 -17 -4.6 -6.1 -1.6 -25.5 -6.7 -43 -11.2 -17.4 -4.4 -35.2 -9 -39.4 -10.1 -4.2 -1.2 -9.8 -2.6 -12.4 -3.2 -5.7 -1.1 -30.6 -8.3 -51.6 -14.8 -18.6 -5.8 -59.6 -18.9 -62.6 -20 l-2 -0.8 2.2 7.8 c2.8 9.4 4 24 4.1 44.7 l0 15.4 -4.6 0 -4.5 0 -1.3 -10.2 c-2.9 -21.6 -4.3 -26.8 -11.5 -41.3 -3.1 -6.2 -21.7 -22.7 -25.7 -22.7 -0.6 0 -3.5 -1.3 -6.5 -3 -3 -1.6 -8.9 -4.8 -13.4 -7.3 -4.4 -2.4 -9.3 -5.1 -10.8 -6.1 -1.4 -1.1 -4.7 -2.7 -7.3 -3.5 -2.6 -0.8 -14.2 -4.5 -26.1 -8.3 -11.8 -3.8 -24.6 -8.5 -28.4 -10.4 l-6.8 -3.6 -17.3 4.2 c-9.4 2.4 -18.8 4.7 -20.8 5.2 -1.9 0.5 -5.7 1.6 -8.5 2.4 -3.9 1 -5.7 2.4 -9.5 6.9 -2.5 3.1 -4.8 6.7 -5.1 7.9 -0.3 1.3 0.6 7.1 2 13 2.5 9.9 2.7 12.1 2.7 35 0 24.2 -0.5 29 -3.8 36 -1.5 3.2 -1.8 3.4 -6.3 3.1 -4.3 -0.3 -4.7 -0.5 -5 -3.2 -0.2 -1.6 0.4 -5 1.2 -7.6 1.9 -5.7 2 -17.4 0.2 -27.6 -1 -5.7 -2.6 -9.3 -6.7 -16.1 -7.1 -11.5 -8.6 -17 -8.1 -29 0.3 -9.1 0.2 -9.5 -1.7 -8.8 -1.1 0.3 -5.5 1.4 -9.7 2.4 -4.2 1 -23.1 5.5 -42 10.1 -18.8 4.6 -40.2 9.8 -47.6 11.6 -7.3 1.6 -17.9 4.3 -23.6 5.9 -5.6 1.5 -16.5 4.6 -24.1 6.7 -7.6 2.2 -15.5 4.4 -17.4 5.2 -1.9 0.7 -8.4 2.8 -14.3 4.5 -11.4 3.5 -21.5 6.9 -38.4 12.7 -5.6 1.9 -11.1 3.6 -12.1 3.7 -1.7 0 -15 4.7 -21.7 7.7 -1.6 0.7 -11.2 4.6 -21 8.5 -15.5 6.2 -38.8 17.2 -52.7 24.9 -2.3 1.2 -5.4 3 -7.1 3.8 -1.6 0.8 -3.7 2.3 -4.7 3.2 -0.9 0.9 -4.9 4.2 -8.8 7.5 -8.6 6.9 -20.8 20.3 -18.5 20.3 2.5 0 6.7 5.7 7.4 10.2 0.4 2.3 1 4.1 1.5 4.1 0.4 0 5.4 -1.8 11.1 -4.1 13.6 -5.5 17.6 -5.4 26.1 0 3.5 2.4 8.2 4.6 10.4 5.2 8.2 2.3 8.7 2.7 8.7 6.7 l0 3.7 -10.4 -0.4 c-10.9 -0.4 -15.1 -1.7 -18.9 -5.8 -1.8 -1.8 -2.2 -1.8 -12.1 3.8 -8.9 4.9 -11.2 5.7 -17 6.1 -5.9 0.4 -7.1 0.2 -8.9 -1.8 -1.1 -1.2 -2.6 -4.2 -3.3 -6.8 -0.7 -2.5 -1.6 -4.5 -1.9 -4.5 -1.5 0 -12.2 12.1 -13.8 15.6 -0.9 2 -3.5 7.7 -5.7 12.5 -2.2 4.8 -5.8 13.7 -8.1 19.8 -2.3 6.1 -4.4 11.9 -4.8 13 -0.6 1.6 -0.4 1.7 1.4 0.7 1.1 -0.6 4.6 -1.1 7.6 -1.1 6 0 9.3 2 11.1 6.7 0.8 2.3 1.6 2.5 7.9 2.8 l7 0.3 0.3 3.7 c0.3 3.6 0.2 3.7 -4.6 4.9 -2.7 0.7 -7.5 1.5 -10.5 1.8 -5.2 0.4 -5.9 0.2 -9.7 -3.1 l-4.1 -3.6 -6.6 4 c-3.5 2.2 -6.8 4 -7.3 4.2 -0.9 0.3 -8.3 19.4 -10.1 26.1 -1.3 4.7 -25 52.6 -27 54.8 -1.7 1.7 -15.1 23.9 -15.1 25 0 0.8 -5.3 9.3 -13.7 22 -17.9 27.1 -25.6 38.5 -26.7 39.3 -0.6 0.6 -1.9 2.5 -2.9 4.2 -0.9 1.7 -4.1 5.8 -7.1 9 -5.1 5.3 -5.8 5.7 -10.2 5.7 -5.1 0 -5.9 -0.9 -5.9 -6.3 0 -2 1.3 -4.6 4.1 -7.9 2.4 -2.8 4.8 -7.2 5.6 -10.1 0.9 -2.9 3 -8.3 4.6 -12.1 1.7 -3.7 3.1 -7.2 3.1 -7.6 0 -0.8 4.5 -11.1 10.2 -23 1.6 -3.4 5.4 -12.4 8.5 -20 3.1 -7.6 7.3 -17.5 9.3 -22 4.1 -9.1 13.8 -38.9 16.5 -50.7 1 -4.2 2 -8.3 2.4 -9.1 0.7 -1.9 -1 -0.9 -19 11.6 -8.6 5.9 -16 10.9 -16.5 10.9 -0.4 0 -1.9 1 -3.4 2.4 -1.3 1.2 -5.9 4.9 -10.2 8.1 -15.9 12 -30 38.5 -34.2 64.6 -0.8 5.2 -2.2 13.2 -3 17.9 -0.7 4.7 -1.9 16.5 -2.7 26.1 -1.8 25.7 0.2 49.9 8 93.6 l0.6 3.4 4.1 -3.1 c3.6 -2.7 5.1 -3.1 10.3 -3.1 5.4 0.1 6.8 0.5 9.8 3.1 1.9 1.7 4 3.1 4.5 3.1 0.5 0 2.9 -1.8 5.1 -4.1 4.6 -4.5 16 -14.2 25.4 -21.7 4.6 -3.7 7.1 -4.9 9.6 -4.9 3.4 0 3.5 0.1 3.5 4 0 4.2 -0.3 4.5 -28.4 31.1 l-9.3 8.9 -5.5 0 c-4.4 0 -6.6 -0.6 -10.3 -3.1 -2.7 -1.6 -5.1 -3.1 -5.5 -3.1 -0.3 0 -2.5 1.7 -4.8 3.9 l-4.2 3.9 2.2 7.7 c5.5 19.5 17 46.5 21.8 51.8 0.9 1 2.7 3.5 3.9 5.4 l2.3 3.6 13.2 0.3 c9.1 0.2 15.3 -0.2 19.8 -1.2z m87.6 -120.1 c2.8 -0.9 6.7 -3.1 8.6 -4.8 1.9 -1.7 4.9 -4.1 6.5 -5.2 l2.9 -2 -4.7 0.3 c-2.7 0.2 -5.3 -0.1 -6.1 -0.8 -1.2 -1 -2.9 0.2 -9.4 6.6 -7.2 7 -7.7 7.8 -5.3 7.8 1.4 0 4.9 -0.7 7.7 -1.7z m961.9 -7.1 c15.1 -14 16.9 -16.4 15.8 -19.7 -1.3 -3.9 -4.9 -5.3 -13.3 -5.3 -10 0 -16.1 -3.1 -21.8 -11.2 -2.3 -3.4 -4.2 -7.1 -4.2 -8.2 0 -2 -0.5 -2.2 -9.4 -2.2 -8.6 0 -10 -0.3 -14.7 -3.1 -2.9 -1.6 -7.1 -4.7 -9.2 -6.8 -3.4 -3.2 -10.2 -9 -18 -15.4 -1.1 -0.8 -1.8 -2.9 -1.8 -5 0 -3.5 0.1 -3.6 4 -3.6 4.3 0 7.7 1.9 18.5 10.8 9.7 7.9 18.8 13.5 23.2 14.2 6.5 1.1 7.5 1.7 7.5 3.8 0 1.5 0.7 1.9 3.9 1.9 3.2 0 4.6 0.7 7.5 3.7 7.2 7.5 8.6 8 21.1 8.7 9.7 0.4 12.1 0.9 14.6 2.8 l3 2.3 1.5 -2.3 c4.8 -7.5 6.7 -13.7 7.4 -25.2 l0.7 -11.6 -2.8 1.1 c-1.5 0.5 -5.9 1 -9.7 1 -7.7 0 -8.8 -0.7 -15.2 -10.2 -1.7 -2.6 -6.6 -8 -10.6 -12 -6.8 -6.9 -7.8 -7.5 -11.6 -7.5 -5.3 0 -8.8 -2.2 -18.3 -11.3 -6.7 -6.2 -8.3 -7.3 -13 -8.2 -3 -0.6 -5.5 -1 -5.7 -1 -0.2 0 -0.4 -1.9 -0.4 -4.2 l0 -4.3 7.8 0.6 c9.4 0.8 14.6 3.2 21.4 9.4 6.5 5.9 8.9 7.3 15.7 8 3 0.3 6.7 1.5 8.2 2.7 3.5 2.5 18.7 18.2 20.8 21.5 1.5 2.4 1.5 2.4 6.3 0.7 2.7 -0.9 7.2 -1.6 10 -1.6 l5.2 0 -0.7 -6.9 c-1.4 -13.9 -6 -27.2 -12.9 -37.9 -1.9 -2.9 -4.6 -7.2 -6 -9.6 -3.3 -5.5 -25.4 -27.9 -29.9 -30.2 -1.8 -0.9 -5.4 -3.5 -8 -5.6 -14 -11.6 -55.7 -32.6 -75.4 -37.8 -4.3 -1.1 -9 -2.8 -10.5 -3.5 -9.4 -4.9 -52.2 -17.2 -72.8 -21.1 -6.5 -1.2 -13.8 -2.6 -16.4 -3.1 -2.6 -0.5 -11.3 -1.9 -19.5 -3.1 -8.2 -1.1 -17.8 -2.5 -21.5 -3 -3.7 -0.6 -10.8 -1.5 -15.9 -2.2 -5 -0.6 -12.7 -1.5 -16.9 -2 -8.4 -0.9 -24.2 -2.5 -43.7 -4.1 -19 -1.5 -94.6 -1.2 -117.6 0.5 -21.6 1.6 -36.6 3.2 -46.6 4.5 -3.7 0.6 -13.8 1.9 -22.5 3.1 -8.7 1.1 -17.5 2.4 -19.5 2.7 -1.9 0.3 -6.1 1 -9.2 1.5 -3.1 0.5 -11.6 1.9 -18.9 3.1 -7.3 1.2 -20 3.5 -28.2 5.1 -8.2 1.5 -16 3.1 -17.4 3.4 -6.8 1.2 -19.4 3.9 -22.5 4.7 -3.7 1 -5.4 1.4 -22.5 5.3 -5.3 1.2 -12.3 2.9 -15.4 3.7 -3.1 0.8 -8.6 2.2 -12.3 3 -3.7 0.8 -9.8 2.3 -13.8 3.2 -7.4 1.6 -53.8 16.5 -62 19.8 -2.6 1 -11.3 4.3 -19.5 7.3 -8.2 2.9 -19.4 7.3 -24.9 9.7 -5.4 2.5 -10.5 4.5 -11.3 4.5 -1.7 0 -14.1 5.3 -13.6 5.8 0.2 0.3 3.8 -0.8 8 -2.3 17.6 -6.6 27 -9.7 28.7 -9.7 1 0 5.1 -1.1 9.2 -2.5 19.3 -6.3 34 -11 44.3 -13.9 6.2 -1.7 12.2 -3.6 13.3 -4.1 8.4 -4 79.6 -20.6 96.8 -22.5 4.2 -0.5 14.3 -2 22.5 -3.4 18.3 -3.2 28.8 -4.4 49.2 -5.8 16 -1.1 41.4 -3.4 59.4 -5.2 18.8 -1.9 30.4 -3 53.8 -5 13 -1.1 25.1 -2.4 26.8 -2.7 1.8 -0.3 4.5 -0.3 5.9 0 2.3 0.6 2.6 1.1 2.6 5.7 0 5.6 0.9 5 -10.8 7.1 -6.2 1 -15.5 2.3 -31.4 4.2 -5 0.5 -12.9 1.5 -17.7 2 -4.8 0.6 -12.7 1.5 -17.6 2 -16.1 1.8 -27.3 3.2 -34.6 4.1 -3.9 0.5 -12.2 1.4 -18.4 2 -10.3 1 -16.2 1.7 -39.9 5.1 -8.3 1.2 -34.5 5.4 -44 7.2 -2.8 0.5 -11.8 2.4 -20 4.1 -8.2 1.7 -16.9 3.5 -19.5 4 -11.5 2.4 -56.7 13.9 -58.5 15.1 -1.3 0.7 -20.4 6.7 -28.5 8.7 -4.1 1 -12.4 3.8 -18.4 5.9 -5.9 2.3 -16.2 5.9 -22.6 8.2 -6.5 2.4 -12.7 4.7 -13.8 5.2 -1.1 0.5 -8.9 3.5 -17.4 6.6 -8.4 3.1 -21.2 7.9 -28.5 10.8 -7.2 2.9 -13.6 5.2 -14.4 5.2 -1.6 0 -16.5 5.9 -26.2 10.4 -3.7 1.6 -11.1 4.9 -16.4 7.2 -5.3 2.3 -19.5 8.9 -31.3 14.7 -12 5.8 -22.2 10.6 -22.8 10.6 -0.6 0 -5.2 2 -10.2 4.5 -6.7 3.4 -10.3 6 -14.3 10.3 -6.2 6.9 -14.8 17.9 -13.9 17.9 0.4 0 2.7 -1.4 5.1 -3.1 4 -2.8 5.2 -3.1 12.4 -3.1 l7.9 0 10 -10.3 10 -10.2 8.8 0.2 c10 0.2 8 1.3 22.9 -13.1 9.2 -9 10 -9.5 14.1 -9.5 l4.4 0 0 3.9 c0 2 -0.7 4.7 -1.6 5.8 -4.3 5.7 -19.6 21.3 -22.1 22.6 -2 1 -5.6 1.4 -11.8 1.3 l-8.8 -0.2 -4.7 5.2 c-2.6 2.8 -6.9 7.5 -9.4 10.4 l-4.8 5.3 -9.3 -0.3 -9.3 -0.4 -4.7 5.1 c-2.6 2.9 -5.4 6.3 -6.3 7.9 -2 3.5 -6.3 5.3 -11 4.6 l-3.5 -0.6 -1.2 5.8 c-1.4 6.8 -1.6 19.1 -0.3 22.4 0.8 2.2 1.5 1.7 10.4 -6.5 5.3 -4.8 10.8 -9.1 12.1 -9.7 1.4 -0.5 5.3 -0.9 8.6 -0.9 l5.9 0 8.3 -9.9 c4.5 -5.5 9.3 -10.6 10.5 -11.5 1.3 -0.8 4.8 -1.8 7.8 -2.3 5 -0.7 7.2 -1.5 20.5 -7.7 3.2 -1.4 7.3 -2.5 9.9 -2.5 4.5 0 4.6 0 4.6 3.4 0 3.9 -1.4 5.5 -7.7 8.5 -2.3 1.1 -7.3 3.8 -11.1 5.8 -3.9 2 -8.3 3.8 -9.8 3.8 -3.7 0 -6.3 2 -11.7 9 -6.3 8.3 -12.1 16.6 -11.5 16.6 0.3 0 7.1 -4.6 15.2 -10.2 20.3 -14.4 46.4 -31.7 47.6 -31.7 0.6 0 3.1 -1.5 5.5 -3.4 10.3 -7.8 61.2 -39.6 63.4 -39.6 0.5 0 8.2 -4 17.1 -8.9 14.4 -8.1 29.5 -15.6 52.4 -26.2 7.9 -3.7 9.4 -4.2 36.9 -12.9 46.9 -15 99.9 -25.8 151 -30.9 42.8 -4.2 114.3 -5.5 143.9 -2.5 62.8 6.3 83.5 9.7 125.4 20.6 14.8 3.8 49.5 15.3 60.6 20.1 2.5 1 4.6 1.8 4.8 1.8 1.5 0 24.8 10.4 37.9 17.1 15.9 8 43.2 23.1 53.6 29.7 9.6 6 28.9 20.3 37.2 27.4 4.2 3.7 8.6 7.1 9.7 7.6 2.2 0.9 15.4 13 32.2 29.3 5.2 5.1 11.5 10.6 13.8 12.3 2.5 1.7 8 6.1 12.4 10 4.4 3.8 8.6 6.9 9.3 6.9 0.6 0 5.4 -4 10.6 -8.8z"/>
  <path d="M999.4 1693.6 c0 -2.4 2.9 -7.6 10.8 -19.4 5.9 -9 10.8 -16.8 10.8 -17.4 0 -1.5 -4.9 -11 -6 -11.8 -0.6 -0.3 -2.8 1.7 -4.9 4.6 -3.3 4.4 -4.3 5.1 -7.3 5.1 l-3.6 0 0.5 -4.5 c0.3 -2.7 1.8 -6.5 3.7 -9.2 5.4 -8 5.5 -8.5 3.8 -11.9 -0.9 -1.6 -1.7 -3.1 -1.9 -3.1 -0.2 0 -2 2.6 -4.1 5.6 -3.5 5.2 -4 5.6 -7.8 5.6 -4 0 -4.1 -0.1 -4.1 -3.6 0 -3.9 2 -8.3 7.1 -15.9 1.7 -2.6 3.2 -5.2 3.2 -5.8 0 -0.7 -1.6 -4.9 -3.7 -9.2 -3 -6.3 -3.7 -9.3 -3.8 -14.6 -0.2 -6 0 -6.7 1.9 -7 1.2 -0.2 2.5 -1.2 2.8 -2.4 0.4 -1.5 1.4 -1.9 4.6 -1.9 4.7 0 5.2 0.5 8.5 8.5 2.4 5.8 2.5 5.9 4.1 3.9 1.6 -1.9 1.5 -2.6 -1.8 -11.6 -3.7 -9.7 -5.7 -22.3 -3.6 -22.3 0.6 0 1 -2.5 0.9 -6.3 l-0.2 -6.5 3.7 -0.3 c4.5 -0.4 5.6 0.9 12.1 14.4 l4.4 9 2.2 -3 c1.2 -1.6 4.6 -5.5 7.6 -8.7 4.7 -5.2 5.7 -5.8 9.4 -5.8 4 0 4.2 0.1 4.2 3.2 0 3.6 -3.6 10.5 -11.2 21.8 -3.2 4.6 -4.9 8.3 -4.6 9.2 1 2.8 2.3 1.8 4.9 -3.8 2.6 -5.5 13.2 -21.1 15.4 -22.4 0.6 -0.4 2.7 -0.8 4.5 -0.8 3.2 0 3.3 0.1 3.3 4.3 0 4.5 -3.4 11.5 -12 24.5 -2.5 3.7 -4.4 7 -4.4 7.2 0 0.3 1.9 0.3 4.2 0.1 l4.3 -0.4 -0.5 4.4 c-0.3 2.7 -1.8 6.5 -3.8 9.2 -5.2 7.9 -3.7 10.2 1.7 2.7 6.1 -8.6 8.9 -11 12.9 -11 3.5 0 3.7 0.2 3.7 3.2 0 3.7 -0.5 4.8 -8.4 17 l-6 9.3 4.2 8.8 c2.3 4.8 4.1 10.1 4.1 11.9 0 2.9 -0.3 3.1 -3.6 3.1 -2.5 0 -3.9 -0.6 -4.3 -1.6 -0.3 -0.9 -1.7 -2.9 -3.2 -4.4 l-2.5 -2.7 2.7 5.3 c1.4 3 2.7 6.8 2.7 8.5 0 3.1 -0.2 3.2 -3.8 2.9 -3.4 -0.3 -4.1 -0.9 -6.9 -5.6 -3 -5.2 -3.1 -5.3 -4.5 -3.2 -1.4 1.9 -1.3 2.7 0.3 6.9 1 2.6 2 6.5 2.4 8.6 0.4 3.4 0.2 3.8 -1.8 3.8 -2.2 0 -2 0.4 1.9 7.8 2.9 5.3 4.2 9 4.2 11.8 0 3.8 -0.1 4 -3.3 4 -3.9 -0.1 -7 -3.6 -13.5 -15.7 l-3.9 -7.1 -6.3 9.2 c-12.9 18.7 -12.8 18.6 -17.7 18.6 -4.2 0 -4.4 -0.1 -4.4 -3.2z m36.9 -58.4 c0.6 -1 0.7 -1.9 0.2 -1.9 -0.5 0 -1.4 1.2 -2 2.7 -1.4 3 0.2 2.5 1.8 -0.7z m-4.8 -13.7 c-0.3 -0.8 -0.8 -1.5 -1.2 -1.5 -1.2 0 -3 4.4 -2.4 6 0.4 1.1 0.9 1 2.4 -0.8 1 -1.2 1.5 -3 1.2 -3.7z m-7.5 -14.6 c0 -0.7 -0.5 -2.2 -1.2 -3.2 -1 -1.6 -1.4 -1.7 -2.6 -0.5 -1.2 1.1 -1.2 2 -0.2 4.9 1.1 3.2 1.4 3.4 2.6 1.8 0.8 -0.9 1.4 -2.4 1.4 -3.1z"/>
  <path d="M910 1590.6 c-3 -5.9 -9.8 -27.6 -14.5 -45.6 -1.4 -5.5 -3.8 -14.5 -5.2 -20 -13.3 -50.4 -13.2 -49.3 -13.1 -86.8 0.1 -30.7 0.6 -39.1 4.5 -67.6 2.6 -18.9 11 -61.6 14.4 -73.7 4 -13.7 15.4 -44.7 19.4 -52.7 0.4 -0.9 2.5 -1.6 4.9 -1.8 4.1 -0.3 4.2 -0.2 4.9 3.3 0.9 5.1 -0.6 13.2 -9 47.2 -5.6 22.8 -5.4 22.3 -10 45.1 -5.3 27 -7.6 40.3 -11.5 69.1 -1.7 12.5 -1.7 53.7 -0.1 62 0.7 3.4 1.7 9.4 2.4 13.3 1.6 10.1 4.5 24.2 9.2 45.6 0.4 1.9 1.3 5.9 1.8 8.7 0.6 2.9 3.5 14.3 6.5 25.6 2.9 11.3 5.5 22.9 5.7 25.9 l0.5 5.3 -4.7 0 c-4.1 0 -4.8 -0.4 -6 -2.8z"/>
  <path d="M1334.7 1574.4 c-0.8 -1.9 0.1 -10.2 1.6 -15.4 1.5 -5.1 4.5 -21 6.8 -35.8 0.9 -6.1 2 -13.5 2.6 -16.4 2.9 -17.7 4 -35.7 4 -67.8 0 -18.7 -0.4 -39.9 -1 -47.1 -0.5 -7.3 -1.5 -19.8 -2.2 -28 -0.6 -8.2 -1.8 -19.3 -2.7 -24.6 -0.8 -5.3 -1.9 -13.2 -2.5 -17.4 -0.6 -4.2 -1.9 -11.1 -3.2 -15.4 -1.1 -4.2 -2.3 -12.3 -2.6 -17.9 -0.6 -11.8 0 -13.1 6.5 -12.6 4.5 0.4 6.2 2.9 10.6 15.7 7.5 21.4 9.2 37.1 11.8 104.4 2.4 63.8 2 76 -2.6 101.2 -0.5 3.2 -1.4 8.3 -1.9 11.3 -1.7 9.7 -8.4 40 -10.3 46.8 -1 3.7 -2.2 8.3 -2.5 10.2 -0.3 1.9 -1.5 5.1 -2.7 7 -1.6 2.7 -2.7 3.3 -5.6 3.3 -2.3 0 -3.9 -0.6 -4.2 -1.5z"/>
  <path d="M731.1 1367.4 c0 -2.3 1.3 -6.1 3.5 -9.9 1.8 -3.5 8.1 -15.4 13.7 -26.4 l10.3 -20.1 -5.1 -8.6 c-2.8 -4.7 -5 -7.8 -5 -6.8 0 1.3 -0.8 1.7 -3.4 1.7 -3.4 0 -3.6 -0.2 -8.7 -11.3 -4 -8.4 -5.3 -12.5 -5.3 -15.9 0 -4 0.3 -4.6 2.2 -4.6 l2.2 0 -2.2 -3.5 c-2.2 -3.4 -2.8 -8.1 -1.5 -11.3 0.4 -1.2 2 -1.6 5.6 -1.6 4.7 0 5 -0.2 5 -2.6 0 -1.7 0.6 -2.6 1.8 -2.6 1.1 0 3.2 -2.6 5.8 -7.3 2.3 -4 4.9 -8 5.9 -8.9 1.2 -1.1 1.7 -3.3 1.7 -6.7 l0 -4.9 5.3 0.3 c5.3 0.3 5.3 0.3 8.8 6.2 2.3 3.8 4.2 5.8 5.4 5.8 1.5 0 1.9 0.7 1.9 3.2 0 4.4 4.9 13.2 7.4 13.2 1.4 0 1.8 0.8 1.8 3.5 0 5.3 1.7 5.3 4.8 0 5.2 -8.7 6.2 -9.6 10.6 -9.6 4 0 4 0 4 3.9 0 2.8 -1.6 7.2 -5.1 14 l-5.1 10 7.4 11.7 c7.1 11.1 10.2 15.5 22.3 31.8 4.4 5.9 5.1 7.5 4.9 11 -0.3 4 -0.4 4.1 -4.2 4.4 -4.8 0.4 -6 -0.5 -14.3 -11.6 -3.4 -4.5 -6.7 -8.6 -7.4 -9.2 -0.6 -0.5 -4.5 -6 -8.7 -12.1 l-7.5 -11.1 -7 12.1 c-12.5 21.7 -11.6 19.5 -9.6 23.7 1 2.2 2.4 5.1 3.2 6.8 0.8 1.6 1.4 4.3 1.4 5.9 0 2.9 -0.2 3 -3.8 2.7 -3 -0.2 -4.2 -0.9 -5.1 -3 -2.9 -6 -3.7 -5.5 -9.6 5.4 -3 5.7 -6 11 -6.8 11.6 -0.6 0.7 -2.6 4.3 -4.2 8 -1.7 3.7 -4.5 8.8 -6.3 11.4 -2.9 4.3 -3.6 4.7 -7.2 4.7 -4 0 -4.1 -0.1 -4.1 -3.7z m33.8 -73.2 c-1.1 -2.2 -2.6 -4 -3.1 -4 -1.3 0 -1.3 0.1 0.4 4.2 1.7 4.1 2.7 5.1 3.8 4.4 0.5 -0.3 0 -2.4 -1.1 -4.6z m17 -27.2 c-0.5 -1.3 -1 -1.2 -3 0.9 -2.8 3.2 -4.5 5.7 -5.8 8.8 -0.5 1.2 -1.6 2.3 -2.6 2.3 -1.9 0 -1.9 -0.1 0.1 4.7 l1.6 3.9 5.1 -9.4 c3 -5.6 4.8 -10.1 4.5 -11.2z m-26.2 11.1 c-3 -5.8 -3.4 -5.2 -0.7 1.1 1.1 2.9 2.4 4.7 2.6 4.1 0.2 -0.6 -0.6 -3 -1.8 -5.2z m11.7 -10.3 c1.1 -2.3 2.4 -4.1 2.9 -4.1 0.4 0 0.8 -0.8 0.8 -1.8 0 -1 0.5 -2.4 1.2 -3.1 0.9 -0.9 0.3 -1.2 -2.8 -1.2 -3.5 0 -4.4 0.5 -6.3 3.4 -2.3 3.3 -2.3 3.5 -0.5 7.2 0.9 2 1.9 3.7 2.3 3.8 0.3 0 1.4 -1.8 2.5 -4.1z m-8.9 -17.3 c1.9 -3.4 2 -4.2 0.9 -5.1 -1.1 -0.9 -1.8 -0.5 -3.6 2.4 -1.9 3.1 -2 6.8 -0.2 6.8 0.3 0 1.6 -1.8 2.9 -4z"/>
  <path d="M1405.1 1335 c0.3 -2.9 1.9 -6.6 4.3 -10 l3.7 -5.5 -2.6 -0.3 c-5.8 -0.7 -2.2 -9.9 9.3 -23.1 2.4 -2.7 4.9 -6.1 5.6 -7.7 0.7 -1.4 2.3 -3.7 3.3 -4.9 1.8 -2.2 1.8 -2.3 -0.2 -7 -1.2 -2.7 -2.2 -5.7 -2.2 -6.8 0 -2.8 -3 -2.4 -4.3 0.6 -0.9 2 -1.8 2.6 -5.1 2.6 -3.8 0 -3.9 -0.1 -3.9 -3.9 0 -2.7 0.8 -4.6 2.6 -6.6 1.4 -1.5 2.6 -3.2 2.6 -3.8 0 -0.5 0.6 -1.1 1.2 -1.3 1 -0.4 1 -1 0 -3.3 -1.6 -3.7 -1.6 -13.9 0.1 -13.9 0.8 0 1.1 -1.6 0.9 -5.6 -0.4 -5.2 -0.2 -5.6 1.8 -5.6 1.7 0 2.2 -0.4 1.6 -1.7 -1.2 -3.2 -1.9 -10.3 -1.2 -13 0.4 -1.7 1.3 -2.7 2.7 -2.7 1.4 0 2 -0.8 2.3 -3.3 0.3 -3.1 0.6 -3.4 4.2 -3.7 2.2 -0.2 4.6 0.2 5.4 0.9 1.6 1.3 7.6 13.3 7.6 15.3 0 1.8 1 1.1 6.9 -5.1 5.4 -5.9 5.9 -6.2 9.9 -5.9 4 0.3 4.2 0.5 4.5 4 0.3 3.1 -0.6 4.7 -6.1 11.6 -8.8 11 -9.4 11.9 -8.7 12.6 0.4 0.3 1.7 -0.7 3 -2.4 6.9 -8.7 10.2 -11.7 13.7 -11.7 3.4 0 3.5 0.1 3.5 4.4 0 2.7 -0.8 5.2 -2 6.9 -2.7 3.4 -2.6 4.1 0.4 4.1 2.3 0 2.6 0.5 3.3 5.7 0.8 6.7 -0.8 11.2 -6.3 17.4 -1.8 2.3 -3.5 4.6 -3.5 5.3 0 0.7 2 6.6 4.6 12.9 2.8 7.2 4.6 13.3 4.6 15.9 0 4.2 0 4.2 -4 4.2 l-4 0 4.7 12.6 c2.6 6.9 4.8 15 5.1 17.9 l0.4 5.4 -5 -0.3 c-4.8 -0.3 -5 -0.4 -8 -5.9 -3 -5.3 -3.3 -5.6 -7.2 -5.6 -3.9 0 -4.2 -0.3 -6.7 -5.1 -1.4 -2.8 -4 -8.2 -5.6 -12 l-3.1 -6.9 -2.9 3.3 c-1.5 1.8 -3.3 4.3 -3.8 5.5 -0.5 1.2 -4.8 7.5 -9.6 14 -4.8 6.6 -8.8 12.1 -8.8 12.5 0 1.6 -3.3 3.5 -6.2 3.5 -3.2 0 -3.3 0 -2.8 -4.4z"/>
  <path d="M913.6 1188.2 c-1.7 -1.2 -2.3 -2.6 -2.3 -5.9 0 -2.5 0.6 -4.9 1.3 -5.4 1.4 -1.1 20 -6.5 22.3 -6.5 0.9 0 4.6 -0.9 8.2 -2.2 23.7 -7.5 29.8 -9.7 36 -12.9 3.9 -1.9 9.3 -3.8 12.1 -4.1 l5 -0.6 0 3.8 c0 2 -0.5 3.7 -1 3.7 -0.6 0 -2 0.8 -3.2 1.8 -5.3 5 -45.3 25.1 -55.6 27.9 -8.9 2.5 -19.7 2.7 -22.9 0.4z"/>
  <path d="M1284.4 1154 c-20.6 -2.6 -33.6 -6.8 -41.5 -13.3 -3.6 -3 -3.9 -3.7 -3.9 -8.4 l0 -5.1 6.5 0.4 c4.5 0.3 8.6 1.5 14 4.1 18 8.5 35.7 12.6 50 11.6 l9.4 -0.7 0 4.5 c0 4 -0.4 4.8 -2.8 5.9 -3.5 1.7 -21.5 2.3 -31.7 1z"/>
  <path d="M882.2 1076.7 c-0.5 -0.1 -4.5 -0.8 -8.7 -1.5 -4.2 -0.7 -13.6 -2.4 -20.9 -3.7 -7.2 -1.3 -13.3 -2.5 -13.5 -2.5 -0.2 0 -0.4 -1.8 -0.4 -4.1 0 -3.8 0.2 -4 3.8 -4.7 2 -0.4 9.3 -0.2 16.1 0.5 15 1.4 24.7 1.4 34.6 0.1 4.1 -0.5 11.9 -1.4 17.2 -2 11.1 -1.3 24.1 -5.1 30.4 -8.8 4.1 -2.4 8.7 -3.1 12 -1.8 1.2 0.5 1.6 2 1.6 6.2 0 4.9 -0.4 6 -3 8.3 -4.5 4.3 -26 11.6 -39.5 13.5 -6.6 0.9 -27.2 1.3 -29.7 0.5z"/>
  <path d="M1322.5 1060.2 c-16.7 -2.4 -29.1 -5.6 -34.1 -8.7 -1.6 -1 -2.3 -2.5 -2.3 -5 l0 -3.7 34.6 0 34.5 0 9.3 -3.2 c5.2 -1.8 13.6 -5.3 18.7 -7.9 6.5 -3.3 10.5 -4.7 13.4 -4.7 l4.2 0 -0.3 3.8 c-0.3 3.4 -1 4.4 -6.5 8.2 -5.5 4 -26.2 14.7 -36.9 19.3 -3 1.2 -7.9 1.8 -17.9 2 -7.6 0.2 -15.2 0.1 -16.9 -0.1z"/>
  <path d="M884.2 1004.9 c-20.1 -4.2 -27 -6.3 -31.9 -10.1 -2.8 -2.2 -3.4 -3.3 -3.4 -6.6 0 -5 1.4 -5.5 13.4 -4.6 5.8 0.5 9.1 0.4 9.1 -0.3 0 -0.5 -1.2 -3.6 -2.7 -6.8 -2.5 -5.4 -2.6 -6.6 -2.2 -16.3 1.2 -23.3 4.9 -31.7 18.1 -40.7 7.5 -5.1 22.3 -9.2 33.2 -9.2 15.8 0 29.3 7.8 36.2 21 2.5 4.7 2.8 6.1 2.8 16.9 0 10.9 -0.2 12.2 -2.8 17.2 -2.9 5.5 -2.5 6.5 2.3 4 6.8 -3.5 14.4 -5.9 17.5 -5.6 3.4 0.3 3.5 0.4 3.8 5.4 l0.2 5.1 -9.9 5.7 c-24.5 14.1 -44.1 22.3 -58.7 24.5 -6.7 1 -21.2 1.1 -25.1 0.3z m30.7 -49.4 c2.6 -5 -2.8 -11 -7.6 -8.3 -5.8 3.1 -6.8 9.3 -2 12.2 3 1.8 3.5 1.8 5.7 0.4 1.3 -0.9 3.1 -2.9 3.9 -4.3z m4.1 -19.5 c0.7 -1.2 -1.2 -2.5 -2.6 -1.6 -1.1 0.7 -0.4 2.6 1 2.6 0.5 0 1.1 -0.4 1.5 -0.9z"/>
  <path d="M1292.3 966.1 c-3.1 -0.7 -8.8 -2 -12.7 -3 -9 -2 -22.6 -8.4 -24.7 -11.5 -0.8 -1.3 -1.5 -4 -1.5 -6 l0 -3.6 6.1 0 6 0 -3 -6.3 c-2.9 -6 -3.1 -7.3 -3.1 -18.4 0 -12.7 0.6 -15.5 4.7 -21.5 5.7 -8.3 15.3 -12.1 30.6 -12.1 22.4 0 38.4 7.8 46.2 22.5 2.9 5.6 3.3 22.4 0.6 29.4 l-2 5.2 3.3 -1.3 c18.1 -7.8 23.8 -9.7 27.9 -9.7 l4.5 0 0 5 0 5 -6.5 4.1 c-3.5 2.3 -9.3 5.5 -13 7.4 -3.7 1.8 -9.6 5.3 -13.3 7.7 -9.9 6.6 -18.1 8.7 -32.7 8.6 -6.6 0 -14.4 -0.7 -17.5 -1.4z m12.3 -35.8 c3.5 -1.8 5.4 -5 4.7 -7.5 -0.7 -2 -7.1 -6.3 -9.5 -6.3 -2.5 0 -7.5 5.1 -7.5 7.6 0 2.7 0.8 3.8 4.1 6 3.1 2.2 4.4 2.2 8.2 0.2z"/>
  <path d="M807.9 950.3 c0 -2.8 0.9 -5.4 3 -8.4 4.8 -7.3 9.7 -16 16.6 -29.3 10.2 -19.9 18.3 -28.4 34.3 -36.5 12.2 -6 24.5 -8.3 45.5 -8.3 14.3 0.1 19.9 0.5 27.6 2.3 10.9 2.4 22.5 6.9 29 11.2 20.6 13.4 25.4 17.2 33.5 25.8 7.4 7.9 8.1 9 8.7 13.9 1.2 9.2 0.7 10.3 -4.7 10.6 -4.5 0.3 -4.9 0.1 -8.2 -4 -5.1 -6.5 -23.7 -19.8 -36.2 -25.9 -13.6 -6.8 -21.3 -8.8 -35.2 -9.5 -17.9 -1 -24.9 0.9 -57.2 15.9 -17.2 8 -24.3 13 -28.6 20.6 -4 6.9 -12.3 18.5 -16 22.4 -2.7 2.7 -3.9 3.3 -7.6 3.3 l-4.4 0 0 -4.1z"/>
  <path d="M1217.3 900 c-1.4 -0.8 -1.8 -2.5 -1.8 -7.5 0 -7.8 2.4 -11.9 12.9 -22.7 25 -25.7 50.7 -38.3 77.9 -38.3 22.9 0 41 5.9 57.9 19.1 11.6 9 15.7 12.1 24.9 18.7 5.1 3.6 12.1 9.1 15.7 12.1 5.7 5 6.3 5.9 6.3 9.5 0 3.9 -0.1 4 -3.5 4 -3.5 0 -11.8 -5 -23.6 -14.3 -2.2 -1.6 -4.3 -3.1 -4.8 -3.1 -0.5 0 -4 -2 -7.8 -4.5 -7.8 -5 -22.9 -12.8 -30 -15.4 -8 -2.9 -16.8 -3.5 -28.6 -2 -21.1 2.7 -39.3 8.6 -52.8 17.3 -4 2.6 -7.6 4.6 -8.2 4.6 -1.2 0 -9.3 7.6 -16.1 15.1 -2.7 2.9 -5.8 5.9 -7.2 6.9 -2.6 1.8 -8.6 2.2 -11.3 0.5z"/>
  <path d="M725.1 885.9 c-2.7 -2.7 -2.9 -9.4 -0.5 -13.9 0.8 -1.6 4.3 -9.5 7.6 -17.4 13.5 -32.4 14.6 -34.1 30.5 -45.4 14.1 -10 35.1 -22.6 37.7 -22.7 0.6 0 6.9 -2.7 13.8 -6 18.2 -8.6 19.4 -9 31.4 -13.5 22.4 -8.3 46.3 -15 69.3 -19.3 6.2 -1.2 13.5 -2.7 16.2 -3.2 2.8 -0.6 7.4 -1 10.2 -1 3 0 8.1 -0.7 11.5 -1.5 3.4 -0.8 7.5 -1.4 9 -1.5 3.1 0 7.6 -2.8 18 -11.2 6.2 -5 6.8 -5.2 12.9 -5.2 9 0 10 1.2 9.5 13 -0.3 7.3 -1.4 12.4 -5.8 26.9 -5.9 19.6 -8.9 30.7 -9.9 37.9 -0.4 2.6 -1.4 5.6 -2.3 6.9 -1.5 2.5 -10 5.6 -18.6 7 -13.1 2 -42.2 8.2 -64.5 13.7 -13.8 3.5 -26 6.2 -27 6.2 -1 0 -5.2 0.9 -9.2 2.2 -15.8 4.5 -27.9 8.3 -29.8 9.1 -1.1 0.5 -8.5 3.1 -16.4 5.7 -20.8 7 -54.1 20.6 -72.8 29.8 -11.3 5.6 -17.6 6.7 -20.8 3.5z m77.5 -65.1 c8.3 -2.6 9.3 -3.2 9.6 -5.4 0.7 -5.7 9.8 -8.9 29.3 -10 11 -0.6 12.5 -0.9 12.5 -2.6 0 -0.9 0.9 -3.8 1.9 -6.3 1.5 -3.6 2.8 -4.8 5.4 -5.6 1.8 -0.6 4.5 -1.4 5.9 -1.8 1.4 -0.4 11.4 -1 22 -1.3 l19.5 -0.6 0.3 -4.1 c0.2 -2.3 1 -4.7 1.9 -5.3 2.6 -1.9 12.3 -1.6 22.8 0.8 8.3 1.9 9.8 2 14 0.7 4.6 -1.3 9.5 -5.7 9.5 -8.5 0 -3.5 10.8 -5 13.7 -1.9 1.5 1.4 1.7 1.3 2.6 -0.8 0.5 -1.3 1.8 -4.8 3.1 -7.8 1.2 -3 2.2 -5.6 2.2 -5.9 0 -0.3 -2 0.7 -4.4 2.2 -3.3 1.8 -5.9 2.6 -9.9 2.6 -3 0 -12.6 1.8 -21.4 4.1 -8.8 2.2 -17.1 4.3 -18.5 4.6 -1.4 0.4 -3.5 1 -4.6 1.5 -1.1 0.5 -7.1 2.4 -13.3 4.1 -11.2 3.3 -41.5 13.6 -51.1 17.4 -2.8 1.1 -5.6 2 -6.5 2 -2.4 0 -20.6 9 -36.7 18.2 -15.2 8.6 -24.1 14.2 -20.9 13.2 0.8 -0.3 5.7 -1.7 11 -3.3z"/>
  <path d="M1412.1 815.8 c-0.3 -0.3 -4.6 -1 -9.7 -1.7 -18.8 -2.4 -23.8 -3.1 -31.7 -4 -4.5 -0.6 -11.7 -1.5 -15.9 -2.2 -18.7 -2.6 -35.7 -4.6 -51.2 -6 -12 -1.2 -36.5 -3.9 -48.1 -5.2 -9.3 -1.2 -33.2 -2.9 -52.2 -3.7 -6.5 -0.3 -12.8 -0.7 -14 -1 -4.2 -0.8 -13 -22.2 -14.2 -34.7 -1 -9.8 0.1 -15.3 4.2 -19.6 l3.6 -3.7 9.4 0.4 c9.2 0.5 9.6 0.4 13.9 -2.6 10 -6.8 24.8 -12 43.2 -15.3 11.3 -1.9 46.7 -1.6 60.9 0.6 29.1 4.5 65.7 14.3 79.4 21.1 1.9 1 7.3 3.1 11.8 4.6 8.1 2.8 28.8 13.4 32.8 16.8 1.1 0.9 4.7 3.6 8.1 5.8 8.2 5.4 27.6 24.1 29.7 28.5 3.5 7.4 1.3 17.4 -4.4 20.1 -2.7 1.2 -54.4 2.9 -55.4 1.7z m-15.4 -45.1 c-1.4 -0.6 -5.8 -2.7 -9.9 -4.5 -7.4 -3.4 -15.3 -6.7 -21.8 -9 l-3.6 -1.2 0 5.4 c0 3.1 0.2 5.5 0.5 5.5 7.6 0.3 25.4 2.4 29.2 3.5 6.2 1.7 9.1 1.9 5.6 0.3z m-182.3 -15.6 c0.7 -0.8 4.7 -3.7 8.8 -6.3 4.2 -2.6 7.4 -4.9 7.3 -5.1 -0.7 -0.6 -9.8 3 -11.1 4.4 -0.6 0.8 -1.8 1.4 -2.8 1.4 -0.8 0 -2.5 0.7 -3.4 1.6 -1 0.9 -4.5 2 -7.8 2.5 l-5.9 0.7 5.3 0.2 c2.9 0 5.6 0.6 5.9 1.1 0.9 1.4 2.2 1.2 3.6 -0.5z m106.5 -5.7 c6.5 -0.6 11.9 -1.2 12.1 -1.3 0.2 -0.2 -4.9 -1.3 -11.3 -2.6 -11.8 -2.3 -23.9 -3.7 -21.5 -2.6 0.6 0.3 1.2 2.5 1.2 4.7 l0 4.2 3.9 -0.7 c2 -0.3 9.1 -1.1 15.6 -1.7z m-57.9 -3.8 c4.5 -1.2 12.4 -2.8 17.4 -3.6 l9.2 -1.5 -21.5 -0.1 c-19.7 -0.1 -21.3 0 -19.1 1.5 1.3 0.9 2.3 2.7 2.3 4.2 0 1.9 0.4 2.5 1.8 2 0.9 -0.3 5.4 -1.4 9.9 -2.6z"/>
 </g>
 <g fill="#ffffff">
  <path d="M0 1024 l0 -1024 1024 0 1024 0 0 1024 0 1024 -1024 0 -1024 0 0 -1024z m1159.7 765.4 c31.3 -3.4 34.9 -4.2 63.1 -13.4 9.3 -3.1 17.6 -5.5 18.4 -5.5 1.8 0 11.5 -3.2 16.5 -5.5 1.8 -0.8 7.6 -3.2 12.6 -5.2 9.8 -4 28.7 -13.6 31.8 -16.3 4 -3.3 20 -15 20.6 -15 1.3 0 14 -11.9 32.5 -30.3 20.2 -20.2 26.9 -27.6 32.9 -36.6 1.9 -3 5.3 -8.1 7.6 -11.5 2.3 -3.4 4.6 -6.8 5.2 -7.4 1 -1.2 4.6 -8.7 20.2 -42.8 3.4 -7.3 6.8 -15.2 7.5 -17.4 1.6 -5.1 9.1 -23.3 16.9 -41 14.5 -33.1 22.4 -54.8 28.1 -77.3 4.8 -19.1 7.2 -26.5 9 -28.4 2.6 -2.6 4.4 -6.3 8 -16.6 3 -8.2 11.4 -24.7 19.1 -37.3 2.7 -4.4 4.9 -8.5 4.9 -9 0 -0.4 2.3 -5.4 5.1 -11 8.1 -16.2 9.6 -23 9.6 -44.2 0.1 -22.9 -1.2 -61.3 -2.4 -68.6 -0.5 -3.1 -1.9 -9.6 -3.2 -14.5 l-2.4 -8.9 3.1 -8 c3.3 -8.5 9.5 -29.2 12 -40.2 3.8 -16.6 6.7 -47.3 6.8 -71.9 0 -18.5 1.5 -42.5 3.7 -57.3 1.5 -11.3 7.7 -37.4 9.3 -39.9 0.7 -1.3 5.9 -25.4 7.5 -34.9 2.3 -13.5 -0.3 -31 -6.2 -43.1 -5.7 -11.8 -21.1 -12.6 -33.7 -1.9 l-3.4 2.8 0.6 -10.1 c0.9 -15 2.7 -34.4 3.4 -37.6 0.5 -2.4 0.9 -2.7 2.5 -1.8 1.4 0.7 2.4 0.6 3.6 -0.6 1.5 -1.5 1.9 -1.5 5.7 0.1 3.6 1.6 4.7 1.7 9.9 0.5 6.6 -1.4 8.6 -2 16.6 -5 3.1 -1.2 6.6 -2.2 7.7 -2.2 3.1 0 16.4 -6.7 23.6 -11.8 3.5 -2.5 12.2 -10.5 19.4 -18 16.5 -17.1 25.9 -31.2 30.3 -45.5 0.7 -2.3 2.2 -5.9 3.2 -8.2 3.5 -7.9 7.5 -20.8 14.3 -47.6 1.8 -7.3 5.1 -24.4 6.6 -34.3 1.6 -11.5 2 -42.8 0.6 -50.4 -0.5 -2.7 -1.4 -8.2 -2.2 -12.2 -2.5 -15.3 -8.8 -33.3 -19.1 -54.2 -7.6 -15.3 -12.8 -23.6 -26.3 -41.9 -4.7 -6.2 -8.5 -12.1 -8.6 -12.9 -0.1 -0.8 -1.5 -5.6 -3.4 -10.6 -2.2 -6.1 -3.7 -13.6 -4.8 -22.8 -1.5 -13.1 -1.5 -14 0.3 -22.1 2.6 -11.3 3.2 -27.9 1.1 -33.7 -6.9 -19.8 -11.1 -26.4 -22.6 -35.6 -14.8 -11.8 -50 -26.8 -91.6 -39.1 -30.9 -9.1 -34.8 -10.1 -40.6 -11.1 -2.9 -0.4 -10.9 -2.5 -17.9 -4.6 -20.8 -6.1 -58.3 -16.4 -77.2 -21 -5 -1.2 -10.1 -2.6 -11.3 -3.1 -1.1 -0.4 -5.9 -1.8 -10.8 -3.1 -4.8 -1.2 -9.8 -2.7 -11.3 -3.1 -1.4 -0.5 -6 -1.8 -10.2 -3.1 -4.2 -1.2 -8.4 -2.5 -9.2 -2.8 -0.8 -0.3 -2.7 -0.8 -4.1 -1 -3.2 -0.5 -38.2 -10.3 -43 -12.1 -1.9 -0.7 -10.8 -3.3 -19.5 -5.6 -8.7 -2.4 -18.6 -5.1 -22 -6.2 -18.1 -5.6 -65.7 -17.5 -75.8 -18.8 -5.1 -0.6 -11 -1.7 -20.2 -3.7 -4.5 -1 -4.7 -1.2 -3.8 -3.7 0.5 -1.3 0.9 -5 0.9 -8.2 0 -11.2 -6.6 -16.7 -20.9 -17.5 -9.7 -0.6 -14.4 0 -60.5 8 -12.8 2.2 -34.7 7.5 -39 9.4 -3.4 1.5 -6.5 6.8 -7.2 12.4 -0.6 4.5 -0.8 4.7 -4.9 5.3 -4.6 0.7 -9.2 1.5 -24.7 4.5 -5.6 1.1 -15.3 3 -21.5 4.2 -31 5.9 -75.5 16.4 -112.4 26.5 -10.2 2.8 -21.2 5.6 -24.3 6.2 -3.1 0.7 -7 1.8 -8.7 2.6 -1.6 0.7 -11.4 4 -21.5 7.2 -10.1 3.2 -19.8 6.5 -21.5 7.2 -1.6 0.7 -11.8 4.4 -22.5 8.2 -10.6 3.8 -19.9 7.3 -20.5 7.7 -0.5 0.5 -5.6 2.6 -11.3 4.6 -22.7 8.4 -40.2 17.6 -55.1 28.9 -9.3 7.1 -26.1 24.4 -32.1 33.1 -7 10.2 -16.6 28.2 -20.9 38.9 -5.4 13.6 -14.5 23.4 -41 44.2 -5.9 4.6 -11 8.7 -11.3 9.1 -0.9 1.3 -26.1 18.4 -29.2 19.9 -1.6 0.8 -5.4 3.2 -8.4 5.3 -2.9 2.2 -10 7.3 -15.9 11.5 -21.1 15.3 -25.8 18.9 -32.9 26.1 -10.2 10.4 -16.5 20.7 -26.5 43.6 -11.2 25.3 -16.9 73.4 -14.2 118.8 1.7 29.3 3.5 42 8.9 65.5 5.1 22 19.5 64.5 23.4 69.6 0.6 0.8 2.2 3.4 3.3 5.6 6.2 12.2 9.5 17.3 17.2 26.4 7.9 9.4 12.1 12.8 22 17.9 1.5 0.8 4.4 4.6 7 9.2 5.2 9.6 7.9 12.7 17.2 20.4 23.4 19.1 33 23.9 49.6 24.4 4.8 0.1 10 0.3 11.6 0.4 l2.9 0.1 -3.6 4.7 c-4.4 5.7 -9.7 19.3 -11 27.5 -2 15.4 -1.2 38.7 1.9 50.7 2.2 8.2 7.5 20 13.4 29.5 3.4 5.5 6.2 10.6 6.2 11.4 0 0.6 3.5 8 7.8 16.3 12.9 25.2 13.3 26.5 14.2 46.8 0.8 20 2.4 29.1 6.7 38.2 4.4 9.5 6.8 12.3 12.4 14.6 5.1 2.3 5.1 2.3 3.2 4.4 -1.9 2.3 -6.2 11.6 -8.4 18.4 -1.7 5.4 -1.7 18.9 -0.1 27.8 2.9 14.6 8.7 23.8 18.4 28.7 7.7 3.9 26.9 2.6 30.8 -2 0.7 -0.8 1.6 -1.5 2.2 -1.5 0.5 0 0.9 8.2 0.9 18.2 0 28.8 4.1 54.7 13.8 87 6.1 20.3 17 41.5 24.6 48.2 2.8 2.4 4.2 4.9 5.7 10 4 13.1 21 41.8 32.4 54.6 2.7 3.1 9.6 10.4 15.3 16.4 10.6 11 14.3 15.2 21.3 24 2.3 2.7 5.3 6.3 7.1 8.2 1.6 1.7 3.6 4.6 4.4 6.2 2.9 6.3 26.7 42.5 38 57.5 3 4 5.4 7.7 5.4 8.1 0 1 6.6 8.9 14.3 17.3 26.9 28.8 31.1 32.7 53.8 49.7 22.5 16.9 40.7 29.7 42.1 29.7 0.8 0 17 10.1 17.8 11.3 2.5 3 46.4 25.7 55.3 28.5 18.6 5.9 65.8 17.9 77.1 19.7 4.1 0.6 9.9 1.4 13 1.9 9.1 1.4 39.3 1.2 53.8 -0.4z m-258 -49.5 c0 -0.7 -3.5 -4.3 -7.8 -8.2 -8 -7 -29.2 -29.7 -28.5 -30.4 0.2 -0.2 3.4 0.3 7 1.1 7.5 1.7 11.4 1.2 11.4 -1.4 0 -1.3 -2 -2.4 -8.5 -4.2 -4.6 -1.3 -8.8 -2.8 -9.3 -3 -0.5 -0.3 0.5 -1.8 2.5 -3.4 2.3 -1.9 3.2 -3.4 2.7 -4.5 -1.2 -3.5 -10.8 0.6 -17.9 7.6 l-3.2 3.1 -3.8 -2 c-2.2 -1.1 -5 -3 -6.5 -4 l-2.6 -2 3.9 0 c5.5 0 8.2 -1.6 7.5 -4.5 -0.5 -2.3 -0.4 -2.4 3.4 -1.3 7.5 2 10.3 -2.2 3.5 -5.1 -4.5 -1.8 -14.1 -4.3 -17.4 -4.4 -3.7 0 -4.1 3.8 -0.7 7.3 l2.9 3 -3.6 0 c-3.7 0 -14.2 -4.4 -14.2 -5.9 0 -0.5 1.6 -0.9 3.6 -1 4.6 -0.2 5.6 -0.8 5.6 -3.3 0 -1.8 0.7 -2 6.5 -1.7 5.8 0.2 6.3 0 6.7 -1.9 0.3 -1.8 -0.9 -2.9 -6 -5.4 -7.4 -3.7 -11.2 -4.1 -11.9 -1.2 -0.5 2.2 -4.1 3.6 -5 1.9 -0.3 -0.5 -2.7 -1.8 -5.1 -2.9 -2.5 -1.1 -5.4 -3.1 -6.7 -4.5 -2.6 -3 -6.6 -3.5 -7.5 -1 -0.7 1.9 0.8 5 3.3 6.6 1.4 0.9 1.3 1 -0.8 0.4 -6 -1.5 -8.1 -6.9 -3.8 -9.5 3.6 -2.4 23.1 -2.9 27.4 -0.7 4.2 2.2 4.2 2.2 3.8 -1.1 -0.4 -3.6 -3.3 -5 -13 -6.6 -15.3 -2.4 -26.7 2.4 -26.7 10.9 0 4.8 1.3 7.3 5.2 9.2 l3.1 1.6 -2.7 3.1 c-2.8 3.4 -3.2 6 -1.5 9.2 1.6 3.1 4.1 2.5 4.1 -1 0 -4 3.7 -6.9 10.9 -8.3 6.3 -1.3 8.4 -0.8 3.6 0.8 -2.4 0.8 -3.2 1.7 -3.2 3.6 0 3.3 2.7 5.4 9.9 8.4 3.3 1.3 6 3 6 3.5 0.1 0.6 0.2 1.5 0.3 2 0.4 3.4 12.9 11.4 17.8 11.4 1 0 2.6 0.7 3.4 1.5 1.1 1 2.2 1.2 3.4 0.6 1.4 -0.8 4.4 1.6 16.1 13 23.6 23 32.7 30 32.7 25z m-98.8 -100 c3.9 -1.9 7.6 -3.6 8.2 -3.6 0.6 0 2.9 1.3 4.9 3.1 4 3.2 9.7 5 10.8 3.4 0.4 -0.5 -4.2 -5.7 -9.9 -11.6 -9.1 -9 -10.4 -10.9 -9.5 -12.4 0.8 -1.3 0.7 -2.2 -0.2 -3.4 -1.8 -2.2 -3 -2 -8.9 0.9 -2.8 1.4 -5.1 2.6 -5.3 2.6 -0.1 0 0.7 -1.8 1.8 -4.1 2.6 -4.9 2.6 -6.9 0.2 -8.1 -1.4 -0.7 -3.4 -0.2 -8.1 2.2 l-6.2 3.3 -5.2 -3.5 c-4.9 -3.1 -5.2 -3.5 -3.7 -5.1 1.3 -1.5 2.4 -1.6 7.5 -0.7 8.7 1.5 10.5 1.4 11.9 -0.5 1.6 -2.8 -0.3 -5.1 -5.9 -7.3 -4.1 -1.5 -6.1 -1.6 -12.6 -0.8 -5.6 0.7 -8.3 0.6 -9.6 -0.2 -3.1 -1.8 -2.4 -2.3 4.1 -2.3 6.9 -0.1 9.3 -1.5 9.3 -5.5 0 -3.5 -4 -7.5 -10.2 -10.2 -6 -2.8 -8.6 -2.7 -11.7 0.4 -3.4 3.4 -4.6 3.3 -9.4 -1 l-4 -3.6 4.1 0 c5.7 0 8.5 -0.9 9.2 -3.1 0.4 -1.2 1.3 -1.6 3 -1.3 1.3 0.3 2.8 0 3.1 -0.6 0.9 -1.5 -3.9 -4.4 -6.8 -4 -1.8 0.2 -2.3 0.8 -2 3.1 0.2 2.7 0.2 2.7 -3.4 1.7 -1.9 -0.6 -6 -0.9 -9 -0.7 -5.1 0.3 -5.3 0.4 -5.3 3.3 0 2.6 1 3.7 6.5 7.4 l6.5 4.3 -3.2 2.3 c-3.2 2.3 -4 4.1 -1.8 4.1 0.6 0 5.2 -2 10.2 -4.6 5 -2.6 9.9 -4.6 10.9 -4.6 1.9 0 9.4 5.7 9.4 7.3 0 0.5 -4.1 0.9 -9.1 0.9 -12.7 0 -13.2 1.8 -2.2 8.7 l4.6 2.9 -3.3 1.1 c-4.3 1.4 -4.8 2.2 -4 5 0.4 1.8 2.7 3.6 8 6.3 4.1 2.2 8.2 4.8 9.1 5.9 1.6 1.9 2 2 5.6 0.8 2.3 -0.7 4.6 -1.5 5.4 -1.8 1.1 -0.4 1.2 0 0.7 1.8 -0.4 1.3 -0.9 4.8 -1.2 7.7 -0.5 4 -0.2 5.5 1.1 6.9 3 3.1 4.5 2.4 9.6 -4.1 3.4 -4.4 5.2 -5.5 5.2 -3.2 0 0.7 1.2 2.5 2.8 4.1 l2.7 2.9 -4.6 2 c-5.7 2.5 -10 5.8 -10 7.8 0 2.3 2.6 1.7 10.2 -2.2z m-68 -74.1 c1.8 -1.6 16.7 -7.3 19.4 -7.3 3 0 4.6 -2.8 2.5 -4.3 -1.4 -0.9 -11.6 -0.4 -16.1 0.8 -2.5 0.7 -2.5 0.7 -0.8 -2.5 2.5 -4.8 2.2 -7.4 -0.9 -7.4 -1.8 0 -3.3 1.1 -5.2 4 l-2.7 4.1 -3.9 -2.8 -3.9 -2.8 3 -1.3 c1.6 -0.7 3.3 -1.9 3.7 -2.9 0.4 -1.2 1.5 -1.3 5 -0.8 4.3 0.6 7.6 -0.5 7.6 -2.8 0 -2.8 -13.2 -11.2 -17.6 -11.2 -4 0 -3.7 2.6 0.4 4 4.3 1.5 3.3 2.2 -1.9 1.2 -5 -0.9 -8.9 0.9 -8 3.9 0.3 1.1 -0.3 2 -1.8 2.7 -1.3 0.6 -2.4 2.2 -2.6 3.8 -0.4 3.2 3.5 6.6 11.6 9.9 5 2.2 5.2 2.4 4.8 5.7 -0.2 2 0.1 4.3 0.8 5.1 1.4 1.6 5.1 2 6.8 0.6z m-20.3 -31.7 c-0.2 -0.9 -2 -2.5 -4.1 -3.4 -2 -1 -4 -2.3 -4.3 -2.8 -0.3 -0.5 2.8 -1.4 6.8 -2.2 15.3 -2.4 20.1 -5.3 15.3 -9.3 -2.6 -2.2 -8.3 -2.5 -18.2 -1 -3.7 0.5 -5.4 0.4 -5.4 -0.3 0 -0.6 -1.9 -1.7 -4.3 -2.5 -7.3 -2.3 -20.6 -9.1 -23.3 -12 -2 -2.3 -2.3 -2.9 -1 -3.6 2.4 -1.4 11.7 -2.4 16.4 -1.5 3.7 0.6 4 0.8 2.5 2 -2.6 1.8 -1 4.5 3.7 6.3 2.7 1.1 4 2.2 3.7 3.1 -1.5 4 4.1 7.1 11.2 6 7.9 -1.2 13.4 -7.9 10.6 -13 -1.6 -3.1 -6.5 -4.8 -20.1 -7.1 -22.2 -3.8 -33.2 -2.3 -33.9 4.7 -0.3 2.7 0.4 3.9 4.4 7.4 4.8 4.2 16.8 9.4 21.8 9.4 5.2 0 5.8 1.7 0.9 2.5 -4.9 0.7 -7.6 2.8 -6.3 4.8 0.5 0.7 2.3 0.9 4.7 0.6 3.7 -0.5 3.9 -0.4 2.9 1.4 -0.5 1.1 -0.7 3 -0.4 4 1.8 5.9 17.7 11.9 16.7 6.2z"/>
  <path d="M1118.7 1757.7 c-1.1 -0.2 -6.9 -0.9 -12.8 -1.5 -11.5 -1.2 -20.8 -3 -34.8 -6.2 -4.8 -1.1 -11.7 -2.8 -15.4 -3.6 -3.7 -0.9 -8.5 -2.3 -10.8 -3 -2.3 -0.8 -8.7 -2.9 -14.3 -4.6 -5.6 -1.8 -13.3 -4.9 -17.1 -6.8 -3.8 -1.9 -7.8 -3.5 -8.9 -3.5 -1.1 0 -2.3 -0.4 -2.6 -0.8 -0.3 -0.5 -6.1 -4 -13.1 -7.9 -6.9 -3.8 -16.2 -9.4 -20.8 -12.4 -23.8 -15.8 -33.4 -22.1 -39.6 -26.2 -3.8 -2.4 -8.4 -5.7 -10.2 -7.4 -1.8 -1.5 -6.6 -5.3 -10.5 -8.3 -3.9 -3 -11.1 -8.8 -15.9 -13 -4.8 -4.1 -10.4 -8.8 -12.6 -10.3 -4.9 -3.7 -46.8 -44.7 -46.8 -45.9 0 -0.4 -1.9 -3.4 -4.3 -6.6 -2.4 -3.2 -7.8 -11.5 -12 -18.4 -4.3 -7 -12 -18.7 -17 -26.3 -5.1 -7.5 -9.9 -15 -10.8 -16.7 -0.8 -1.6 -10.3 -11.8 -21.1 -22.5 -10.9 -10.6 -22.1 -22.4 -25.1 -26.1 -3 -3.6 -6.2 -7.4 -7.2 -8.3 -3.7 -3.7 -9.3 -12.8 -18.9 -30.5 -2.9 -5.2 -9 -22.9 -10.5 -30.3 -2.2 -10.8 -3.1 -14.6 -5.1 -22.5 -1.8 -7.3 -4.5 -21 -7.4 -38.4 -1.6 -9.8 -3 -26.4 -4.4 -52.2 -1.8 -33.4 -0.2 -105.8 2.4 -105.1 0.9 0.3 5.8 0.8 10.9 1.1 5.1 0.4 17.7 2 28.2 3.8 10.4 1.7 21.5 3.6 24.6 4.1 3.1 0.5 13.8 1.1 23.8 1.4 32.1 1.1 46.8 -3.2 76.7 -22.2 6 -3.9 11.6 -7.1 12.2 -7.1 0.6 0 3.7 -1.6 6.8 -3.6 3.1 -1.9 5.7 -3.6 6 -3.6 0.2 0 9.3 -4.4 20.2 -9.8 24.1 -12 46.3 -22 58.7 -26.5 5.1 -1.8 12.4 -4.6 16.2 -6 l7 -2.6 -1.7 2.8 c-1 1.5 -2.9 3.8 -4.1 5.2 -1.2 1.3 -3.5 4.9 -5 8 -3 6.1 -3.1 11.3 -0.3 13 4.2 2.6 18 -7.7 35.6 -26.4 21.2 -22.5 51.2 -44.9 75.1 -55.9 9.1 -4.2 28.2 -10.3 37.6 -12.1 3.1 -0.6 8.1 -1.5 11.1 -2.2 12.1 -2.5 32.8 -0.7 47.7 3.9 17.2 5.3 28.8 11 43.3 20.9 5.8 4.1 11.9 8.1 13.4 8.9 6.7 3.7 20.5 13.3 22.7 15.8 1.4 1.5 6.5 6 11.3 10.1 4.8 4 9.3 7.9 10 8.6 2.7 2.6 10.1 8.5 10.8 8.5 0.3 0 3.6 2 7.2 4.6 6.9 4.8 8.3 5.3 9.4 3.5 0.7 -1 -5.7 -8.1 -7.5 -8.1 -1 0 -20.9 -18.5 -20.5 -19 0.2 -0.2 9.2 2.7 20 6.2 20.1 6.9 38.1 11.3 51.5 12.8 6.5 0.7 35.6 5.6 45.5 7.7 3.1 0.6 4.9 1.5 13.9 7.3 11 6.9 15.4 8 30.7 8.1 14.1 0 17 -0.5 31.7 -5.4 12.5 -4.1 14 -4.3 18.4 -2.5 2.6 1.1 4.3 2.7 4.7 4.3 0.4 1.4 0.6 12.5 0.5 24.6 -0.2 21.2 0.6 34.7 4.5 73.7 2.6 25.5 0.6 75.5 -3.5 90.1 -1.2 4.2 -5.1 19.3 -8.7 33.4 -3.7 14.1 -8.5 31.5 -10.8 38.8 -2.4 7.2 -4.2 14.1 -4.2 15.5 0 1.3 -1.5 6.5 -3.5 11.5 -1.9 4.9 -5.2 14.2 -7.3 20.7 -2.2 6.5 -4.5 13.1 -5.3 14.7 -0.9 1.7 -4.2 10.4 -7.5 19.5 -3.2 9.1 -8.9 23.8 -12.7 32.6 -3.7 8.9 -6.8 17.1 -6.8 18.2 0 3 -31.4 64.8 -37.7 73.9 -3 4.3 -5.3 8.2 -5.3 8.6 0 1.2 -7.4 9.9 -14.2 16.8 -3.8 3.7 -13.6 13.8 -22.1 22.4 -8.4 8.6 -18.5 18.1 -22.5 21.2 -3.9 3.1 -11.6 9 -16.9 13.3 -17.1 13.5 -32.8 23 -45.1 27.3 -10 3.4 -46.6 14.7 -62.3 19.3 -2.4 0.7 -4.5 1 -4.8 0.7 -0.3 -0.3 -0.1 -6.7 0.5 -14.2 0.6 -7.6 1.5 -21.3 2 -30.6 0.5 -9.3 1.4 -23.6 2 -31.7 1.9 -28.1 2.4 -53.7 1.1 -74.2 -0.6 -11.3 -1.6 -29.2 -2.2 -39.9 -1.1 -20.5 -3.7 -54.1 -5.1 -67.1 -0.5 -4.2 -1.3 -11.8 -1.9 -16.9 -0.6 -5 -1.6 -13.6 -2.2 -18.9 -0.6 -5.3 -1.5 -13.8 -2.2 -18.9 -3.1 -28.4 -4.5 -53.5 -8.1 -150 -0.9 -25.1 -1.8 -38.9 -4.1 -66.6 -0.6 -7.1 -1.5 -19.5 -2 -27.6 -0.5 -8.2 -1.2 -16.9 -1.5 -19.5 -0.3 -2.6 -0.6 -6.3 -0.7 -8.4 -0.1 -2.2 -0.5 -3.9 -0.9 -3.9 -1.2 0 -2.3 15.2 -1.5 22.4 0.4 3.7 1.1 41.4 1.5 83.6 0.5 42.3 1.4 84.7 2 94.2 0.6 9.6 1.5 27.3 2.2 39.4 0.6 12.1 1.5 26.2 2 31.2 0.5 5.1 1.4 14.5 2 21 0.6 6.5 1.5 16 2 21 1 9.3 2.4 22.8 4.1 40.4 4.7 47.8 7.4 101.3 7.5 153.2 0 35.9 -1.6 82.7 -3 84.3 -0.6 0.7 -16.3 4 -25 5.2 -4.8 0.6 -10.9 1.6 -13.5 2.2 -5.2 0.9 -31.7 2 -35.1 1.4z m-110.3 -68.3 c1.7 -2.5 7 -9.8 11.6 -16.5 l8.3 -12.1 5.9 10.8 c5.3 9.7 11.3 18.3 11.3 16.4 0 -0.5 -3.3 -7.4 -7.4 -15.4 -7 -13.7 -7.4 -14.6 -6 -17.4 l1.3 -3 2.6 4.4 c3.4 5.6 4 4.9 1.3 -1.2 l-2 -4.8 3 -4.4 c5.2 -7.5 5.6 -7.6 8.8 -1.1 1.6 3.1 3.3 5.6 3.8 5.6 0.8 0 -0.5 -3.4 -3.8 -9.4 -2 -3.6 -1.8 -7 0.4 -9.7 1.1 -1.3 2.3 -2.4 2.6 -2.4 0.2 0 1.9 2.8 3.8 6.2 1.8 3.5 4 6.5 4.7 6.8 0.7 0.3 1.3 1.1 1.3 1.8 0 0.8 0.4 1.7 1 2 1.1 0.7 0.9 0 -4.5 -11.3 -2.2 -4.5 -4 -8.7 -4 -9.2 0 -0.6 2.3 -4.5 5.1 -8.7 8.1 -12.2 11.1 -17.5 9.1 -16.8 -1.4 0.5 -10.5 12 -15.1 18.8 l-1.6 2.5 -2.3 -4.9 c-2.9 -6.6 -2.8 -7.4 1.2 -13.5 3.7 -5.5 6.2 -11.2 3.4 -7.1 -0.8 1.1 -2.6 3.4 -3.9 4.9 -1.3 1.5 -2.7 3.9 -3 5.1 -0.5 1.9 -0.9 1.6 -3.1 -2.7 -2.4 -4.7 -2.4 -4.9 -0.6 -7.7 1 -1.5 2.5 -4.2 3.3 -5.9 0.8 -1.7 3.3 -5.9 5.4 -9.2 8.8 -13.4 13.5 -23.4 9.8 -21.1 -2.2 1.3 -12.6 16.6 -15.8 23 -1.7 3.5 -4 7.5 -5 8.8 l-1.8 2.5 -3.1 -6.6 -3.1 -6.6 6 -9 c7.9 -11.7 12.5 -20.2 11.1 -20.2 -1.5 0 -10.6 9.9 -15.8 17.2 l-4 5.5 -6.2 -12.7 c-6.7 -13.6 -8.5 -16.5 -9.9 -15.6 -1.5 0.9 0 5.5 6.5 18.9 4.7 9.9 6 13.6 5.5 15.7 -0.3 1.4 -1 2.7 -1.5 2.7 -0.4 0 -2.4 -4.3 -4.2 -9.4 -4 -11.5 -5.8 -15.2 -7.3 -15.2 -1.7 0 -0.3 6.2 4.3 18.5 l4.1 10.9 -4.1 6.5 -4 6.5 -1.5 -3.5 c-0.8 -1.9 -2.5 -6 -3.8 -9.1 -2.7 -6.3 -4.5 -8.7 -5.9 -7.8 -1.3 0.8 2 11.8 5.4 17.9 2.8 4.8 3.2 6.8 1.5 7.8 -1.1 0.7 -5.1 -6.7 -5.1 -9.4 0 -3.2 -5 -12.8 -6.3 -12.3 -2.2 0.7 -1 7.4 2.7 15.4 5.9 12.8 5.9 12.6 -2.8 26.7 -4 6.3 -4.4 7.8 -2.8 7.8 0.9 0 7.6 -9.4 10.1 -14.5 0.8 -1.6 1.7 -2.9 2 -2.9 0.3 0.1 2.3 3.7 4.4 8.1 l3.7 8.1 -4.8 7.5 c-5.3 8.4 -7.8 13.5 -4.2 9.1 1.1 -1.4 3.8 -4.9 5.8 -7.9 2.2 -3 4.1 -5.3 4.4 -5.4 0.4 0 3.1 4.7 6.1 10.5 l5.4 10.4 -11.2 16.9 c-6.1 9.2 -11.6 17.4 -12 18.1 -0.5 0.8 -0.3 1.3 0.6 1.3 0.7 0 2.8 -1.9 4.6 -4.3z m-91.2 -101.4 c-0.3 -1.3 -2.9 -11.6 -5.8 -22.8 -2.9 -11.3 -5.7 -22.7 -6.3 -25.6 -0.5 -2.8 -1.4 -6.8 -1.8 -8.7 -5 -22.7 -7.7 -36.1 -9.2 -46.1 -0.6 -4.2 -1.6 -9.5 -2 -11.8 -0.8 -3.8 -2.6 -25.6 -2.5 -32.8 0 -7 1.5 -30.2 2.5 -37.4 0.6 -4.2 1.5 -11.4 2.2 -15.9 1.8 -13.3 4.8 -30.4 9.1 -52.2 4.6 -22.7 4.4 -22.2 10 -45.1 8.5 -34.6 9.9 -42.3 8.1 -44.1 -0.9 -0.9 -3.8 1.5 -3.8 3.3 0 0.7 -1.2 4 -2.7 7.3 -3.2 7.2 -12.8 33.9 -15.7 43.8 -3.5 12.1 -11.9 54.8 -14.4 73.7 -3.8 27.4 -4.4 37.2 -4.5 64.5 -0.1 20.5 0.3 30.4 1.2 34.6 0.8 3.2 1.5 7.2 1.7 8.7 0.4 2.7 4.8 20.3 10.1 40.4 1.4 5.4 3.8 14.4 5.2 20 4.7 17.9 11.6 39.6 14.5 45.6 1.7 3.5 4.9 3.9 4.1 0.5z m426.2 -23.1 c0.5 -2.2 1.9 -7.3 3.1 -11.5 2.2 -8.1 8.8 -38.8 10.4 -47.8 0.5 -3 1.4 -8.1 1.9 -11.3 5 -27 5.1 -38.2 1.5 -122.7 -1.9 -45.8 -5.5 -66.9 -14.4 -86.2 -2.9 -6.1 -4 -7.2 -6.2 -5.3 -2 1.7 -1.3 12.7 1.6 23.7 1.1 4.2 2.5 11 3.1 15.2 0.5 4.2 1.6 12.1 2.5 17.4 0.8 5.3 2 16.4 2.7 24.6 0.6 8.2 1.6 20.7 2.2 28 0.6 7.2 1 29.7 1 50.2 0 35.1 -1 52.6 -4 70.9 -0.5 2.9 -1.6 10.2 -2.6 16.4 -2.9 18.5 -4.9 30.6 -5.7 32.8 -2.3 5.9 -3.3 10.8 -2.7 12.5 0.7 1.7 0.9 1.6 2.8 -0.5 1 -1.3 2.4 -4.1 2.9 -6.1z m-604.1 -201.5 c1.8 -2.6 4.6 -7.7 6.3 -11.5 1.7 -3.8 3.5 -7.1 3.9 -7.4 0.4 -0.3 3.3 -5.1 6.5 -10.8 7.8 -14.3 9.3 -16.9 10 -16.9 0.3 0 1.3 1.5 2.4 3.4 3 5.6 4.4 8 5.6 9.2 1.1 1.1 -1 -4.1 -5 -11.8 l-1.9 -3.9 3.5 -5.8 c1.8 -3.3 7 -12.3 11.4 -20.1 4.4 -7.7 8.3 -13.7 8.6 -13.3 0.4 0.5 4.5 6.6 9.2 13.6 4.7 7.1 9.1 13.3 9.7 13.8 0.7 0.6 4 4.7 7.4 9.2 7.7 10.1 10.2 12.5 11.7 11.1 1.1 -1.1 0.2 -2.8 -9.6 -16.1 -3.3 -4.4 -20.9 -30.7 -24.8 -37 -1 -1.7 -0.4 -3.7 4.9 -14 5.7 -11.3 6.9 -15.1 3.5 -12.3 -0.8 0.7 -3.8 5.2 -6.8 10 l-5.4 8.8 -3 -4.4 c-2.2 -3.2 -2.9 -5.3 -2.5 -7.1 0.4 -1.6 0.2 -2 -0.3 -1.2 -1.1 1.6 -1.7 0.9 -6.3 -6.9 -2.3 -3.9 -3.1 -6.2 -2.6 -8 0.5 -2 0.3 -2.5 -1.2 -1.9 -1.4 0.4 -2.7 -0.9 -5.4 -5.8 -2.7 -4.6 -4.3 -6.5 -6 -6.7 -2.4 -0.4 -2.5 -0.1 -1.8 3.8 0.4 3.3 0.1 4.7 -1.4 6.6 -1.1 1.2 -4.1 5.9 -6.8 10.4 -5.8 10 -5.3 9.4 -6.6 7.7 -0.6 -1 -0.7 -0.4 -0.3 2 0.7 3.7 1.9 6.7 3.7 8.6 1.7 2 13.1 23.6 13.1 24.9 0 0.7 0.4 1.3 0.8 1.3 0.5 0 2.2 2.4 3.7 5.1 1.5 2.9 3.2 5.1 3.7 5.1 1 0 -15.2 -32.4 -19.8 -39.6 -1.5 -2.5 -2.8 -4.6 -2.8 -4.8 0 -1.1 9.4 -13.9 10.2 -13.9 0.4 0 2.2 2.2 3.7 4.8 l2.8 4.8 -2.2 3.9 c-2.3 4.2 -1.4 5.3 1.1 1.6 l1.6 -2.4 2.2 2.6 2.2 2.6 -1.5 -3.7 c-1.3 -3.4 -1.2 -4 0.4 -6.5 l1.7 -2.8 4.3 7.2 4.4 7.2 -2.8 3.6 c-1.5 1.9 -2.6 4.4 -2.4 5.4 0.3 1.3 1 0.6 2.8 -2.6 1.2 -2.5 2.8 -4.3 3.5 -4 0.7 0.2 2.6 2.5 4.1 5 l2.9 4.5 -7.5 13.6 c-4.1 7.5 -8.5 15.3 -9.7 17.3 -1.2 2 -2.8 4.8 -3.5 6.1 -0.7 1.2 -1.5 2.3 -1.9 2.3 -1.1 0 -17.6 -34.2 -18.8 -39.2 -1.5 -6.3 -6.9 -16.1 -8.8 -16.1 -3.7 0 -3 3.2 3.1 14.3 3.4 6.1 6.1 11.8 6.1 12.5 0.1 1.2 3.9 8.7 13.4 26.1 l3.5 6.2 -2.3 4 c-3.2 5.7 -26.9 51.7 -26.9 52.1 0 1.6 2.5 -0.4 5.1 -4.3z m671.7 -30.1 c0 -0.6 4 -6.5 8.8 -12.9 4.8 -6.6 9 -12.7 9.4 -13.6 0.7 -1.7 9.3 -12.7 10.4 -13.2 0.3 -0.1 1.7 2.2 3.1 5.1 7.5 16.7 10.1 22.1 11.2 22.7 0.6 0.4 1.1 0.1 1.1 -0.6 0 -1.7 -5.1 -15.5 -9.3 -25 -3.2 -7.2 -3.2 -7.4 -1.4 -10 1 -1.5 2.2 -2.4 2.6 -1.9 0.3 0.4 4.2 9.8 8.5 20.8 4.4 11 8.9 21.8 10.2 24.1 2.2 3.9 5.8 6.1 5.8 3.6 0 -0.7 -2.6 -8.2 -5.7 -16.8 -6.3 -17 -13.7 -38.4 -13.7 -39.4 0 -0.4 0.6 -1.6 1.4 -2.8 1.4 -1.8 1.6 -1.5 4.2 4.2 1.5 3.4 4.2 9.2 5.9 13.1 1.6 3.8 3.7 6.9 4.4 6.9 2.2 0 1.8 -1.1 -4.2 -16.6 l-5.7 -14.3 2.9 -3.8 c1.5 -2 3.4 -4.3 4.1 -5.1 1.9 -1.9 5.6 -9.4 5 -10 -0.8 -0.9 -2.6 0.7 -5.8 5.5 -3.3 4.7 -6.7 8.5 -7.6 8.5 -0.3 0 -0.5 -0.7 -0.5 -1.5 0 -0.8 0.4 -1.5 1 -1.5 0.5 0 2.8 -2.5 4.9 -5.3 7.6 -10.3 7.6 -11.6 -0.1 -3.6 l-7.7 8 -1.2 -3.7 c-1.1 -3.4 -1 -3.9 1.7 -7.3 9.7 -12.1 13.6 -17.5 13.6 -18.7 0 -2.2 -5.1 3 -11.6 11.5 -3 3.8 -5.6 6.9 -5.9 6.9 -0.4 0 -1.5 -2.5 -2.7 -5.3 l-2 -5.4 2.2 -2.7 c12.2 -14.8 15 -18.7 13.9 -19.8 -1.2 -1.2 -7.5 4.5 -13 12 -1.9 2.7 -3.9 4.8 -4.4 4.8 -0.5 0 -1.4 -1.7 -2.2 -3.8 -1.9 -6.2 -6.8 -16.2 -8.5 -17.6 -2.4 -1.9 -4 -0.3 -3.4 3.4 0.2 1.7 2.6 8.1 5.1 14.1 2.7 6.1 4.3 11.3 3.7 11.6 -0.9 0.6 -1.1 0.4 -5.3 -11.5 -3.1 -8.5 -4.8 -11.6 -6.5 -11.6 -3.1 0 -2 8.1 3.4 25.4 1.4 4.6 1.5 5.7 0.2 8.1 -1.4 2.7 -1.4 2.7 -3.3 -3.9 -2.5 -8.5 -4 -12.4 -4.6 -11.8 -0.4 0.5 1 7.4 2.5 11.5 0.6 1.6 0.5 1.7 -0.7 0.7 -4.1 -4 -5.2 0.7 -1.9 8.4 l2 4.8 -2 1.8 c-1.1 0.9 -2 2 -2 2.5 0 0.4 -1.1 1.9 -2.6 3.5 -2.8 2.9 -3.2 4.3 -1.5 4.3 0.6 0 1 -0.4 1 -0.9 0 -0.5 1.8 -2.9 4 -5.3 l4.1 -4.3 1.4 3.5 c0.8 1.9 2 5.1 2.7 7.1 0.7 1.9 2 5.5 3 7.9 1.5 4 1.5 4.4 -0.4 7.1 -1 1.5 -2.9 4.3 -4 6.1 -1.1 1.8 -3.9 5.6 -6.1 8.3 -6.9 8.1 -12.7 16.7 -11.4 16.7 0.2 0 2.8 -2.9 5.5 -6.3 2.8 -3.6 6.8 -8.2 8.8 -10.3 2 -2.2 3.7 -4.5 3.7 -5.1 0.1 -0.7 1.6 -3.1 3.5 -5.2 3.3 -3.8 3.5 -3.9 4.5 -1.9 0.9 1.6 -1.1 5.2 -13.7 24.2 -8.1 12.2 -14.7 22.4 -14.7 22.7 0 0.3 0.5 0.5 1 0.5 0.6 0 1 -0.5 1 -1z m-670.8 -53.7 c-3.9 -9.9 -6 -13.2 -6 -9.3 0 1.9 6.1 15.2 7.5 16 0.5 0.3 0.8 1 0.8 1.5 -0.1 1.8 1.2 5 1.6 3.8 0.2 -0.7 -1.5 -6 -3.9 -12z m29.8 -6.1 c0 -0.8 0.7 -1.9 1.5 -2.7 0.8 -0.7 1.5 -2 1.5 -3 0 -1 -0.7 -0.4 -1.8 1.4 -2.5 4.1 -3.5 7 -2.3 6.1 0.6 -0.3 1 -1.2 1 -1.9z m-8.8 -17.9 c-0.5 -0.5 -3.4 3.1 -3.5 4.4 0 0.4 0.9 -0.2 1.9 -1.5 1.1 -1.3 1.7 -2.7 1.5 -2.9z m172.2 -70.8 c9.3 -2.6 47 -21.2 55.1 -27.1 4.1 -3.1 0.6 -2.6 -6.1 0.8 -6.3 3.2 -12.5 5.4 -36.1 12.9 -3.6 1.2 -7.3 2.2 -8.2 2.2 -0.9 0 -6.2 1.3 -11.8 2.9 -11.6 3.3 -13.8 5.2 -9.9 8.5 3.1 2.5 7.9 2.5 17.1 -0.1z m379.6 -34.8 c4.3 -2 3.7 -4.4 -1 -3.4 -12 2.4 -36.2 -2.8 -55.5 -11.7 -4.1 -1.9 -9.1 -3.8 -11 -4.1 -3 -0.5 -3.5 -0.3 -3.5 1.5 0 2.7 5.9 7.7 13.2 11.2 13.7 6.5 49.3 10.4 57.8 6.5z"/>
  <path d="M1022.9 1642.2 c-4.9 -9.8 -5.2 -10.9 -3.8 -12.8 1.4 -2 1.7 -1.6 6.8 8.3 5.8 11.4 6 12.2 3.9 14 -1.2 0.9 -2.4 -0.6 -6.9 -9.5z"/>
  <path d="M1027.9 1635.2 c-2.8 -5.6 -4.9 -10.8 -4.9 -11.3 0 -1.1 7.1 -12.2 7.8 -12.2 0.6 0 10.6 21.6 10.6 22.9 -0.1 1.4 -7 10.9 -8 10.9 -0.4 0 -2.9 -4.6 -5.5 -10.3z"/>
  <path d="M1040.9 1625.9 c-1.3 -2.9 -2.3 -5.6 -1.9 -6.1 0.3 -0.4 0.1 -0.8 -0.4 -0.8 -0.5 0 -2 -2.6 -3.3 -5.6 l-2.3 -5.6 2 -3.2 2 -3.3 2.7 5.2 c2.7 5.1 2.7 5.4 1 8.7 l-1.7 3.3 2.3 -1.9 c2.6 -2.4 2.6 -2.4 4.5 3.3 1.3 3.9 1.3 4.9 0.1 8 -0.8 1.9 -1.7 3.5 -2 3.5 -0.3 0 -1.6 -2.4 -3 -5.3z"/>
  <path d="M1014.9 1625.9 c-0.5 -1.3 -2.2 -5.1 -3.7 -8.4 -2.4 -5.4 -2.5 -6.2 -1.1 -7.6 1.3 -1.3 1.9 -0.7 5.2 6.2 3.1 6.3 3.5 8.2 2.6 9.9 -1.4 2.7 -1.8 2.6 -3 -0.2z"/>
  <path d="M1017.4 1612.3 c-3.9 -8.5 -4 -7.9 0.6 -13.3 1 -1.1 2.4 -2.9 3.1 -3.9 1.2 -1.6 1.7 -1 4.7 5.2 l3.5 7.1 -4.2 6.5 -4.1 6.6 -3.6 -8.1z"/>
  <path d="M1027.6 1596.3 c-2.5 -5.4 -2.6 -6.6 -1.4 -8.7 0.7 -1.3 1.5 -2.5 1.9 -2.5 0.3 0 2 3.1 3.9 6.8 3.2 6.5 3.3 6.9 1.6 8.7 -0.9 1.1 -2 1.9 -2.5 1.9 -0.4 0 -2 -2.9 -3.6 -6.2z"/>
  <path d="M765.6 1244.5 c-1.1 -1.1 -4.8 -9.5 -4.8 -11.1 0 -0.7 0.6 -1.8 1.4 -2.5 1.1 -0.9 1.9 -0.3 4.2 3.7 2.5 4.4 2.6 5.2 1.3 7.8 -0.7 1.6 -1.7 2.6 -2.2 2z"/>
  <path d="M1440.4 1282.5 c-0.7 -1.8 1.8 -6.6 3.5 -6.6 1.4 0 1.2 4.3 -0.4 6.5 -1.6 2.2 -2.3 2.2 -3.1 0.1z"/>
  <path d="M1436.8 1273.1 c-1.4 -4.5 -2.2 -6.1 -5.2 -12.8 l-2.3 -4.9 2.4 -3.2 2.4 -3.3 1 2.5 c0.5 1.3 1.5 3.9 2.3 5.5 0.7 1.7 2.3 5.7 3.4 9 2 5.7 2 6 0.4 8.4 -1 1.4 -2 2.6 -2.4 2.6 -0.4 0 -1.2 -1.7 -1.9 -3.8z"/>
  <path d="M1449.6 1270.1 c-0.4 -1 0.1 -2.5 1.4 -3.8 2 -2 2 -2 2 -0.1 0 1.1 -0.7 2.9 -1.4 3.9 -1.3 1.6 -1.4 1.6 -2 0z"/>
  <path d="M1446.9 1262.1 c-2.2 -5.7 0.5 -8.9 3 -3.5 1.2 2.8 1.1 3.4 -0.2 4.8 -1.5 1.4 -1.7 1.3 -2.8 -1.3z"/>
  <path d="M1442.4 1249.6 c-1.7 -5.1 -2.2 -8.5 -0.8 -8.5 1 0 5.4 11.4 4.7 12.4 -1.1 1.9 -2.4 0.7 -3.9 -3.9z"/>
  <path d="M661.5 1273.8 c0 -0.6 0.7 -1.7 1.5 -2.6 1.3 -1.4 1.5 -1.3 1.5 1 0 1.6 -0.6 2.7 -1.5 2.7 -0.8 0 -1.5 -0.5 -1.5 -1.1z"/>
  <path d="M642.7 1272.9 c-3.4 -5.4 -5.9 -23.6 -4.7 -33 0.5 -4.2 1 -11.2 1 -15.5 l0 -7.8 -5.1 -5.6 c-6.9 -7.5 -8.3 -11.5 -9.3 -24.8 -3.2 -42.1 -3.4 -106.4 -0.4 -103.9 0.7 0.6 1.9 0.8 2.8 0.5 1.1 -0.5 1.7 1.2 2.8 7.9 0.7 4.7 2.5 12 3.8 16.3 l2.6 7.8 -2.3 8.6 c-1.2 4.7 -2.4 9.7 -2.6 11 -0.1 1.3 -0.8 4.7 -1.4 7.6 -2.8 11.4 0.4 20.9 12.2 36.4 3.5 4.6 7.2 10.4 8.3 12.9 2.2 4.8 2.2 6.5 0 23 -0.6 4.1 -1 14.5 -1 23 0 12.9 -0.5 17.3 -2.6 25.7 -2.6 10.6 -3 11.7 -4 9.9z"/>
  <path d="M1517.9 1190.2 c0.4 -9.5 1.6 -22.5 2.8 -29 1.1 -6.5 2 -15.5 2 -20.1 0 -6.1 0.5 -9.3 2 -12.5 1.6 -3.5 1.8 -4.7 0.9 -7.1 -0.7 -1.5 -1.3 -5.7 -1.4 -9.1 -0.3 -6.7 -2.6 -12.2 -7.2 -17.6 -1.4 -1.6 -2.6 -3.9 -2.6 -5 0 -1.7 3 -16.4 6.9 -33.1 0.8 -3.7 1.7 -13.7 2 -22.2 0.4 -11.2 0.9 -15.7 1.8 -15.7 2 0 4.5 -3.5 7.3 -10.3 3.4 -8.6 4.3 -20 2.2 -27.5 -0.8 -3.1 -1.8 -7.3 -2.2 -9.3 -0.4 -2 -1.5 -4.5 -2.7 -5.5 -1.8 -1.6 -2.2 -1.7 -4.6 -0.1 -3 1.9 -5.2 5.9 -6.1 11.2 -0.4 2 -1.1 4.1 -1.6 4.4 -1.2 0.7 -1.1 -5.8 0.2 -19.8 1.1 -10.1 1.4 -11.6 3.1 -11.6 1.1 0 5.2 -3 9.2 -6.7 8.2 -7.5 11.1 -8.3 13.9 -3.9 1.6 2.5 1.8 5.3 1.5 27.2 -0.2 21.2 -0.6 26.8 -3.2 43 -4 25.1 -4.9 33 -6.2 53.5 -1.7 27.4 -3 41.1 -5.1 54.3 -2.8 17.1 -5.8 41.4 -8.2 65 -0.6 5.9 -1.5 13.5 -2 16.9 -0.6 3.4 -1 6.5 -1 7 0 0.4 -0.5 0.7 -1.2 0.7 -0.8 0 -0.9 -4.5 -0.5 -17.1z"/>
  <path d="M681.5 1181 c-1.8 -8.6 -3.2 -12 -5.6 -14.5 -1.5 -1.5 -4.1 -5.3 -5.6 -8.4 -4.6 -9.1 -9 -15.3 -11 -15.3 -1 0 -1.8 -0.5 -1.8 -1.1 0 -0.6 -1.4 -0.9 -3.3 -0.7 -2.5 0.2 -3.5 0.9 -3.9 2.6 -0.3 1.6 -0.9 2 -1.9 1.4 -2.2 -1.3 -0.4 -5.2 2.4 -5.2 3.7 0 4.7 -1.9 4.7 -9.1 0 -10.4 -3 -39 -5.1 -49.8 -0.5 -2.3 -1.4 -7.6 -2 -11.8 -1.3 -8.2 -4.6 -27.1 -6.1 -34.8 -0.5 -2.6 -1.4 -8.3 -1.9 -12.8 -0.6 -4.5 -2 -14.8 -3.2 -23 -2 -14.8 -3.2 -23.8 -5.1 -38.6 -1.1 -9.5 -2.6 -30.5 -4.2 -60.7 -0.6 -12.1 -1.4 -25.5 -1.8 -29.7 -1.1 -10.4 0.6 -24.4 6.2 -49.9 l3.2 -14.4 9.3 -9.3 c25.5 -25.3 31.6 -31 41.9 -38.6 6 -4.4 12.3 -8.8 13.8 -9.6 1.5 -0.8 3.9 -2.6 5.3 -3.8 3.2 -2.9 24 -17 32.6 -22.2 3.5 -2 7 -4.4 7.7 -5 1.7 -1.7 19.1 -12 20.3 -12 1 0 17.8 -8.8 21.4 -11.4 3 -2 31 -15.9 43.5 -21.5 8.7 -3.9 22 -9.1 28.6 -11.2 2.3 -0.7 7.8 -3 12.3 -5.1 11.2 -5 18.3 -7.8 25.7 -9.8 3.4 -0.9 7.6 -1.9 9.2 -2.5 25.1 -6.8 48.5 -12 64.5 -14.3 39.1 -5.7 48.9 -6.9 75.4 -9.2 15.4 -1.3 101.2 -1.3 113 0 5.1 0.6 13 1.5 17.7 2 4.6 0.6 12.4 1.5 17.4 2 9.4 1.1 13.3 1.7 34.5 5.1 11.8 1.9 17.6 3.1 32.8 6.2 21.6 4.5 42.8 11.1 68.3 21 7.8 3.1 14.3 5.5 14.6 5.5 2 0 37.1 16.5 41.5 19.5 2.5 1.7 28.6 17.4 37.4 22.5 12.5 7.2 48.6 34.5 48.6 36.8 0 0.4 2.6 2.7 5.6 5 3.2 2.3 10 8.2 15.5 13.2 5.4 4.9 10.4 9.4 11.3 9.8 3.4 1.9 14.6 33.6 13.3 37.3 -0.9 2.3 -2.5 17.4 -3.7 34.6 -0.5 7.9 -1.4 17.6 -2 21.5 -1.2 8.9 -2.7 20.5 -4.2 33.8 -0.6 5.6 -1.9 16.5 -3 24.1 -1 7.6 -2.4 18.2 -3.1 23.6 -0.6 5.3 -1.5 13.2 -2 17.4 -0.5 4.2 -1.4 12.8 -2 18.9 -0.6 6.2 -1.5 14 -2 17.4 -1.8 13.1 -4 37.2 -8.3 95.2 -0.6 8.5 -1.5 19.5 -1.9 24.5 -0.5 5 -0.7 9.4 -0.5 9.8 0.2 0.4 -3.1 1.5 -7.5 2.5 -4.3 0.9 -11.6 2.6 -16.1 3.7 -12 2.9 -25.6 4.4 -33.2 3.8 -5.1 -0.4 -9.5 -1.8 -18 -5.6 -14.5 -6.6 -43.6 -14.4 -78.8 -21.3 -15.6 -3 -19.3 -3.9 -40.4 -9.4 -21.5 -5.7 -29 -7.9 -31.8 -9.4 -1.3 -0.7 -8.4 -7.2 -15.8 -14.3 -16.7 -16.2 -33.6 -29 -41 -30.8 -1.6 -0.4 -7.2 -2.3 -12.3 -4 -19.8 -7.1 -35.3 -10.2 -50.2 -10.2 -14.8 0 -38 5.1 -54.3 11.9 -14.8 6.2 -35.9 17.6 -39.6 21.3 -0.8 0.7 -5.5 4.2 -10.5 7.8 -5.1 3.6 -12.1 8.7 -15.5 11.5 -3.5 2.7 -6.9 4.9 -7.6 4.9 -0.6 0 -5.6 4.6 -11.1 10.1 l-9.9 10.1 -14.3 4.8 c-7.9 2.7 -15.5 5.4 -16.9 6.2 -3.5 1.9 -19.8 8.5 -26.7 10.8 -8.5 2.8 -54.9 25.2 -58.3 28.2 -0.9 0.7 -5.1 3 -9.4 4.9 -4.3 1.9 -9.8 4.5 -12.3 5.7 -5.2 2.6 -19.9 6.5 -30.5 8.1 -4.2 0.7 -10.2 1.7 -13.3 2.3 -15.9 3 -43.3 2.2 -63.5 -1.7 -5.8 -1.1 -14.3 -1.7 -25.6 -1.8 -14.3 0 -18.2 0.3 -25.5 2.3 -4.8 1.2 -9.7 3 -11.1 3.8 -2.2 1.4 -2.4 1.4 -2.9 -1.2z m227.3 -107.8 c13.5 -1.9 35 -9.2 39.5 -13.5 3.3 -3 4 -7.4 1.3 -8.4 -0.8 -0.3 -3.5 0.5 -5.8 1.8 -6 3.6 -19.1 7.4 -29.4 8.7 -4.8 0.5 -13.3 1.5 -18.8 2.3 -7 0.8 -15.3 0.9 -26.6 0.4 -22.1 -1.1 -25.9 -1.1 -26.8 -0.2 -0.4 0.4 -0.5 0.9 -0.2 1.2 0.5 0.5 21.3 4.5 34.6 6.7 4.2 0.7 8.2 1.4 8.7 1.5 2.4 0.7 16.9 0.4 23.6 -0.5z m445.4 -17.9 c10.3 -4.3 29.9 -14.3 35.8 -18.5 11.5 -8 10 -8.8 -3.7 -1.8 -5.1 2.6 -13.5 6 -18.7 7.8 l-9.3 3.3 -34.5 0 c-19 0.1 -34.6 0.3 -34.6 0.6 0 1 4.4 3.3 9.9 5.2 4.7 1.6 15.9 3.9 26.4 5.4 6.6 0.9 24.6 -0.3 28.7 -1.9z m-448 -53.8 c14.5 -2.2 34.4 -10.3 58.6 -24.5 6.3 -3.6 10 -6.3 10 -7.5 0 -3.5 -1.9 -3.2 -12.8 1.8 -4.4 1.9 -20.6 7.6 -22 7.6 -0.7 0 0.8 -2.3 3.3 -4.9 2.5 -2.8 5.8 -7.7 7.5 -11.1 2.7 -5.3 3.1 -7.1 3 -14.7 0 -7.4 -0.4 -9.5 -2.7 -13.8 -4.8 -9.1 -11.9 -15.1 -22.1 -18.6 -8.5 -3 -13 -3 -25.3 0.2 -11.3 3 -19.6 7.9 -25.4 15.1 -5.2 6.6 -7.4 13.7 -8.6 29.1 -0.4 6.5 -0.2 8.1 2.3 13.8 1.6 3.7 4.5 8.1 6.6 10 l3.7 3.4 -14 -0.4 c-15.6 -0.5 -17.6 -0.1 -14.7 3.2 3 3.3 9.7 6.1 20.7 8.7 16.4 4 20.8 4.3 32.2 2.7z m419.4 -39 c3.9 -1.2 10 -4.1 13.7 -6.6 3.7 -2.4 9.6 -5.8 13.3 -7.7 11.6 -5.8 19.5 -11.3 19.5 -13.4 0 -2.8 -1.6 -2.5 -12.5 2 -17.5 7.3 -19.8 8.1 -25.1 9.1 -3 0.5 -5.4 0.7 -5.4 0.5 0 -0.3 1.8 -2.6 4 -5.1 5.4 -6.1 7.7 -13 7.1 -21.7 -0.8 -11.4 -7 -20.2 -18.1 -26.1 -20.6 -10.9 -45.3 -8.4 -54.8 5.3 -3.9 5.8 -4.7 8.8 -4.7 18.5 0 8.3 0.3 9.6 3.6 16.3 2 4 5.1 8.5 6.9 9.9 1.7 1.4 3 2.8 2.8 3 -0.2 0.2 -4.4 -0.1 -9.3 -0.7 -4.9 -0.6 -9.2 -0.8 -9.6 -0.5 -2.8 2.9 12.8 11.8 25.8 14.7 3.9 0.9 9.6 2.3 12.7 3 8.9 2.2 22.2 1.8 30.3 -0.6z m-508.8 -14.4 c3.7 -3.9 12 -15.6 16 -22.4 4.3 -7.6 11.4 -12.6 28.6 -20.6 22.3 -10.2 31.2 -13.7 39.3 -15.2 9.3 -1.6 32.5 -0.8 41.4 1.5 15.6 4 45.7 22.4 54.2 33.2 5 6.3 7.9 5.5 6.7 -1.8 -0.5 -3.4 -2.3 -5.8 -8.6 -12.7 -8.1 -8.5 -12.9 -12.3 -33.5 -25.7 -18.3 -12.1 -53 -16.9 -78.5 -11.1 -10.8 2.5 -21.5 7.3 -29.7 13.3 -7.6 5.5 -14.7 15.1 -22 29.1 -6.9 13.3 -11.8 22 -16.6 29.3 -1.6 2.4 -3 4.8 -3 5.3 0 2 2.8 0.9 5.8 -2.3z m408.7 -51.6 c1.3 -0.9 4.5 -4 7.2 -6.9 6.8 -7.5 14.8 -15.1 16.1 -15.1 0.6 0 4.2 -2 8.2 -4.6 13.8 -8.9 31.6 -14.6 54.3 -17.5 14 -1.7 25.4 -0.8 34.6 2.8 7.9 3.1 20.8 9.8 28.7 14.8 3.8 2.5 7.3 4.5 7.8 4.5 0.5 0 2.7 1.4 4.8 3.1 8.4 6.7 20.2 14.4 20.8 13.7 0.7 -0.7 -8.6 -9.3 -15.3 -13.9 -5.3 -3.8 -24.6 -18.2 -32.6 -24.4 -11.6 -9 -23.7 -14.3 -38.6 -17 -17.1 -3 -32.1 -1 -48.5 6.5 -17.6 7.9 -42.8 28.6 -51.5 42.2 -3.3 5.3 -3.8 10.8 -1 12.3 2.4 1.4 2.5 1.4 5.1 -0.5z m-480.3 -18.2 c14 -7.2 50.2 -21.9 70.3 -28.7 7.9 -2.7 15.3 -5.2 16.4 -5.7 1.9 -0.8 14 -4.6 29.8 -9.1 4 -1.2 8.2 -2.2 9.2 -2.2 1 0 13.2 -2.8 27 -6.2 22.3 -5.5 51.4 -11.7 64.5 -13.7 8.6 -1.3 17.1 -4.5 18.6 -7 0.8 -1.2 1.8 -4.3 2.3 -6.9 1 -7.1 4 -18.2 9.9 -37.9 8 -26.3 7.8 -33.8 -0.6 -33.8 -2.5 0 -5.3 1.6 -11.6 6.6 -10.6 8.4 -15.3 11.2 -17.2 10.4 -0.8 -0.3 -4.4 0.1 -7.9 0.9 -3.5 0.8 -8.7 1.5 -11.7 1.5 -2.9 0 -7.5 0.4 -10.2 1 -2.7 0.5 -9.9 1.9 -16.2 3.2 -23 4.3 -46.9 11 -69.3 19.3 -12.1 4.5 -13.2 4.9 -31.4 13.5 -7 3.4 -13.2 6 -13.8 6 -2.6 0.1 -23.6 12.7 -37.7 22.7 -15.9 11.3 -17 13 -30.5 45.4 -3.3 7.9 -6.8 15.8 -7.6 17.4 -2.2 4 -2 5.2 0.4 7.7 1.8 1.8 2.3 1.8 6.1 0.5 2.4 -0.8 7.4 -3.1 11.1 -5z m719.2 -67.2 c4 -1.8 6.3 -6.6 5.5 -11.1 -0.5 -3.1 -2.9 -5.9 -12.7 -15.6 -6.6 -6.5 -14.7 -13.6 -18.1 -15.8 -3.3 -2.3 -7 -4.9 -8.1 -5.8 -4 -3.4 -24.7 -14 -32.8 -16.8 -4.5 -1.5 -9.8 -3.6 -11.8 -4.6 -4.6 -2.3 -22.6 -8.4 -33.3 -11.3 -31.5 -8.5 -51.2 -11.6 -75.3 -11.7 -29.9 -0.2 -53.7 5.7 -69.8 17.4 -4.2 3 -5.7 3.6 -8.4 3.1 -1.7 -0.4 -5.6 -0.9 -8.6 -1.3 -5.1 -0.5 -5.5 -0.4 -8.8 3.1 -3.9 4.1 -5.2 9 -4.2 15.5 1.4 9.5 8.6 28 12.2 31.6 1.9 1.9 9.3 2.5 10.3 0.7 0.4 -0.6 1.3 -0.7 2.4 -0.2 1.7 0.9 20.8 2.9 38.1 3.8 5.3 0.3 13.4 1 17.9 1.5 11.3 1.4 35.9 4.1 47.6 5.2 15.5 1.4 32.5 3.5 51.2 6 4.2 0.6 11.4 1.5 15.9 2.2 8 0.9 12.9 1.6 31.7 4 5.1 0.7 9.4 1.4 9.7 1.7 1 1.1 46.6 -0.5 49.3 -1.7z"/>
  <path d="M902.5 962.6 c-4 -2.4 -5.1 -5.9 -3.5 -11.3 1.5 -5.1 5.4 -8.2 10.4 -8.2 5.2 0 6.9 0.8 8.6 4.2 1.9 3.7 1.9 7.4 0.1 11.1 -3.2 6.1 -9.7 7.9 -15.7 4.2z"/>
  <path d="M913.5 939.1 c-1.9 -1.9 -1.9 -5.3 0.1 -7.9 3 -3.8 9.3 -0.9 9.3 4.2 0 5.1 -5.7 7.4 -9.4 3.7z"/>
  <path d="M1294.4 933.7 c-7.2 -3.6 -7.9 -12.6 -1.4 -18.2 3.9 -3.5 7.1 -3.8 12.1 -1.5 5.7 2.8 7.7 5.3 7.7 9.8 0 7 -2.7 9.7 -10.5 11.2 -2.8 0.6 -4.8 0.2 -7.8 -1.2z"/>
  <path d="M1306.4 910.2 c-4.5 -2.6 -0.3 -9.5 4.3 -7.1 2.7 1.4 2.7 5.7 0.1 7.2 -2.4 1.2 -2.3 1.2 -4.4 -0.1z"/>
  <path d="M752.6 847.4 c0 -2.9 10.4 -14.8 12.9 -14.8 0.6 0 4.5 -1.8 8.6 -4.1 4.1 -2.3 7.7 -4.1 7.9 -4.1 0.2 0 3.1 -1.7 6.2 -3.9 14.7 -10 54.1 -30.9 57.9 -30.9 0.8 0 3.7 -0.9 6.5 -2 9.6 -3.8 39.9 -14.1 51.1 -17.4 6.2 -1.7 12.2 -3.6 13.3 -4.1 1.1 -0.5 3.2 -1.1 4.6 -1.5 1.4 -0.3 10.6 -2.6 20.5 -5 11.1 -2.8 19.3 -4.3 21.5 -4 2.9 0.3 4.6 -0.3 8.6 -3 2.8 -1.8 6.3 -4.2 8.1 -5.1 1.6 -0.9 3.6 -2.3 4.1 -2.8 3.6 -3.6 2 1.4 -9.2 30.6 -3.2 8.2 -6.3 16.7 -7.1 18.9 l-1.4 4.1 0.5 -3.6 c0.3 -1.9 1.1 -6.8 1.9 -10.6 1.6 -7.9 0.7 -12.4 -2.5 -13.4 -2.5 -0.7 -6.1 1.1 -6.1 3.1 0 2 -5 7.7 -6.9 7.7 -0.8 0 -2.8 0.7 -4.3 1.6 -2.7 1.6 -3.6 1.5 -14 -0.6 -20.6 -4.3 -22.6 -4 -23.1 3.4 l-0.3 4.3 -19.5 0.6 c-10.6 0.3 -20.6 0.9 -22 1.3 -1.4 0.4 -4.1 1.2 -5.9 1.8 -2.7 0.8 -3.9 2 -5.4 5.6 -1 2.6 -1.9 5.4 -1.9 6.3 0 1.6 -1.5 1.9 -12.5 2.6 -19.5 1.1 -28.6 4.3 -29.3 10 -0.3 2.4 -1.3 2.9 -11.8 5.9 -6.3 1.8 -12.4 4 -13.6 4.7 -1.2 0.7 -4.9 2 -8.2 3 -6.6 1.9 -16.5 7 -24.2 12.4 -2.8 1.9 -4.9 3.3 -4.9 3z"/>
  <path d="M1443.8 795.3 c-1.4 -1.2 -5.3 -3.2 -8.7 -4.2 -3.4 -1 -13.3 -4.9 -22 -8.6 -19.7 -8.3 -26.7 -10.2 -42.9 -11.6 -7 -0.5 -13.1 -1.2 -13.5 -1.5 -0.4 -0.2 -0.1 -2 0.7 -4 1.2 -3.2 1.2 -4 -0.1 -7.2 -2.5 -6 -6.5 -7.1 -23.7 -6.2 -13.1 0.5 -29.5 2.5 -36.5 4.2 -3.4 0.8 -3.6 0.2 -0.8 -3.3 2.8 -3.5 2.6 -5.8 -0.5 -7.5 -4.3 -2.4 -24.9 1 -42.7 7 l-5.7 1.9 0.1 -4.1 c0.2 -3.5 -0.2 -4.4 -2.6 -5.7 -2.5 -1.4 -3 -1.3 -6.7 0.4 -7.5 3.9 -18.2 11 -22 14.6 l-3.9 3.7 -2.9 -2.8 c-3.6 -3.5 -6.7 -3.5 -9.2 -0.3 l-1.9 2.6 -1.7 -6 c-0.9 -3.4 -1.6 -6.3 -1.6 -6.7 0 -0.3 3 -0.4 6.6 -0.3 5.1 0.2 7 -0.1 8.5 -1.4 1.1 -1 2.8 -1.8 3.6 -1.8 0.9 0 2.2 -0.6 2.8 -1.4 7.6 -9.1 67.9 -10.5 107.6 -2.7 24.1 4.8 35.8 8.2 53.2 15.4 18 7.5 46.7 21.5 51 25.1 1.5 1.2 5.5 3.9 8.9 5.8 5.9 3.6 12.1 9 10.1 9 -0.5 0 -2 -1.1 -3.5 -2.4z"/>
  <path d="M596.8 1109.8 c-1.5 -3.6 -4.6 -9.6 -6.9 -13.6 -8.2 -14 -12.2 -23.7 -15.4 -36.7 -4.3 -17.5 -4.5 -33.8 -0.5 -47.4 2.7 -9.5 6.8 -16.1 10.2 -16.6 1 -0.1 4.5 1 7.6 2.6 l5.6 2.9 3.4 10.2 c1.8 5.6 3.8 11.6 4.3 13.1 l0.9 2.9 -3.6 -3.1 c-2.8 -2.5 -4.5 -3.2 -8 -3.2 -6.3 0 -9.3 2.8 -11.9 11 -3.3 10.6 -2.4 21.5 2 23.9 2.7 1.4 3.6 -0.4 3.6 -7.7 0.1 -6.6 2.6 -12.8 5 -12.8 1.4 0 5.3 5.4 10.8 14.7 1.3 2.3 5 8.6 8.2 13.9 3.2 5.3 5.9 10 6 10.5 0.2 0.4 -1 0.7 -2.9 0.7 -3.7 0 -7.6 3.4 -9.8 8.7 -1.9 4.6 -4.5 18.1 -4.6 24.1 -0.1 8.5 -1.2 9 -4.2 1.8z"/>
  <path d="M1514.5 1002 c0 -3.4 0.4 -4.6 1.4 -4.6 0.8 0 2.3 -1 3.1 -2.3 l1.6 -2.3 0 2.7 c0 3.4 -2.9 9.7 -4.8 10.4 -1 0.4 -1.3 -0.6 -1.3 -4z"/>
  <path d="M484.7 881.2 c-1.5 -2.7 -3.9 -6 -5.1 -7.5 -5.9 -7 -16.5 -32.3 -22.9 -54.9 l-2.9 -10.1 5.2 -4.7 c7.7 -7 7.3 -6.9 15.1 -2.3 3.8 2.4 7.9 4.2 9.2 4.2 2.3 0 6.9 -4 30.6 -27 5.2 -5 9.3 -9.5 9.2 -10 -0.5 -1.4 -20.2 14.4 -33.4 26.8 -3 2.9 -6.1 5.1 -7.1 5.1 -0.8 0 -3.8 -1.8 -6.5 -4.1 -6.6 -5.5 -9.3 -5.4 -17 0.5 -3.2 2.6 -6.2 4.6 -6.7 4.6 -3.2 0 -11.1 -61.5 -11.2 -87 0 -10.1 2.4 -38.5 4 -48.1 0.5 -3.1 1.6 -9.8 2.6 -15.1 4.3 -26.2 18.3 -52.7 34.2 -64.6 4.3 -3.2 8.9 -6.9 10.2 -8.1 1.4 -1.3 3 -2.4 3.5 -2.4 0.5 0 5.4 -3.2 10.9 -7 5.4 -3.9 13.6 -9.5 18.1 -12.5 4.5 -3 8.4 -5.7 8.7 -6.1 1.1 -1.3 7.2 -5.2 7.2 -4.5 0 0.3 -1.6 7.4 -3.7 15.7 -4.7 19 -13.7 47.4 -18.4 58 -2 4.5 -6.2 14.4 -9.3 22 -3.1 7.6 -6.9 16.6 -8.5 20 -5.7 12 -10.2 22.2 -10.2 23 0 0.4 -1.3 3.9 -3.1 7.6 -1.6 3.8 -3.7 9.2 -4.6 12.1 -0.8 3 -3.3 7.4 -5.6 10.1 -4.1 4.9 -4.6 8.1 -1.2 8.1 2 0 12 -10.3 14.2 -14.7 0.9 -1.7 2.3 -3.6 2.9 -4.2 1.1 -0.8 8.8 -12.2 26.7 -39.3 8.4 -12.7 13.7 -21.2 13.7 -22 0 -1.1 13.3 -23.2 15.1 -25 2 -2.2 25.7 -50.1 27 -54.8 1.8 -6.6 9.2 -25.8 10.1 -26.1 0.4 -0.1 4.1 -2.4 8.3 -4.8 4.2 -2.6 8.2 -4.6 8.9 -4.6 0.8 0 3.5 1.8 6 4.1 4.8 4.2 6.8 4.8 10.8 3.2 5.1 -2 6.6 -2.5 7.9 -2.3 0.7 0.1 1 -0.2 0.6 -0.8 -0.8 -1.3 -7.7 -1.4 -9.7 -0.1 -1.6 1 -5.1 -1.4 -5.1 -3.6 0 -2.2 -5.2 -6.7 -7.7 -6.7 -1.2 0 -5.4 1.6 -9.2 3.6 -3.8 2 -7.1 3.5 -7.3 3.3 -0.5 -0.5 13.1 -36.9 16.8 -44.7 1.6 -3.7 4.2 -9.2 5.6 -12.4 1.9 -4 5 -7.9 10.5 -13.1 4.2 -4 8.1 -7.1 8.5 -6.9 0.4 0.3 1.6 3.3 2.7 6.7 3.8 12.6 7 13 24.8 3.3 6.2 -3.5 12.1 -6.2 13 -6.2 0.8 0 2.2 0.9 2.9 1.9 2.9 4.1 8.9 6.6 17 7 7.3 0.4 7.7 0.3 5.9 -1.1 -1.1 -0.9 -2.9 -1.6 -3.9 -1.6 -2.9 0 -8.7 -2.7 -14.7 -6.7 -3 -1.9 -6.1 -3.6 -7.1 -3.6 -0.9 0 -6.9 2 -13.1 4.5 -16.9 6.7 -15.8 6.5 -17 1.9 -0.6 -2.2 -1.1 -4.4 -1.1 -5.1 0 -2.3 -5.3 -7.5 -7.6 -7.5 -1.2 0 -3.3 0.7 -4.5 1.6 -9 6.2 13.1 -19.6 24.6 -28.8 4.1 -3.4 8 -6.6 8.5 -7.2 0.6 -0.6 2.5 -1.8 4.1 -2.8 1.7 -0.8 4.9 -2.6 7.2 -3.8 13.9 -7.7 37.3 -18.6 52.7 -24.9 9.8 -3.9 19.4 -7.8 21 -8.5 6.8 -3 20 -7.7 21.7 -7.7 1 -0.1 6.5 -1.7 12.1 -3.7 16.9 -5.8 27 -9.2 38.4 -12.7 5.9 -1.7 12.4 -3.8 14.3 -4.5 1.9 -0.8 9.8 -3.1 17.4 -5.2 7.6 -2 18.4 -5.1 24.1 -6.7 5.6 -1.6 16.3 -4.3 23.6 -5.9 16 -3.8 92.1 -22.2 102.8 -25 4.1 -1 7.7 -1.7 7.9 -1.5 0.2 0.2 -0.5 2.8 -1.6 5.6 -4.1 10.6 -2.3 20.7 6.2 34.6 4.1 6.8 5.6 10.3 6.7 16.1 1.8 10.3 1.8 28.1 -0.1 33.4 -1.3 3.8 -1.3 4.4 0.1 4.9 2 0.8 4 -2.2 5.9 -9 1.2 -4.3 1.6 -10.6 1.6 -27.1 0 -18.1 -0.3 -22.6 -2.2 -29.6 -4.8 -19.1 -4.7 -20.3 3.1 -29.8 3.6 -4.3 5.1 -5.3 9.6 -6.5 3 -0.7 6.5 -1.6 7.9 -2.2 1.4 -0.4 11.7 -3.1 22.8 -5.7 16.4 -4 20.7 -4.7 22 -3.7 5.4 3.8 15.4 7.9 34.5 14 11.9 3.8 23.6 7.5 26.1 8.3 2.6 0.8 5.8 2.4 7.3 3.5 1.4 1 6.3 3.8 10.8 6.1 4.5 2.5 10.4 5.6 13.4 7.3 3 1.6 5.8 3 6.5 3 4 0 22.6 16.5 25.7 22.7 7.2 14.4 8.6 19.7 11.5 41.3 1 7.7 1.7 10.2 2.8 10.2 1.2 0 1.5 -2.2 1.5 -12.3 -0.1 -25.8 -2.7 -42.1 -8.5 -53 -1.5 -3 -2.9 -5.5 -3 -5.8 -0.2 -0.3 13.4 4 30.1 9.4 48.5 15.8 86.7 27.3 97.5 29.5 2.6 0.6 8.2 1.9 12.4 3.2 4.2 1.1 22 5.7 39.4 10.1 17.5 4.5 36.9 9.5 43 11.2 6.2 1.6 13.8 3.7 17 4.6 3.1 0.8 14.1 4.1 24.6 7.4 10.3 3.2 20.9 6.1 23.4 6.6 4.4 0.8 46.4 19.4 48.5 21.5 1.3 1.3 -4 11.7 -7.5 14.4 -3.3 2.6 -4.5 2.5 -10.8 -1 -2.9 -1.6 -7 -3.5 -9.2 -4.2 -3.6 -1.1 -4.1 -1 -6.1 0.9 -1.1 1.2 -3.1 4.8 -4.2 8.1 -1.8 5.1 -2.5 5.8 -5.1 6.1 -2.7 0.3 -15.3 -1.3 -29.9 -4.1 -9.4 -1.7 -15.2 0.3 -25 9 -2 1.7 -4.5 3.7 -5.5 4.2 -1 0.6 -1.5 1.5 -1.1 2.2 1 1.7 4.9 -0.1 14.5 -6.6 10.4 -7 10 -7 30.4 -0.8 8.7 2.7 16 3.1 21.1 1.3 2.7 -0.9 3.9 -2.5 6.5 -8 1.6 -3.7 3.2 -6.9 3.4 -7.1 0.2 -0.2 3.6 1.3 7.6 3.3 9.5 4.9 15 5 20.1 0.5 1.9 -1.7 3.6 -3.9 3.6 -4.7 0 -0.9 0.9 -3.2 2.2 -5 l2.2 -3.5 3.6 2.8 c1.9 1.5 5.1 4.8 7.1 7.5 1.9 2.6 4 5.2 4.6 5.9 0.6 0.7 2.7 4.8 4.6 9 3.7 8 6.3 18.8 8.6 34.7 0.7 5.1 2.2 13 3.3 17.7 1.1 4.7 1.8 8.8 1.5 9 -0.6 0.6 -17.2 -19.5 -19 -22.9 -1.3 -2.5 -3.8 -3.1 -4.4 -1 -0.5 1.3 1.2 8.2 3.6 14.7 2.5 6.9 7.8 16.9 13.1 24.7 2.8 4 8.5 14.1 12.8 22.5 4.2 8.3 8.2 15.6 8.7 16.2 0.5 0.5 0.9 1.4 0.9 1.9 0 0.6 -3.8 -2.7 -8.4 -7.2 -12 -11.6 -24.6 -20.9 -36.7 -27 -2.6 -1.2 -5.7 -3.2 -7.2 -4.1 -1.4 -1 -4.2 -2.3 -6.1 -2.9 -1.9 -0.6 -12.6 -4.7 -23.6 -9.2 -11 -4.5 -26.2 -10.1 -33.8 -12.5 -7.6 -2.4 -16.4 -5.1 -19.5 -6.1 -15.1 -5.1 -49.5 -13.7 -63 -15.9 -5 -0.7 -15.7 -2.6 -23.6 -3.9 -7.9 -1.4 -18.2 -3.1 -23 -3.7 -15.5 -1.9 -42.3 -5.1 -49.2 -5.6 -3.7 -0.3 -11.3 -1 -16.9 -1.5 -55.2 -5.2 -116.5 -4.9 -170.5 0.9 -4.8 0.5 -13.5 1.4 -19.5 2 -5.9 0.6 -13.5 1.5 -16.9 2 -3.4 0.5 -10.2 1.4 -15.4 2.2 -5 0.6 -16.8 2.3 -26.1 3.7 -20.1 3 -28.5 4.2 -35.3 4.8 -2.8 0.2 -8.6 1.1 -12.8 1.9 -4.2 0.9 -13 2.6 -19.5 3.8 -6.5 1.1 -15 2.9 -18.7 3.7 -3.9 0.8 -11.5 2.4 -16.9 3.5 -25 4.9 -53.5 12.6 -88.4 23.7 -10.5 3.3 -19.9 6 -20.9 6 -0.9 0 -3.2 0.6 -4.9 1.4 -1.8 0.8 -9.2 3.7 -16.6 6.3 -7.3 2.7 -17 6.1 -21.5 7.8 -4.5 1.6 -13 4.6 -18.8 6.7 -5.9 2 -15.2 5.5 -20.5 7.7 -24.1 10 -31.9 13.1 -33.2 13.1 -3.6 0 -31.3 12.8 -48.3 22.3 -5.6 3.2 -14.2 8.8 -19.1 12.7 -4.9 3.8 -9.4 7 -9.9 7 -0.5 0 -7.1 4.4 -14.6 9.7 -7.5 5.4 -15 10.5 -16.6 11.6 -6.7 4 -19.6 12.8 -25 17.1 -10.6 8.3 -12.5 9.9 -13.7 12.2 -0.7 1.3 -3.8 5.5 -6.7 9.4 -6.5 8.5 -16.1 27.2 -18.3 35.7 -0.9 3.4 -1.8 11.3 -2.2 17.6 -0.5 9.7 -0.2 12.7 1.7 20 1.2 4.7 3.2 10.2 4.3 12.4 3.1 6.1 9.5 12.5 15.8 15.7 l5.7 3 -0.5 18.4 c-0.5 20 0.2 16.8 -8.8 42 -5.9 16.6 -14.2 26.2 -28.4 32.7 -11.9 5.5 -18.9 7 -34.3 6.7 -11.5 -0.2 -13.4 0 -15.2 1.5 -2 1.8 -2.2 1.7 -4.9 -3z"/>
  <path d="M1537.2 871.5 c0.4 -1.3 1.8 -1.6 1.9 -0.4 0 0.4 -0.5 0.9 -1.1 1.2 -0.7 0.2 -1.1 -0.2 -0.8 -0.8z"/>
  <path d="M1548.9 756.9 c-5 -4.3 -11.1 -9.2 -13.5 -11 -2.4 -1.6 -8.6 -7.2 -13.8 -12.3 -16.8 -16.3 -30 -28.4 -32.2 -29.3 -1.1 -0.5 -5.5 -3.9 -9.7 -7.6 -8.3 -7.2 -27.5 -21.4 -37.2 -27.4 -10.3 -6.6 -37.7 -21.7 -53.6 -29.7 -13.1 -6.7 -36.4 -17.1 -37.9 -17.1 -0.2 0 -2.4 -0.8 -4.8 -1.8 -11.2 -4.8 -45.8 -16.3 -60.6 -20.1 -42 -10.9 -62.7 -14.2 -125.4 -20.6 -29 -3 -95.1 -1.7 -137.7 2.5 -27.1 2.8 -69.7 9.5 -84.5 13.4 -1.9 0.5 -5.2 1.2 -7.2 1.5 -3.7 0.6 -21 4.9 -35.3 8.7 -7.2 1.9 -24.4 7.3 -46.6 14.4 -3.7 1.1 -10.1 3.8 -14.3 5.7 -22.9 10.6 -38 18.1 -52.4 26.2 -8.9 4.9 -16.6 8.9 -17.1 8.9 -2.2 0 -53 31.8 -63.4 39.6 -2.5 1.8 -4.9 3.4 -5.5 3.4 -1.2 0 -28.1 17.8 -46.9 31.2 -7.6 5.4 -14.5 10.1 -15.4 10.4 -1.7 0.7 -9 6.3 -13.8 10.6 -1.6 1.4 -5.3 3.5 -8.1 4.4 -5.4 1.7 -20.6 2.3 -21.6 0.7 -0.3 -0.5 0.7 -1.9 2.3 -3.2 1.6 -1.2 6.5 -5.6 10.8 -9.8 8.3 -7.9 11.5 -9.2 16.1 -6.3 2.3 1.3 5.9 -0.5 8.8 -4.5 7.2 -10.2 15.2 -20.4 17.1 -21.7 1.2 -0.9 3.6 -1.6 5 -1.6 1.5 0 5.9 -1.7 9.8 -3.8 3.8 -2 9.1 -4.8 11.7 -6.1 9.8 -4.8 8.6 -7.5 -1.3 -3 -13.3 6.1 -15.5 7 -20.6 7.7 -7.1 0.9 -8.6 2.2 -19.1 14.6 -6.6 7.8 -9.4 10.4 -10.9 10.1 -1 -0.2 -4.1 -0.4 -6.7 -0.5 -5.2 -0.1 -5.1 -0.2 -19.9 12.9 -7.8 7 -9.1 7.8 -10.9 6.7 -4.4 -2.8 -5 -19.1 -1.2 -34.6 l1.6 -7.1 2.2 1.9 c3.9 3.6 8.3 3 11.1 -1.6 0.9 -1.6 4.2 -5.6 7.3 -8.9 l5.5 -6 4.7 1.1 c9.4 2.5 11.9 1.8 17.1 -4 2.6 -3 7 -7.8 9.9 -10.9 l5.2 -5.6 8.2 0.7 c6.3 0.6 8.7 0.4 11.2 -0.8 4 -2 23.8 -23.2 23.9 -25.5 0.1 -2.4 -3.6 0.2 -12.3 8.7 -15 14.5 -14.4 14.2 -23.8 13.4 l-7.9 -0.7 -10.8 11 -10.8 11 -7.2 -0.7 c-6.9 -0.6 -7.3 -0.5 -12 2.8 -2.8 1.8 -7 4.9 -9.4 6.9 -4 3.3 -4.5 3.5 -6 1.9 -2.3 -2.2 -0.6 -5.8 6.9 -16 10.6 -14.4 16 -19.4 25.7 -24.3 5 -2.5 9.6 -4.5 10.2 -4.5 0.6 0 10.9 -4.8 22.8 -10.6 11.9 -5.8 26 -12.5 31.3 -14.7 5.3 -2.3 12.7 -5.5 16.4 -7.2 9.7 -4.5 24.6 -10.4 26.2 -10.4 0.8 0 7.3 -2.4 14.4 -5.2 7.3 -2.9 20.1 -7.7 28.5 -10.8 8.5 -3.1 16.3 -6 17.4 -6.6 1.1 -0.5 7.4 -2.9 13.8 -5.2 6.5 -2.3 16.7 -5.9 22.6 -8.2 6 -2.2 14.3 -4.9 18.4 -5.9 8.1 -2 27.1 -8 28.5 -8.7 1.7 -1.1 47 -12.7 58.5 -15.1 2.6 -0.5 11.3 -2.3 19.5 -4 8.2 -1.7 17.2 -3.6 20 -4.1 9.5 -1.7 35.7 -5.9 44 -7.2 23.8 -3.4 29.6 -4.1 39.9 -5.1 6.2 -0.6 14.5 -1.5 18.4 -2 7.6 -0.9 20.1 -2.4 34.3 -4 4.8 -0.6 12.7 -1.5 17.7 -2.2 4.9 -0.5 12.9 -1.5 17.9 -2 20.6 -2.5 30.5 -3.9 39.9 -5.7 3.7 -0.7 3 -4.9 -0.8 -4.7 -4.3 0.2 -42.8 3.5 -49.7 4.3 -8.4 0.8 -23.8 2.4 -36.9 3.7 -2.8 0.2 -6.8 0.6 -8.7 0.9 -6.3 0.8 -14.5 1.4 -30.2 2.6 -40.6 3 -41.6 3.1 -65.5 7.3 -6.8 1.1 -15.8 2.5 -20 3 -17.3 1.9 -88.4 18.5 -96.8 22.5 -1.1 0.5 -7.1 2.4 -13.3 4.1 -10.3 3 -25.1 7.6 -44.3 13.9 -4.1 1.3 -8.2 2.5 -9.2 2.5 -0.9 0 -6.1 1.5 -11.5 3.5 -5.3 1.9 -16.2 5.7 -24.1 8.6 -34.1 12.1 -66.2 25.6 -95.8 40.6 -20.4 10.1 -21.2 10.4 -21 8 0.1 -2.4 1.6 -3.4 13.4 -8.9 7.4 -3.4 15.4 -7.1 17.9 -8.1 2.6 -1 7.6 -3.4 11.3 -5.3 29.7 -15.8 77.1 -38.3 80.5 -38.3 0.8 0 5.9 -2 11.4 -4.5 5.5 -2.5 16.7 -6.9 24.9 -9.7 8.2 -3 16.9 -6.2 19.5 -7.3 8.2 -3.3 54.6 -18.1 62 -19.8 4 -0.9 10.1 -2.4 13.8 -3.2 3.7 -0.8 9.2 -2.2 12.3 -3 3.1 -0.8 10 -2.5 15.4 -3.7 17.1 -3.9 18.8 -4.3 22.5 -5.3 3.2 -0.8 15.8 -3.5 22.5 -4.7 1.4 -0.3 9.2 -1.8 17.4 -3.4 8.2 -1.6 20.9 -3.9 28.2 -5.1 7.4 -1.1 15.9 -2.6 18.9 -3.1 3.1 -0.5 7.3 -1.2 9.2 -1.5 1.9 -0.3 10.8 -1.5 19.5 -2.7 8.7 -1.1 18.8 -2.5 22.5 -3.1 10 -1.3 25 -2.9 46.6 -4.5 22.9 -1.7 104.4 -2.2 123.7 -0.5 19.6 1.6 35.3 3.2 43.7 4.1 4.2 0.5 11.9 1.4 16.9 2 5.1 0.6 12.2 1.5 15.9 2.2 3.7 0.5 13.3 1.8 21.5 3 8.2 1.1 16.9 2.6 19.5 3.1 2.6 0.5 9.9 1.8 16.4 3.1 20.6 3.9 63.4 16.2 72.8 21.1 1.5 0.7 6.2 2.4 10.5 3.5 19.7 5.2 61.3 26.2 75.4 37.8 2.6 2.2 6.1 4.7 8 5.6 4.5 2.4 26.6 24.7 29.9 30.2 1.4 2.5 4.1 6.8 6 9.6 7.3 11.2 11.7 24.6 12.9 39.3 0.4 4.6 0.4 10 0.1 12 l-0.7 3.6 -2.2 -2.2 c-1.7 -1.7 -2.9 -1.9 -6.6 -1.4 -2.6 0.3 -5.9 1.2 -7.6 2.2 -5.1 2.7 -7.8 2 -11.1 -2.8 -1.6 -2.5 -7.2 -8.4 -12.2 -13.2 -8.9 -8.5 -13.2 -11 -17.1 -9.5 -2.2 0.8 -8.7 -2.9 -14.4 -8.3 -2.8 -2.6 -7 -5.5 -9.2 -6.7 -5.1 -2.3 -13.8 -3.7 -13.8 -2.2 0 0.6 0.2 1.1 0.4 1.1 0.2 0 2.8 0.4 5.7 1 4.7 0.9 6.3 1.9 13 8.2 9.5 9.1 13 11.3 18.3 11.3 3.8 0 4.8 0.6 11.6 7.5 4.1 4 8.9 9.4 10.6 12 7.3 10.8 9.5 11.8 20.7 8.8 2.9 -0.8 5.5 -1.1 6 -0.8 0.5 0.3 0.6 6.8 0.3 15 l-0.6 14.3 -5.5 11.3 -5.4 11.2 -2.2 -3.7 c-3.7 -6.1 -6.6 -7.4 -18.4 -7.6 -5.8 -0.1 -11.6 -0.8 -12.8 -1.4 -1.2 -0.7 -4.7 -3.6 -7.7 -6.3 -3 -2.9 -5.7 -4.8 -6 -4.5 -0.3 0.3 1.3 3.4 3.7 6.8 5.7 8.2 11.8 11.4 21.6 11.4 9 0 12 1.2 13.7 5.6 2.8 6.6 2.3 7.7 -9.4 19.3 -12 11.8 -18.3 17 -20.8 17 -0.8 0.1 -5.6 -3.5 -10.6 -7.9z m-5.7 -56.4 c-0.8 -0.5 -3.5 -1.2 -5.9 -1.6 -4.8 -0.8 -15 -7.1 -26.3 -16.3 -7.5 -6.1 -12.6 -9.3 -13.5 -8.4 -0.3 0.2 0.3 1.1 1.4 1.9 8.3 6.8 14.7 12.3 18.1 15.5 2.2 2 6.3 5.1 9.2 6.8 4.3 2.6 6.3 3.1 11.9 3.1 4.2 -0.1 6.1 -0.4 5.1 -0.9z"/>
  <path d="M1006.6 275.1 c0 -1.4 6.9 -3.1 20.5 -4.8 4.8 -0.6 12 -1.5 15.9 -2 20.1 -2.6 37.4 -3.4 44.5 -2.2 3.9 0.7 7.2 1.7 7.2 2.4 0 0.6 -0.7 0.7 -1.6 0.4 -7 -2.7 -24.9 -1.3 -70 5.5 -16.4 2.5 -16.4 2.5 -16.4 0.7z"/>
  <path d="M711.7 1506.8 c1.5 -1.8 0.5 -3.6 -2.4 -3.6 -1.2 0 -3 -0.5 -3.8 -1.1 -1.1 -0.8 -0.5 -0.9 2.6 -0.4 7.4 1.2 8.2 1.1 7.9 -0.7 -0.2 -1.6 0 -1.6 2.4 -0.6 3.3 1.4 3.3 3.2 -0.1 5.8 -3.3 2.6 -8.6 3.1 -6.6 0.6z"/>
 </g>
</svg>