<?xml version="1.0" encoding="utf-8"?>
<!DOCTYPE svg PUBLIC "-//W3C//DTD SVG 1.1//EN" "http://www.w3.org/Graphics/SVG/1.1/DTD/svg11.dtd">
<svg version="1.1" id="Layer_1" xmlns="http://www.w3.org/2000/svg" xmlns:xlink="http://www.w3.org/1999/xlink" x="0px" y="0px"
width="1537px" height="1537px" viewBox="0 0 1537 1537" enable-background="new 0 0 1537 1537" xml:space="preserve">
<rect x="0" y="0" width="1537" height="1537" fill="rgb(246,242,242)" /><g transform="translate(106,106)"><g transform="translate(477,0) scale(0.53,0.53)"><g transform="" style="fill: rgb(8, 8, 8);">
<polygon points="100,100 0,50 0,50 100,0 "/>
</g></g><g transform="translate(530,0) scale(0.53,0.53)"><g transform="" style="fill: rgb(8, 8, 8);">
<rect width="100" height="100"/>
</g></g><g transform="translate(583,0) scale(0.53,0.53)"><g transform="" style="fill: rgb(8, 8, 8);">
<g>
	<path d="M100,34.375c0-9.505-3.354-17.611-10.059-24.316S75.131,0,65.625,0H0v100h100V34.375z"/>
</g>
</g></g><g transform="translate(795,0) scale(0.53,0.53)"><g transform="" style="fill: rgb(8, 8, 8);">
<polygon points="100,100 0,50 0,50 100,0 "/>
</g></g><g transform="translate(848,0) scale(0.53,0.53)"><g transform="" style="fill: rgb(8, 8, 8);">
<g>
	<path d="M100,34.375c0-9.505-3.354-17.611-10.059-24.316S75.131,0,65.625,0H0v100h100V34.375z"/>
</g>
</g></g><g transform="translate(424,53) scale(0.53,0.53)"><g transform="" style="fill: rgb(8, 8, 8);">
<polygon points="100,100 50,0 50,0 0,100 "/>
</g></g><g transform="translate(530,53) scale(0.53,0.53)"><g transform="" style="fill: rgb(8, 8, 8);">
<rect width="100" height="100"/>
</g></g><g transform="translate(583,53) scale(0.53,0.53)"><g transform="" style="fill: rgb(8, 8, 8);">
<rect width="100" height="100"/>
</g></g><g transform="translate(636,53) scale(0.53,0.53)"><g transform="" style="fill: rgb(8, 8, 8);">
<rect width="100" height="100"/>
</g></g><g transform="translate(689,53) scale(0.53,0.53)"><g transform="" style="fill: rgb(8, 8, 8);">
<rect width="100" height="100"/>
</g></g><g transform="translate(742,53) scale(0.53,0.53)"><g transform="" style="fill: rgb(8, 8, 8);">
<polygon points="0,100 100,50 100,50 0,0 "/>
</g></g><g transform="translate(848,53) scale(0.53,0.53)"><g transform="" style="fill: rgb(8, 8, 8);">
<polygon points="0,-0.001 50,99.999 50,99.999 100,-0.001 "/>
</g></g><g transform="translate(424,106) scale(0.53,0.53)"><g transform="" style="fill: rgb(8, 8, 8);">
<rect width="100" height="100"/>
</g></g><g transform="translate(530,106) scale(0.53,0.53)"><g transform="" style="fill: rgb(8, 8, 8);">
<rect width="100" height="100"/>
</g></g><g transform="translate(689,106) scale(0.53,0.53)"><g transform="" style="fill: rgb(8, 8, 8);">
<polygon points="0,-0.001 50,99.999 50,99.999 100,-0.001 "/>
</g></g><g transform="translate(795,106) scale(0.53,0.53)"><g transform="" style="fill: rgb(8, 8, 8);">
<polygon points="99.999,49.999 99.998,49.999 49.999,0 0,49.999 -0.001,49.999 -0.001,50 0,50 49.999,99.999 99.998,50 99.999,50 
	99.998,50 "/>
</g></g><g transform="translate(424,159) scale(0.53,0.53)"><g transform="" style="fill: rgb(8, 8, 8);">
<g>
	<path d="M100,0H0v65.625c0,9.506,3.353,17.611,10.059,24.316S24.87,100,34.375,100H100V0z"/>
</g>
</g></g><g transform="translate(477,159) scale(0.53,0.53)"><g transform="" style="fill: rgb(8, 8, 8);">
<rect width="100" height="100"/>
</g></g><g transform="translate(530,159) scale(0.53,0.53)"><g transform="" style="fill: rgb(8, 8, 8);">
<rect width="100" height="100"/>
</g></g><g transform="translate(636,159) scale(0.53,0.53)"><g transform="" style="fill: rgb(8, 8, 8);">
<polygon points="99.999,49.999 99.998,49.999 49.999,0 0,49.999 -0.001,49.999 -0.001,50 0,50 49.999,99.999 99.998,50 99.999,50 
	99.998,50 "/>
</g></g><g transform="translate(848,159) scale(0.53,0.53)"><g transform="" style="fill: rgb(8, 8, 8);">
<polygon points="100,100 50,0 50,0 0,100 "/>
</g></g><g transform="translate(530,212) scale(0.53,0.53)"><g transform="" style="fill: rgb(8, 8, 8);">
<polygon points="0,-0.001 50,99.999 50,99.999 100,-0.001 "/>
</g></g><g transform="translate(795,212) scale(0.53,0.53)"><g transform="" style="fill: rgb(8, 8, 8);">
<g>
	<path d="M100,34.375V0H34.375C24.87,0,16.764,3.353,10.059,10.059S0,24.87,0,34.375V100h100V34.375z"/>
</g>
</g></g><g transform="translate(848,212) scale(0.53,0.53)"><g transform="" style="fill: rgb(8, 8, 8);">
<g>
	<path d="M100,0H0v100h65.625c9.506,0,17.611-3.354,24.316-10.059S100,75.131,100,65.625V0z"/>
</g>
</g></g><g transform="translate(583,265) scale(0.53,0.53)"><g transform="" style="fill: rgb(8, 8, 8);">
<polygon points="99.999,49.999 99.998,49.999 49.999,0 0,49.999 -0.001,49.999 -0.001,50 0,50 49.999,99.999 99.998,50 99.999,50 
	99.998,50 "/>
</g></g><g transform="translate(795,265) scale(0.53,0.53)"><g transform="" style="fill: rgb(8, 8, 8);">
<polygon points="0,-0.001 50,99.999 50,99.999 100,-0.001 "/>
</g></g><g transform="translate(424,318) scale(0.53,0.53)"><g transform="" style="fill: rgb(8, 8, 8);">
<polygon points="100,100 50,0 50,0 0,100 "/>
</g></g><g transform="translate(530,318) scale(0.53,0.53)"><g transform="" style="fill: rgb(8, 8, 8);">
<polygon points="100,100 50,0 50,0 0,100 "/>
</g></g><g transform="translate(636,318) scale(0.53,0.53)"><g transform="" style="fill: rgb(8, 8, 8);">
<polygon points="100,100 50,0 50,0 0,100 "/>
</g></g><g transform="translate(742,318) scale(0.53,0.53)"><g transform="" style="fill: rgb(8, 8, 8);">
<polygon points="100,100 50,0 50,0 0,100 "/>
</g></g><g transform="translate(848,318) scale(0.53,0.53)"><g transform="" style="fill: rgb(8, 8, 8);">
<polygon points="100,100 50,0 50,0 0,100 "/>
</g></g><g transform="translate(424,371) scale(0.53,0.53)"><g transform="" style="fill: rgb(8, 8, 8);">
<rect width="100" height="100"/>
</g></g><g transform="translate(477,371) scale(0.53,0.53)"><g transform="" style="fill: rgb(8, 8, 8);">
<rect width="100" height="100"/>
</g></g><g transform="translate(530,371) scale(0.53,0.53)"><g transform="" style="fill: rgb(8, 8, 8);">
<g>
	<path d="M100,0H0v100h65.625c9.506,0,17.611-3.354,24.316-10.059S100,75.131,100,65.625V0z"/>
</g>
</g></g><g transform="translate(636,371) scale(0.53,0.53)"><g transform="" style="fill: rgb(8, 8, 8);">
<polygon points="0,-0.001 50,99.999 50,99.999 100,-0.001 "/>
</g></g><g transform="translate(742,371) scale(0.53,0.53)"><g transform="" style="fill: rgb(8, 8, 8);">
<g>
	<path d="M100,0H0v65.625c0,9.506,3.353,17.611,10.059,24.316S24.87,100,34.375,100H100V0z"/>
</g>
</g></g><g transform="translate(795,371) scale(0.53,0.53)"><g transform="" style="fill: rgb(8, 8, 8);">
<rect width="100" height="100"/>
</g></g><g transform="translate(848,371) scale(0.53,0.53)"><g transform="" style="fill: rgb(8, 8, 8);">
<g>
	<path d="M100,0H0v100h65.625c9.506,0,17.611-3.354,24.316-10.059S100,75.131,100,65.625V0z"/>
</g>
</g></g><g transform="translate(0,424) scale(0.53,0.53)"><g transform="" style="fill: rgb(8, 8, 8);">
<polygon points="100,100 50,0 50,0 0,100 "/>
</g></g><g transform="translate(318,424) scale(0.53,0.53)"><g transform="" style="fill: rgb(8, 8, 8);">
<polygon points="99.999,49.999 99.998,49.999 49.999,0 0,49.999 -0.001,49.999 -0.001,50 0,50 49.999,99.999 99.998,50 99.999,50 
	99.998,50 "/>
</g></g><g transform="translate(424,424) scale(0.53,0.53)"><g transform="" style="fill: rgb(8, 8, 8);">
<rect width="100" height="100"/>
</g></g><g transform="translate(477,424) scale(0.53,0.53)"><g transform="" style="fill: rgb(8, 8, 8);">
<rect width="100" height="100"/>
</g></g><g transform="translate(583,424) scale(0.53,0.53)"><g transform="" style="fill: rgb(8, 8, 8);">
<polygon points="99.999,49.999 99.998,49.999 49.999,0 0,49.999 -0.001,49.999 -0.001,50 0,50 49.999,99.999 99.998,50 99.999,50 
	99.998,50 "/>
</g></g><g transform="translate(901,424) scale(0.53,0.53)"><g transform="" style="fill: rgb(8, 8, 8);">
<g>
	<path d="M100,34.375V0H34.375C24.87,0,16.764,3.353,10.059,10.059S0,24.87,0,34.375V100h100V34.375z"/>
</g>
</g></g><g transform="translate(954,424) scale(0.53,0.53)"><g transform="" style="fill: rgb(8, 8, 8);">
<polygon points="0,100 100,50 100,50 0,0 "/>
</g></g><g transform="translate(1113,424) scale(0.53,0.53)"><g transform="" style="fill: rgb(8, 8, 8);">
<g>
	<path d="M100,34.375V0H34.375C24.87,0,16.764,3.353,10.059,10.059S0,24.87,0,34.375V100h100V34.375z"/>
</g>
</g></g><g transform="translate(1166,424) scale(0.53,0.53)"><g transform="" style="fill: rgb(8, 8, 8);">
<rect width="100" height="100"/>
</g></g><g transform="translate(1219,424) scale(0.53,0.53)"><g transform="" style="fill: rgb(8, 8, 8);">
<g>
	<path d="M100,34.375c0-9.505-3.354-17.611-10.059-24.316S75.131,0,65.625,0H0v100h100V34.375z"/>
</g>
</g></g><g transform="translate(0,477) scale(0.53,0.53)"><g transform="" style="fill: rgb(8, 8, 8);">
<g>
	<path d="M100,0H0v65.625c0,9.506,3.353,17.611,10.059,24.316S24.87,100,34.375,100H100V0z"/>
</g>
</g></g><g transform="translate(53,477) scale(0.53,0.53)"><g transform="" style="fill: rgb(8, 8, 8);">
<polygon points="0,100 100,50 100,50 0,0 "/>
</g></g><g transform="translate(212,477) scale(0.53,0.53)"><g transform="" style="fill: rgb(8, 8, 8);">
<polygon points="100,100 0,50 0,50 100,0 "/>
</g></g><g transform="translate(265,477) scale(0.53,0.53)"><g transform="" style="fill: rgb(8, 8, 8);">
<polygon points="0,100 100,50 100,50 0,0 "/>
</g></g><g transform="translate(371,477) scale(0.53,0.53)"><g transform="" style="fill: rgb(8, 8, 8);">
<g>
	<path d="M100,34.375V0H34.375C24.87,0,16.764,3.353,10.059,10.059S0,24.87,0,34.375V100h100V34.375z"/>
</g>
</g></g><g transform="translate(424,477) scale(0.53,0.53)"><g transform="" style="fill: rgb(8, 8, 8);">
<rect width="100" height="100"/>
</g></g><g transform="translate(477,477) scale(0.53,0.53)"><g transform="" style="fill: rgb(8, 8, 8);">
<rect width="100" height="100"/>
</g></g><g transform="translate(530,477) scale(0.53,0.53)"><g transform="" style="fill: rgb(8, 8, 8);">
<g>
	<path d="M100,34.375c0-9.505-3.354-17.611-10.059-24.316S75.131,0,65.625,0H0v100h100V34.375z"/>
</g>
</g></g><g transform="translate(636,477) scale(0.53,0.53)"><g transform="" style="fill: rgb(8, 8, 8);">
<g>
	<path d="M100,34.375V0H34.375C24.87,0,16.764,3.353,10.059,10.059S0,24.87,0,34.375V100h100V34.375z"/>
</g>
</g></g><g transform="translate(689,477) scale(0.53,0.53)"><g transform="" style="fill: rgb(8, 8, 8);">
<g>
	<path d="M100,34.375c0-9.505-3.354-17.611-10.059-24.316S75.131,0,65.625,0H0v100h100V34.375z"/>
</g>
</g></g><g transform="translate(848,477) scale(0.53,0.53)"><g transform="" style="fill: rgb(8, 8, 8);">
<polygon points="100,100 0,50 0,50 100,0 "/>
</g></g><g transform="translate(901,477) scale(0.53,0.53)"><g transform="" style="fill: rgb(8, 8, 8);">
<rect width="100" height="100"/>
</g></g><g transform="translate(1007,477) scale(0.53,0.53)"><g transform="" style="fill: rgb(8, 8, 8);">
<polygon points="100,100 0,50 0,50 100,0 "/>
</g></g><g transform="translate(1060,477) scale(0.53,0.53)"><g transform="" style="fill: rgb(8, 8, 8);">
<rect width="100" height="100"/>
</g></g><g transform="translate(1113,477) scale(0.53,0.53)"><g transform="" style="fill: rgb(8, 8, 8);">
<rect width="100" height="100"/>
</g></g><g transform="translate(1166,477) scale(0.53,0.53)"><g transform="" style="fill: rgb(8, 8, 8);">
<rect width="100" height="100"/>
</g></g><g transform="translate(1219,477) scale(0.53,0.53)"><g transform="" style="fill: rgb(8, 8, 8);">
<rect width="100" height="100"/>
</g></g><g transform="translate(106,530) scale(0.53,0.53)"><g transform="" style="fill: rgb(8, 8, 8);">
<polygon points="100,100 50,0 50,0 0,100 "/>
</g></g><g transform="translate(318,530) scale(0.53,0.53)"><g transform="" style="fill: rgb(8, 8, 8);">
<polygon points="100,100 0,50 0,50 100,0 "/>
</g></g><g transform="translate(371,530) scale(0.53,0.53)"><g transform="" style="fill: rgb(8, 8, 8);">
<rect width="100" height="100"/>
</g></g><g transform="translate(424,530) scale(0.53,0.53)"><g transform="" style="fill: rgb(8, 8, 8);">
<rect width="100" height="100"/>
</g></g><g transform="translate(477,530) scale(0.53,0.53)"><g transform="" style="fill: rgb(8, 8, 8);">
<rect width="100" height="100"/>
</g></g><g transform="translate(530,530) scale(0.53,0.53)"><g transform="" style="fill: rgb(8, 8, 8);">
<g>
	<path d="M100,0H0v100h65.625c9.506,0,17.611-3.354,24.316-10.059S100,75.131,100,65.625V0z"/>
</g>
</g></g><g transform="translate(636,530) scale(0.53,0.53)"><g transform="" style="fill: rgb(8, 8, 8);">
<g>
	<path d="M100,0H0v65.625c0,9.506,3.353,17.611,10.059,24.316S24.87,100,34.375,100H100V0z"/>
</g>
</g></g><g transform="translate(689,530) scale(0.53,0.53)"><g transform="" style="fill: rgb(8, 8, 8);">
<rect width="100" height="100"/>
</g></g><g transform="translate(742,530) scale(0.53,0.53)"><g transform="" style="fill: rgb(8, 8, 8);">
<rect width="100" height="100"/>
</g></g><g transform="translate(795,530) scale(0.53,0.53)"><g transform="" style="fill: rgb(8, 8, 8);">
<g>
	<path d="M100,34.375c0-9.505-3.354-17.611-10.059-24.316S75.131,0,65.625,0H0v100h100V34.375z"/>
</g>
</g></g><g transform="translate(901,530) scale(0.53,0.53)"><g transform="" style="fill: rgb(8, 8, 8);">
<rect width="100" height="100"/>
</g></g><g transform="translate(954,530) scale(0.53,0.53)"><g transform="" style="fill: rgb(8, 8, 8);">
<polygon points="0,100 100,50 100,50 0,0 "/>
</g></g><g transform="translate(1060,530) scale(0.53,0.53)"><g transform="" style="fill: rgb(8, 8, 8);">
<rect width="100" height="100"/>
</g></g><g transform="translate(1113,530) scale(0.53,0.53)"><g transform="" style="fill: rgb(8, 8, 8);">
<rect width="100" height="100"/>
</g></g><g transform="translate(1219,530) scale(0.53,0.53)"><g transform="" style="fill: rgb(8, 8, 8);">
<g>
	<path d="M100,0H0v65.625c0,9.506,3.353,17.611,10.059,24.316S24.87,100,34.375,100H100V0z"/>
</g>
</g></g><g transform="translate(1272,530) scale(0.53,0.53)"><g transform="" style="fill: rgb(8, 8, 8);">
<g>
	<path d="M100,34.375c0-9.505-3.354-17.611-10.059-24.316S75.131,0,65.625,0H0v100h100V34.375z"/>
</g>
</g></g><g transform="translate(0,583) scale(0.53,0.53)"><g transform="" style="fill: rgb(8, 8, 8);">
<polygon points="99.999,49.999 99.998,49.999 49.999,0 0,49.999 -0.001,49.999 -0.001,50 0,50 49.999,99.999 99.998,50 99.999,50 
	99.998,50 "/>
</g></g><g transform="translate(106,583) scale(0.53,0.53)"><g transform="" style="fill: rgb(8, 8, 8);">
<rect width="100" height="100"/>
</g></g><g transform="translate(212,583) scale(0.53,0.53)"><g transform="" style="fill: rgb(8, 8, 8);">
<polygon points="99.999,49.999 99.998,49.999 49.999,0 0,49.999 -0.001,49.999 -0.001,50 0,50 49.999,99.999 99.998,50 99.999,50 
	99.998,50 "/>
</g></g><g transform="translate(371,583) scale(0.53,0.53)"><g transform="" style="fill: rgb(8, 8, 8);">
<g>
	<path d="M100,0H0v65.625c0,9.506,3.353,17.611,10.059,24.316S24.87,100,34.375,100H100V0z"/>
</g>
</g></g><g transform="translate(424,583) scale(0.53,0.53)"><g transform="" style="fill: rgb(8, 8, 8);">
<rect width="100" height="100"/>
</g></g><g transform="translate(477,583) scale(0.53,0.53)"><g transform="" style="fill: rgb(8, 8, 8);">
<rect width="100" height="100"/>
</g></g><g transform="translate(583,583) scale(0.53,0.53)"><g transform="" style="fill: rgb(8, 8, 8);">
<polygon points="99.999,49.999 99.998,49.999 49.999,0 0,49.999 -0.001,49.999 -0.001,50 0,50 49.999,99.999 99.998,50 99.999,50 
	99.998,50 "/>
</g></g><g transform="translate(689,583) scale(0.53,0.53)"><g transform="" style="fill: rgb(8, 8, 8);">
<rect width="100" height="100"/>
</g></g><g transform="translate(795,583) scale(0.53,0.53)"><g transform="" style="fill: rgb(8, 8, 8);">
<rect width="100" height="100"/>
</g></g><g transform="translate(848,583) scale(0.53,0.53)"><g transform="" style="fill: rgb(8, 8, 8);">
<rect width="100" height="100"/>
</g></g><g transform="translate(901,583) scale(0.53,0.53)"><g transform="" style="fill: rgb(8, 8, 8);">
<g>
	<path d="M100,0H0v100h65.625c9.506,0,17.611-3.354,24.316-10.059S100,75.131,100,65.625V0z"/>
</g>
</g></g><g transform="translate(1060,583) scale(0.53,0.53)"><g transform="" style="fill: rgb(8, 8, 8);">
<g>
	<path d="M100,0H0v65.625c0,9.506,3.353,17.611,10.059,24.316S24.87,100,34.375,100H100V0z"/>
</g>
</g></g><g transform="translate(1113,583) scale(0.53,0.53)"><g transform="" style="fill: rgb(8, 8, 8);">
<g>
	<path d="M100,0H0v100h65.625c9.506,0,17.611-3.354,24.316-10.059S100,75.131,100,65.625V0z"/>
</g>
</g></g><g transform="translate(1272,583) scale(0.53,0.53)"><g transform="" style="fill: rgb(8, 8, 8);">
<rect width="100" height="100"/>
</g></g><g transform="translate(53,636) scale(0.53,0.53)"><g transform="" style="fill: rgb(8, 8, 8);">
<polygon points="100,100 0,50 0,50 100,0 "/>
</g></g><g transform="translate(106,636) scale(0.53,0.53)"><g transform="" style="fill: rgb(8, 8, 8);">
<rect width="100" height="100"/>
</g></g><g transform="translate(159,636) scale(0.53,0.53)"><g transform="" style="fill: rgb(8, 8, 8);">
<g>
	<path d="M100,34.375c0-9.505-3.354-17.611-10.059-24.316S75.131,0,65.625,0H0v100h100V34.375z"/>
</g>
</g></g><g transform="translate(265,636) scale(0.53,0.53)"><g transform="" style="fill: rgb(8, 8, 8);">
<polygon points="100,100 0,50 0,50 100,0 "/>
</g></g><g transform="translate(318,636) scale(0.53,0.53)"><g transform="" style="fill: rgb(8, 8, 8);">
<polygon points="0,100 100,50 100,50 0,0 "/>
</g></g><g transform="translate(477,636) scale(0.53,0.53)"><g transform="" style="fill: rgb(8, 8, 8);">
<rect width="100" height="100"/>
</g></g><g transform="translate(530,636) scale(0.53,0.53)"><g transform="" style="fill: rgb(8, 8, 8);">
<g>
	<path d="M100,34.375c0-9.505-3.354-17.611-10.059-24.316S75.131,0,65.625,0H0v100h100V34.375z"/>
</g>
</g></g><g transform="translate(636,636) scale(0.53,0.53)"><g transform="" style="fill: rgb(8, 8, 8);">
<polygon points="100,100 0,50 0,50 100,0 "/>
</g></g><g transform="translate(689,636) scale(0.53,0.53)"><g transform="" style="fill: rgb(8, 8, 8);">
<g>
	<path d="M100,0H0v100h65.625c9.506,0,17.611-3.354,24.316-10.059S100,75.131,100,65.625V0z"/>
</g>
</g></g><g transform="translate(795,636) scale(0.53,0.53)"><g transform="" style="fill: rgb(8, 8, 8);">
<rect width="100" height="100"/>
</g></g><g transform="translate(954,636) scale(0.53,0.53)"><g transform="" style="fill: rgb(8, 8, 8);">
<polygon points="100,100 0,50 0,50 100,0 "/>
</g></g><g transform="translate(1007,636) scale(0.53,0.53)"><g transform="" style="fill: rgb(8, 8, 8);">
<g>
	<path d="M100,34.375c0-9.505-3.354-17.611-10.059-24.316S75.131,0,65.625,0H0v100h100V34.375z"/>
</g>
</g></g><g transform="translate(1272,636) scale(0.53,0.53)"><g transform="" style="fill: rgb(8, 8, 8);">
<polygon points="0,-0.001 50,99.999 50,99.999 100,-0.001 "/>
</g></g><g transform="translate(0,689) scale(0.53,0.53)"><g transform="" style="fill: rgb(8, 8, 8);">
<polygon points="100,100 50,0 50,0 0,100 "/>
</g></g><g transform="translate(159,689) scale(0.53,0.53)"><g transform="" style="fill: rgb(8, 8, 8);">
<rect width="100" height="100"/>
</g></g><g transform="translate(212,689) scale(0.53,0.53)"><g transform="" style="fill: rgb(8, 8, 8);">
<polygon points="0,100 100,50 100,50 0,0 "/>
</g></g><g transform="translate(371,689) scale(0.53,0.53)"><g transform="" style="fill: rgb(8, 8, 8);">
<g>
	<path d="M100,34.375V0H34.375C24.87,0,16.764,3.353,10.059,10.059S0,24.87,0,34.375V100h100V34.375z"/>
</g>
</g></g><g transform="translate(424,689) scale(0.53,0.53)"><g transform="" style="fill: rgb(8, 8, 8);">
<rect width="100" height="100"/>
</g></g><g transform="translate(477,689) scale(0.53,0.53)"><g transform="" style="fill: rgb(8, 8, 8);">
<rect width="100" height="100"/>
</g></g><g transform="translate(530,689) scale(0.53,0.53)"><g transform="" style="fill: rgb(8, 8, 8);">
<g>
	<path d="M100,0H0v100h65.625c9.506,0,17.611-3.354,24.316-10.059S100,75.131,100,65.625V0z"/>
</g>
</g></g><g transform="translate(795,689) scale(0.53,0.53)"><g transform="" style="fill: rgb(8, 8, 8);">
<rect width="100" height="100"/>
</g></g><g transform="translate(848,689) scale(0.53,0.53)"><g transform="" style="fill: rgb(8, 8, 8);">
<rect width="100" height="100"/>
</g></g><g transform="translate(901,689) scale(0.53,0.53)"><g transform="" style="fill: rgb(8, 8, 8);">
<polygon points="0,100 100,50 100,50 0,0 "/>
</g></g><g transform="translate(1007,689) scale(0.53,0.53)"><g transform="" style="fill: rgb(8, 8, 8);">
<rect width="100" height="100"/>
</g></g><g transform="translate(1219,689) scale(0.53,0.53)"><g transform="" style="fill: rgb(8, 8, 8);">
<polygon points="100,100 50,0 50,0 0,100 "/>
</g></g><g transform="translate(0,742) scale(0.53,0.53)"><g transform="" style="fill: rgb(8, 8, 8);">
<rect width="100" height="100"/>
</g></g><g transform="translate(159,742) scale(0.53,0.53)"><g transform="" style="fill: rgb(8, 8, 8);">
<rect width="100" height="100"/>
</g></g><g transform="translate(265,742) scale(0.53,0.53)"><g transform="" style="fill: rgb(8, 8, 8);">
<g>
	<path d="M100,34.375V0H34.375C24.87,0,16.764,3.353,10.059,10.059S0,24.87,0,34.375V100h100V34.375z"/>
</g>
</g></g><g transform="translate(318,742) scale(0.53,0.53)"><g transform="" style="fill: rgb(8, 8, 8);">
<rect width="100" height="100"/>
</g></g><g transform="translate(371,742) scale(0.53,0.53)"><g transform="" style="fill: rgb(8, 8, 8);">
<rect width="100" height="100"/>
</g></g><g transform="translate(583,742) scale(0.53,0.53)"><g transform="" style="fill: rgb(8, 8, 8);">
<g>
	<path d="M100,34.375V0H34.375C24.87,0,16.764,3.353,10.059,10.059S0,24.87,0,34.375V100h100V34.375z"/>
</g>
</g></g><g transform="translate(636,742) scale(0.53,0.53)"><g transform="" style="fill: rgb(8, 8, 8);">
<polygon points="0,100 100,50 100,50 0,0 "/>
</g></g><g transform="translate(795,742) scale(0.53,0.53)"><g transform="" style="fill: rgb(8, 8, 8);">
<g>
	<path d="M100,0H0v65.625c0,9.506,3.353,17.611,10.059,24.316S24.87,100,34.375,100H100V0z"/>
</g>
</g></g><g transform="translate(848,742) scale(0.53,0.53)"><g transform="" style="fill: rgb(8, 8, 8);">
<g>
	<path d="M100,0H0v100h65.625c9.506,0,17.611-3.354,24.316-10.059S100,75.131,100,65.625V0z"/>
</g>
</g></g><g transform="translate(954,742) scale(0.53,0.53)"><g transform="" style="fill: rgb(8, 8, 8);">
<polygon points="100,100 0,50 0,50 100,0 "/>
</g></g><g transform="translate(1007,742) scale(0.53,0.53)"><g transform="" style="fill: rgb(8, 8, 8);">
<rect width="100" height="100"/>
</g></g><g transform="translate(1060,742) scale(0.53,0.53)"><g transform="" style="fill: rgb(8, 8, 8);">
<rect width="100" height="100"/>
</g></g><g transform="translate(1113,742) scale(0.53,0.53)"><g transform="" style="fill: rgb(8, 8, 8);">
<g>
	<path d="M100,34.375c0-9.505-3.354-17.611-10.059-24.316S75.131,0,65.625,0H0v100h100V34.375z"/>
</g>
</g></g><g transform="translate(1219,742) scale(0.53,0.53)"><g transform="" style="fill: rgb(8, 8, 8);">
<g>
	<path d="M100,0H0v65.625c0,9.506,3.353,17.611,10.059,24.316S24.87,100,34.375,100H100V0z"/>
</g>
</g></g><g transform="translate(1272,742) scale(0.53,0.53)"><g transform="" style="fill: rgb(8, 8, 8);">
<g>
	<path d="M100,34.375c0-9.505-3.354-17.611-10.059-24.316S75.131,0,65.625,0H0v100h100V34.375z"/>
</g>
</g></g><g transform="translate(0,795) scale(0.53,0.53)"><g transform="" style="fill: rgb(8, 8, 8);">
<rect width="100" height="100"/>
</g></g><g transform="translate(159,795) scale(0.53,0.53)"><g transform="" style="fill: rgb(8, 8, 8);">
<rect width="100" height="100"/>
</g></g><g transform="translate(212,795) scale(0.53,0.53)"><g transform="" style="fill: rgb(8, 8, 8);">
<rect width="100" height="100"/>
</g></g><g transform="translate(265,795) scale(0.53,0.53)"><g transform="" style="fill: rgb(8, 8, 8);">
<g>
	<path d="M100,0H0v100h65.625c9.506,0,17.611-3.354,24.316-10.059S100,75.131,100,65.625V0z"/>
</g>
</g></g><g transform="translate(371,795) scale(0.53,0.53)"><g transform="" style="fill: rgb(8, 8, 8);">
<rect width="100" height="100"/>
</g></g><g transform="translate(424,795) scale(0.53,0.53)"><g transform="" style="fill: rgb(8, 8, 8);">
<rect width="100" height="100"/>
</g></g><g transform="translate(477,795) scale(0.53,0.53)"><g transform="" style="fill: rgb(8, 8, 8);">
<polygon points="0,100 100,50 100,50 0,0 "/>
</g></g><g transform="translate(583,795) scale(0.53,0.53)"><g transform="" style="fill: rgb(8, 8, 8);">
<rect width="100" height="100"/>
</g></g><g transform="translate(901,795) scale(0.53,0.53)"><g transform="" style="fill: rgb(8, 8, 8);">
<polygon points="100,100 50,0 50,0 0,100 "/>
</g></g><g transform="translate(1007,795) scale(0.53,0.53)"><g transform="" style="fill: rgb(8, 8, 8);">
<rect width="100" height="100"/>
</g></g><g transform="translate(1113,795) scale(0.53,0.53)"><g transform="" style="fill: rgb(8, 8, 8);">
<g>
	<path d="M100,0H0v65.625c0,9.506,3.353,17.611,10.059,24.316S24.87,100,34.375,100H100V0z"/>
</g>
</g></g><g transform="translate(1166,795) scale(0.53,0.53)"><g transform="" style="fill: rgb(8, 8, 8);">
<g>
	<path d="M100,34.375c0-9.505-3.354-17.611-10.059-24.316S75.131,0,65.625,0H0v100h100V34.375z"/>
</g>
</g></g><g transform="translate(1272,795) scale(0.53,0.53)"><g transform="" style="fill: rgb(8, 8, 8);">
<polygon points="0,-0.001 50,99.999 50,99.999 100,-0.001 "/>
</g></g><g transform="translate(0,848) scale(0.53,0.53)"><g transform="" style="fill: rgb(8, 8, 8);">
<polygon points="0,-0.001 50,99.999 50,99.999 100,-0.001 "/>
</g></g><g transform="translate(159,848) scale(0.53,0.53)"><g transform="" style="fill: rgb(8, 8, 8);">
<polygon points="0,-0.001 50,99.999 50,99.999 100,-0.001 "/>
</g></g><g transform="translate(318,848) scale(0.53,0.53)"><g transform="" style="fill: rgb(8, 8, 8);">
<polygon points="100,100 0,50 0,50 100,0 "/>
</g></g><g transform="translate(371,848) scale(0.53,0.53)"><g transform="" style="fill: rgb(8, 8, 8);">
<rect width="100" height="100"/>
</g></g><g transform="translate(424,848) scale(0.53,0.53)"><g transform="" style="fill: rgb(8, 8, 8);">
<rect width="100" height="100"/>
</g></g><g transform="translate(530,848) scale(0.53,0.53)"><g transform="" style="fill: rgb(8, 8, 8);">
<polygon points="100,100 0,50 0,50 100,0 "/>
</g></g><g transform="translate(583,848) scale(0.53,0.53)"><g transform="" style="fill: rgb(8, 8, 8);">
<g>
	<path d="M100,0H0v100h65.625c9.506,0,17.611-3.354,24.316-10.059S100,75.131,100,65.625V0z"/>
</g>
</g></g><g transform="translate(795,848) scale(0.53,0.53)"><g transform="" style="fill: rgb(8, 8, 8);">
<polygon points="100,100 0,50 0,50 100,0 "/>
</g></g><g transform="translate(848,848) scale(0.53,0.53)"><g transform="" style="fill: rgb(8, 8, 8);">
<rect width="100" height="100"/>
</g></g><g transform="translate(901,848) scale(0.53,0.53)"><g transform="" style="fill: rgb(8, 8, 8);">
<rect width="100" height="100"/>
</g></g><g transform="translate(954,848) scale(0.53,0.53)"><g transform="" style="fill: rgb(8, 8, 8);">
<rect width="100" height="100"/>
</g></g><g transform="translate(1007,848) scale(0.53,0.53)"><g transform="" style="fill: rgb(8, 8, 8);">
<rect width="100" height="100"/>
</g></g><g transform="translate(1060,848) scale(0.53,0.53)"><g transform="" style="fill: rgb(8, 8, 8);">
<g>
	<path d="M100,34.375c0-9.505-3.354-17.611-10.059-24.316S75.131,0,65.625,0H0v100h100V34.375z"/>
</g>
</g></g><g transform="translate(1166,848) scale(0.53,0.53)"><g transform="" style="fill: rgb(8, 8, 8);">
<polygon points="0,-0.001 50,99.999 50,99.999 100,-0.001 "/>
</g></g><g transform="translate(424,901) scale(0.53,0.53)"><g transform="" style="fill: rgb(8, 8, 8);">
<polygon points="0,-0.001 50,99.999 50,99.999 100,-0.001 "/>
</g></g><g transform="translate(636,901) scale(0.53,0.53)"><g transform="" style="fill: rgb(8, 8, 8);">
<polygon points="100,100 0,50 0,50 100,0 "/>
</g></g><g transform="translate(689,901) scale(0.53,0.53)"><g transform="" style="fill: rgb(8, 8, 8);">
<rect width="100" height="100"/>
</g></g><g transform="translate(742,901) scale(0.53,0.53)"><g transform="" style="fill: rgb(8, 8, 8);">
<polygon points="0,100 100,50 100,50 0,0 "/>
</g></g><g transform="translate(848,901) scale(0.53,0.53)"><g transform="" style="fill: rgb(8, 8, 8);">
<rect width="100" height="100"/>
</g></g><g transform="translate(1060,901) scale(0.53,0.53)"><g transform="" style="fill: rgb(8, 8, 8);">
<rect width="100" height="100"/>
</g></g><g transform="translate(477,954) scale(0.53,0.53)"><g transform="" style="fill: rgb(8, 8, 8);">
<polygon points="99.999,49.999 99.998,49.999 49.999,0 0,49.999 -0.001,49.999 -0.001,50 0,50 49.999,99.999 99.998,50 99.999,50 
	99.998,50 "/>
</g></g><g transform="translate(583,954) scale(0.53,0.53)"><g transform="" style="fill: rgb(8, 8, 8);">
<polygon points="99.999,49.999 99.998,49.999 49.999,0 0,49.999 -0.001,49.999 -0.001,50 0,50 49.999,99.999 99.998,50 99.999,50 
	99.998,50 "/>
</g></g><g transform="translate(848,954) scale(0.53,0.53)"><g transform="" style="fill: rgb(8, 8, 8);">
<rect width="100" height="100"/>
</g></g><g transform="translate(954,954) scale(0.53,0.53)"><g transform="" style="fill: rgb(8, 8, 8);">
<polygon points="99.999,49.999 99.998,49.999 49.999,0 0,49.999 -0.001,49.999 -0.001,50 0,50 49.999,99.999 99.998,50 99.999,50 
	99.998,50 "/>
</g></g><g transform="translate(1060,954) scale(0.53,0.53)"><g transform="" style="fill: rgb(8, 8, 8);">
<rect width="100" height="100"/>
</g></g><g transform="translate(1272,954) scale(0.53,0.53)"><g transform="" style="fill: rgb(8, 8, 8);">
<polygon points="99.999,49.999 99.998,49.999 49.999,0 0,49.999 -0.001,49.999 -0.001,50 0,50 49.999,99.999 99.998,50 99.999,50 
	99.998,50 "/>
</g></g><g transform="translate(636,1007) scale(0.53,0.53)"><g transform="" style="fill: rgb(8, 8, 8);">
<g>
	<path d="M100,34.375V0H34.375C24.87,0,16.764,3.353,10.059,10.059S0,24.87,0,34.375V100h100V34.375z"/>
</g>
</g></g><g transform="translate(689,1007) scale(0.53,0.53)"><g transform="" style="fill: rgb(8, 8, 8);">
<polygon points="0,100 100,50 100,50 0,0 "/>
</g></g><g transform="translate(795,1007) scale(0.53,0.53)"><g transform="" style="fill: rgb(8, 8, 8);">
<g>
	<path d="M100,34.375V0H34.375C24.87,0,16.764,3.353,10.059,10.059S0,24.87,0,34.375V100h100V34.375z"/>
</g>
</g></g><g transform="translate(848,1007) scale(0.53,0.53)"><g transform="" style="fill: rgb(8, 8, 8);">
<rect width="100" height="100"/>
</g></g><g transform="translate(1060,1007) scale(0.53,0.53)"><g transform="" style="fill: rgb(8, 8, 8);">
<rect width="100" height="100"/>
</g></g><g transform="translate(1219,1007) scale(0.53,0.53)"><g transform="" style="fill: rgb(8, 8, 8);">
<polygon points="100,100 50,0 50,0 0,100 "/>
</g></g><g transform="translate(477,1060) scale(0.53,0.53)"><g transform="" style="fill: rgb(8, 8, 8);">
<g>
	<path d="M100,34.375V0H34.375C24.87,0,16.764,3.353,10.059,10.059S0,24.87,0,34.375V100h100V34.375z"/>
</g>
</g></g><g transform="translate(530,1060) scale(0.53,0.53)"><g transform="" style="fill: rgb(8, 8, 8);">
<g>
	<path d="M100,34.375c0-9.505-3.354-17.611-10.059-24.316S75.131,0,65.625,0H0v100h100V34.375z"/>
</g>
</g></g><g transform="translate(636,1060) scale(0.53,0.53)"><g transform="" style="fill: rgb(8, 8, 8);">
<polygon points="0,-0.001 50,99.999 50,99.999 100,-0.001 "/>
</g></g><g transform="translate(742,1060) scale(0.53,0.53)"><g transform="" style="fill: rgb(8, 8, 8);">
<g>
	<path d="M100,34.375V0H34.375C24.87,0,16.764,3.353,10.059,10.059S0,24.87,0,34.375V100h100V34.375z"/>
</g>
</g></g><g transform="translate(795,1060) scale(0.53,0.53)"><g transform="" style="fill: rgb(8, 8, 8);">
<rect width="100" height="100"/>
</g></g><g transform="translate(848,1060) scale(0.53,0.53)"><g transform="" style="fill: rgb(8, 8, 8);">
<rect width="100" height="100"/>
</g></g><g transform="translate(901,1060) scale(0.53,0.53)"><g transform="" style="fill: rgb(8, 8, 8);">
<rect width="100" height="100"/>
</g></g><g transform="translate(954,1060) scale(0.53,0.53)"><g transform="" style="fill: rgb(8, 8, 8);">
<rect width="100" height="100"/>
</g></g><g transform="translate(1007,1060) scale(0.53,0.53)"><g transform="" style="fill: rgb(8, 8, 8);">
<rect width="100" height="100"/>
</g></g><g transform="translate(1060,1060) scale(0.53,0.53)"><g transform="" style="fill: rgb(8, 8, 8);">
<g>
	<path d="M100,0H0v100h65.625c9.506,0,17.611-3.354,24.316-10.059S100,75.131,100,65.625V0z"/>
</g>
</g></g><g transform="translate(1166,1060) scale(0.53,0.53)"><g transform="" style="fill: rgb(8, 8, 8);">
<polygon points="100,100 0,50 0,50 100,0 "/>
</g></g><g transform="translate(1219,1060) scale(0.53,0.53)"><g transform="" style="fill: rgb(8, 8, 8);">
<g>
	<path d="M100,0H0v100h65.625c9.506,0,17.611-3.354,24.316-10.059S100,75.131,100,65.625V0z"/>
</g>
</g></g><g transform="translate(477,1113) scale(0.53,0.53)"><g transform="" style="fill: rgb(8, 8, 8);">
<g>
	<path d="M100,0H0v65.625c0,9.506,3.353,17.611,10.059,24.316S24.87,100,34.375,100H100V0z"/>
</g>
</g></g><g transform="translate(530,1113) scale(0.53,0.53)"><g transform="" style="fill: rgb(8, 8, 8);">
<rect width="100" height="100"/>
</g></g><g transform="translate(742,1113) scale(0.53,0.53)"><g transform="" style="fill: rgb(8, 8, 8);">
<polygon points="0,-0.001 50,99.999 50,99.999 100,-0.001 "/>
</g></g><g transform="translate(848,1113) scale(0.53,0.53)"><g transform="" style="fill: rgb(8, 8, 8);">
<polygon points="0,-0.001 50,99.999 50,99.999 100,-0.001 "/>
</g></g><g transform="translate(954,1113) scale(0.53,0.53)"><g transform="" style="fill: rgb(8, 8, 8);">
<polygon points="0,-0.001 50,99.999 50,99.999 100,-0.001 "/>
</g></g><g transform="translate(1272,1113) scale(0.53,0.53)"><g transform="" style="fill: rgb(8, 8, 8);">
<polygon points="100,100 50,0 50,0 0,100 "/>
</g></g><g transform="translate(530,1166) scale(0.53,0.53)"><g transform="" style="fill: rgb(8, 8, 8);">
<rect width="100" height="100"/>
</g></g><g transform="translate(583,1166) scale(0.53,0.53)"><g transform="" style="fill: rgb(8, 8, 8);">
<rect width="100" height="100"/>
</g></g><g transform="translate(636,1166) scale(0.53,0.53)"><g transform="" style="fill: rgb(8, 8, 8);">
<polygon points="0,100 100,50 100,50 0,0 "/>
</g></g><g transform="translate(1113,1166) scale(0.53,0.53)"><g transform="" style="fill: rgb(8, 8, 8);">
<polygon points="100,100 0,50 0,50 100,0 "/>
</g></g><g transform="translate(1166,1166) scale(0.53,0.53)"><g transform="" style="fill: rgb(8, 8, 8);">
<polygon points="0,100 100,50 100,50 0,0 "/>
</g></g><g transform="translate(1272,1166) scale(0.53,0.53)"><g transform="" style="fill: rgb(8, 8, 8);">
<rect width="100" height="100"/>
</g></g><g transform="translate(530,1219) scale(0.53,0.53)"><g transform="" style="fill: rgb(8, 8, 8);">
<g>
	<path d="M100,0H0v65.625c0,9.506,3.353,17.611,10.059,24.316S24.87,100,34.375,100H100V0z"/>
</g>
</g></g><g transform="translate(583,1219) scale(0.53,0.53)"><g transform="" style="fill: rgb(8, 8, 8);">
<g>
	<path d="M100,0H0v100h65.625c9.506,0,17.611-3.354,24.316-10.059S100,75.131,100,65.625V0z"/>
</g>
</g></g><g transform="translate(742,1219) scale(0.53,0.53)"><g transform="" style="fill: rgb(8, 8, 8);">
<polygon points="100,100 50,0 50,0 0,100 "/>
</g></g><g transform="translate(848,1219) scale(0.53,0.53)"><g transform="" style="fill: rgb(8, 8, 8);">
<g>
	<path d="M100,34.375V0H34.375C24.87,0,16.764,3.353,10.059,10.059S0,24.87,0,34.375V100h100V34.375z"/>
</g>
</g></g><g transform="translate(901,1219) scale(0.53,0.53)"><g transform="" style="fill: rgb(8, 8, 8);">
<g>
	<path d="M100,34.375c0-9.505-3.354-17.611-10.059-24.316S75.131,0,65.625,0H0v100h100V34.375z"/>
</g>
</g></g><g transform="translate(1007,1219) scale(0.53,0.53)"><g transform="" style="fill: rgb(8, 8, 8);">
<polygon points="100,100 0,50 0,50 100,0 "/>
</g></g><g transform="translate(1060,1219) scale(0.53,0.53)"><g transform="" style="fill: rgb(8, 8, 8);">
<polygon points="0,100 100,50 100,50 0,0 "/>
</g></g><g transform="translate(1272,1219) scale(0.53,0.53)"><g transform="" style="fill: rgb(8, 8, 8);">
<rect width="100" height="100"/>
</g></g><g transform="translate(424,1272) scale(0.53,0.53)"><g transform="" style="fill: rgb(8, 8, 8);">
<polygon points="100,100 0,50 0,50 100,0 "/>
</g></g><g transform="translate(477,1272) scale(0.53,0.53)"><g transform="" style="fill: rgb(8, 8, 8);">
<polygon points="0,100 100,50 100,50 0,0 "/>
</g></g><g transform="translate(689,1272) scale(0.53,0.53)"><g transform="" style="fill: rgb(8, 8, 8);">
<polygon points="100,100 0,50 0,50 100,0 "/>
</g></g><g transform="translate(742,1272) scale(0.53,0.53)"><g transform="" style="fill: rgb(8, 8, 8);">
<g>
	<path d="M100,0H0v100h65.625c9.506,0,17.611-3.354,24.316-10.059S100,75.131,100,65.625V0z"/>
</g>
</g></g><g transform="translate(848,1272) scale(0.53,0.53)"><g transform="" style="fill: rgb(8, 8, 8);">
<g>
	<path d="M100,0H0v65.625c0,9.506,3.353,17.611,10.059,24.316S24.87,100,34.375,100H100V0z"/>
</g>
</g></g><g transform="translate(901,1272) scale(0.53,0.53)"><g transform="" style="fill: rgb(8, 8, 8);">
<g>
	<path d="M100,0H0v100h65.625c9.506,0,17.611-3.354,24.316-10.059S100,75.131,100,65.625V0z"/>
</g>
</g></g><g transform="translate(1113,1272) scale(0.53,0.53)"><g transform="" style="fill: rgb(8, 8, 8);">
<polygon points="99.999,49.999 99.998,49.999 49.999,0 0,49.999 -0.001,49.999 -0.001,50 0,50 49.999,99.999 99.998,50 99.999,50 
	99.998,50 "/>
</g></g><g transform="translate(1272,1272) scale(0.53,0.53)"><g transform="" style="fill: rgb(8, 8, 8);">
<polygon points="0,-0.001 50,99.999 50,99.999 100,-0.001 "/>
</g></g><g transform="translate(0,0) scale(3.71, 3.71)"><g transform="" style="fill: rgb(1, 132, 253);">
<g>
	<rect x="15" y="15" style="fill:none;" width="70" height="70"/>
	<path d="M85,0H15H0v15v70v15h15h70h15V85V15V0H85z M85,85H15V15h70V85z"/>
</g>
</g></g><g transform="translate(954,0) scale(3.71, 3.71)"><g transform="" style="fill: rgb(1, 132, 253);">
<g>
	<rect x="15" y="15" style="fill:none;" width="70" height="70"/>
	<path d="M85,0H15H0v15v70v15h15h70h15V85V15V0H85z M85,85H15V15h70V85z"/>
</g>
</g></g><g transform="translate(0,954) scale(3.71, 3.71)"><g transform="" style="fill: rgb(1, 132, 253);">
<g>
	<rect x="15" y="15" style="fill:none;" width="70" height="70"/>
	<path d="M85,0H15H0v15v70v15h15h70h15V85V15V0H85z M85,85H15V15h70V85z"/>
</g>
</g></g><g transform="translate(106,106) scale(1.59, 1.59)"><g transform="" style="fill: rgb(6, 61, 110);">
<rect width="100" height="100"/>
</g></g><g transform="translate(1060,106) scale(1.59, 1.59)"><g transform="" style="fill: rgb(6, 61, 110);">
<rect width="100" height="100"/>
</g></g><g transform="translate(106,1060) scale(1.59, 1.59)"><g transform="" style="fill: rgb(6, 61, 110);">
<rect width="100" height="100"/>
</g></g></g></svg>